<svg width="45" height="46" viewBox="0 0 45 46" fill="none" xmlns="http://www.w3.org/2000/svg">
<path d="M19.5639 19.7065H20.0639V19.2065V16.1083C20.0639 16.0978 20.0639 16.0866 20.0638 16.0744C20.063 15.7507 20.0607 14.8235 20.552 13.9648C21.0338 13.1226 22.0489 12.25 24.3406 12.25H27.2944V15.1943H25.2564C24.8399 15.1943 24.4703 15.4021 24.2188 15.6383C23.9771 15.8654 23.7439 16.2153 23.7439 16.6032V19.1907V19.6907H24.2439H27.2491C27.1821 20.4734 27.0966 21.2042 27.0227 21.7725C26.9853 22.0596 26.9509 22.3047 26.9235 22.4932H24.2259H23.7259V22.9932V33.75H20.0639V22.9932V22.4932H19.5639H17.7959V19.7065H19.5639Z" fill="white" stroke="#1C9DAC"/>
<path d="M22.5 41.75C27.4728 41.75 32.2419 39.7746 35.7583 36.2583C39.2746 32.7419 41.25 27.9728 41.25 23C41.25 18.0272 39.2746 13.2581 35.7583 9.74175C32.2419 6.22544 27.4728 4.25 22.5 4.25C17.5272 4.25 12.7581 6.22544 9.24175 9.74175C5.72544 13.2581 3.75 18.0272 3.75 23C3.75 27.9728 5.72544 32.7419 9.24175 36.2583C12.7581 39.7746 17.5272 41.75 22.5 41.75ZM22.5 44.75C10.4875 44.75 0.75 35.0125 0.75 23C0.75 10.9875 10.4875 1.25 22.5 1.25C34.5125 1.25 44.25 10.9875 44.25 23C44.25 35.0125 34.5125 44.75 22.5 44.75Z" fill="white" stroke="#25A2AF" stroke-width="1.5"/>
</svg>
