<svg width="270" height="513" viewBox="0 0 270 513" fill="none" xmlns="http://www.w3.org/2000/svg">
<path d="M204.581 111.284H251.235C261.23 111.284 269.363 103.152 269.363 93.156V18.189C269.363 8.19295 261.231 0.0609531 251.235 0.0609531H187.17C186.556 0.0349531 185.489 0.00195312 183.994 0.00195312C171.906 0.00195312 129.871 2.38695 96.522 33.066C60.121 66.559 63.604 106.623 65.136 116.501V165.341H18.765C8.76996 165.341 0.636963 173.473 0.636963 183.469V264.098C0.636963 274.095 8.76896 282.228 18.765 282.228H62.453V493.875C62.453 503.87 70.585 512.003 80.581 512.003H171.949C181.944 512.003 190.077 503.87 190.077 493.875V283.273H241.826C251.04 283.273 258.782 276.37 259.835 267.217L269.244 185.545C269.835 180.414 268.204 175.26 264.767 171.405C261.33 167.552 256.399 165.342 251.237 165.342H190.081V124.345C190.079 115.874 192.39 111.284 204.581 111.284ZM179.881 185.741H248.688L239.802 262.875H179.878C174.246 262.875 169.679 267.441 169.679 273.074V491.604H82.85V272.028C82.85 266.395 78.283 261.829 72.651 261.829H21.034V185.739H75.335C80.967 185.739 85.534 181.173 85.534 175.54V115.672C85.534 115.087 85.484 114.502 85.384 113.925C84.309 107.75 80.466 75.56 110.334 48.078C138.249 22.397 173.773 20.401 183.995 20.401C185.428 20.401 186.281 20.439 186.437 20.447C186.605 20.455 186.773 20.459 186.941 20.459H248.967V90.887H204.582C182.728 90.887 169.681 103.395 169.681 124.345V175.541C169.681 181.175 174.249 185.741 179.881 185.741Z" fill="#1C9DAC"/>
</svg>
