<svg width="270" height="513" viewBox="0 0 270 513" fill="none" xmlns="http://www.w3.org/2000/svg">
<path d="M204.581 111.73H251.235C261.23 111.73 269.363 103.598 269.363 93.6022V18.6352C269.363 8.63924 261.231 0.507242 251.235 0.507242H187.17C186.556 0.481242 185.489 0.448242 183.994 0.448242C171.906 0.448242 129.871 2.83324 96.522 33.5122C60.121 67.0052 63.604 107.069 65.136 116.947V165.787H18.765C8.76996 165.787 0.636963 173.919 0.636963 183.915V264.544C0.636963 274.541 8.76896 282.674 18.765 282.674H62.453V494.321C62.453 504.316 70.585 512.449 80.581 512.449H171.949C181.944 512.449 190.077 504.316 190.077 494.321V283.719H241.826C251.04 283.719 258.782 276.816 259.835 267.663L269.244 185.991C269.835 180.86 268.204 175.706 264.767 171.851C261.33 167.998 256.399 165.788 251.237 165.788H190.081V124.791C190.079 116.32 192.39 111.73 204.581 111.73ZM179.881 186.187H248.688L239.802 263.321H179.878C174.246 263.321 169.679 267.887 169.679 273.52V492.05H82.85V272.474C82.85 266.841 78.283 262.275 72.651 262.275H21.034V186.185H75.335C80.967 186.185 85.534 181.619 85.534 175.986V116.118C85.534 115.533 85.484 114.948 85.384 114.371C84.309 108.196 80.466 76.0062 110.334 48.5242C138.249 22.8432 173.773 20.8472 183.995 20.8472C185.428 20.8472 186.281 20.8852 186.437 20.8932C186.605 20.9012 186.773 20.9052 186.941 20.9052H248.967V91.3332H204.582C182.728 91.3332 169.681 103.841 169.681 124.791V175.987C169.681 181.621 174.249 186.187 179.881 186.187Z" fill="white"/>
</svg>
