<svg width="45" height="46" viewBox="0 0 45 46" fill="none" xmlns="http://www.w3.org/2000/svg">
<path d="M22.4561 0.675781C26.2061 0.675781 29.2676 0.719727 31.6406 0.807617C33.6621 0.895508 35.4639 1.24707 37.0459 1.8623C38.5693 2.44824 39.8877 3.29785 41.001 4.41113C42.1143 5.52441 42.9639 6.84277 43.5498 8.36621C44.165 9.94824 44.5166 11.75 44.6045 13.7715C44.6924 16.1445 44.7363 19.2061 44.7363 22.9561C44.7363 26.7061 44.6924 29.7676 44.6045 32.1406C44.5166 34.1621 44.165 35.9639 43.5498 37.5459C42.9639 39.0693 42.1143 40.3877 41.001 41.501C39.8877 42.6143 38.5693 43.4639 37.0459 44.0498C35.4639 44.665 33.6621 45.0166 31.6406 45.1045C29.2676 45.1924 26.2061 45.2363 22.4561 45.2363C18.7061 45.2363 15.6445 45.1924 13.2715 45.1045C11.25 45.0166 9.44824 44.665 7.86621 44.0498C6.34277 43.4639 5.02441 42.6143 3.91113 41.501C2.79785 40.3877 1.94824 39.0693 1.3623 37.5459C0.74707 35.9639 0.395508 34.1621 0.307617 32.1406C0.219727 29.7676 0.175781 26.7061 0.175781 22.9561C0.175781 19.2061 0.219727 16.1445 0.307617 13.7715C0.395508 11.75 0.74707 9.94824 1.3623 8.36621C1.94824 6.84277 2.79785 5.52441 3.91113 4.41113C5.02441 3.29785 6.34277 2.44824 7.86621 1.8623C9.44824 1.24707 11.25 0.895508 13.2715 0.807617C15.6445 0.719727 18.7061 0.675781 22.4561 0.675781ZM22.4561 3.57617C18.5596 3.57617 15.3809 3.62012 12.9199 3.70801C11.3379 3.7666 9.87305 4.04492 8.52539 4.54297C6.41602 5.42188 4.92188 6.91602 4.04297 9.02539C3.54492 10.373 3.2666 11.8379 3.20801 13.4199C3.12012 15.8809 3.07617 19.0596 3.07617 22.9561C3.07617 26.8525 3.12012 30.0312 3.20801 32.4922C3.2666 34.0742 3.54492 35.5391 4.04297 36.8867C4.92188 38.9961 6.41602 40.4902 8.52539 41.3691C9.87305 41.8672 11.3379 42.1455 12.9199 42.2041C15.3809 42.292 18.5596 42.3359 22.4561 42.3359C26.3525 42.3359 29.5312 42.292 31.9922 42.2041C33.5742 42.1455 35.0391 41.8672 36.3867 41.3691C38.4961 40.4902 39.9902 38.9961 40.8691 36.8867C41.3672 35.5391 41.6455 34.0742 41.7041 32.4922C41.792 30.0312 41.8359 26.8525 41.8359 22.9561C41.8359 19.0596 41.792 15.8809 41.7041 13.4199C41.6455 11.8379 41.3672 10.373 40.8691 9.02539C39.9902 6.91602 38.4961 5.42188 36.3867 4.54297C35.0391 4.04492 33.5742 3.7666 31.9922 3.70801C29.5312 3.62012 26.3525 3.57617 22.4561 3.57617ZM22.4561 31.877C24.917 31.877 27.019 31.0054 28.7622 29.2622C30.5054 27.519 31.377 25.417 31.377 22.9561C31.377 20.4951 30.5054 18.3931 28.7622 16.6499C27.019 14.9067 24.917 14.0352 22.4561 14.0352C19.9951 14.0352 17.8931 14.9067 16.1499 16.6499C14.4067 18.3931 13.5352 20.4951 13.5352 22.9561C13.5352 25.417 14.4067 27.519 16.1499 29.2622C17.8931 31.0054 19.9951 31.877 22.4561 31.877ZM22.4561 11.5303C25.6201 11.5303 28.3154 12.6436 30.542 14.8701C32.7686 17.0967 33.8818 19.792 33.8818 22.9561C33.8818 26.1201 32.7686 28.8154 30.542 31.042C28.3154 33.2686 25.6201 34.3818 22.4561 34.3818C19.292 34.3818 16.5967 33.2686 14.3701 31.042C12.1436 28.8154 11.0303 26.1201 11.0303 22.9561C11.0303 19.792 12.1436 17.0967 14.3701 14.8701C16.5967 12.6436 19.292 11.5303 22.4561 11.5303ZM37.0459 11.0908C37.0459 11.8232 36.7822 12.4458 36.2549 12.9585C35.7275 13.4712 35.083 13.7275 34.3213 13.7275C33.5889 13.7275 32.9663 13.4712 32.4536 12.9585C31.9409 12.4458 31.6846 11.8232 31.6846 11.0908C31.6846 10.3291 31.9409 9.68457 32.4536 9.15723C32.9663 8.62988 33.5889 8.36621 34.3213 8.36621C35.0537 8.36621 35.6909 8.63721 36.2329 9.1792C36.7749 9.72119 37.0459 10.3584 37.0459 11.0908Z" fill="white"/>
</svg>
