<svg width="210" height="60" viewBox="0 0 210 60" fill="none" xmlns="http://www.w3.org/2000/svg">
<g clip-path="url(#clip0)">
<path d="M68.3536 32.9579V31.9602C68.8825 31.9436 69.409 31.8808 69.927 31.7726C70.0166 31.7417 70.0942 31.6836 70.1493 31.6063C70.2303 31.4708 70.2786 31.3181 70.2904 31.1605C70.3445 30.7147 70.3903 29.7382 70.428 28.2309C70.4538 27.5021 70.4656 26.2484 70.4632 24.4699C70.4632 22.8777 70.4515 21.4683 70.428 20.2418C70.4478 19.5074 70.397 18.7728 70.2763 18.0481C70.2539 17.9519 70.2036 17.8644 70.1316 17.7969C70.0186 17.7188 69.8874 17.6713 69.7506 17.6589C69.2837 17.5799 68.8125 17.5291 68.3395 17.5068V16.509C69.9517 16.555 71.0594 16.5798 71.6697 16.5798C72.4741 16.5798 73.2854 16.555 74.0968 16.509L75.1305 18.8371L75.9489 20.6062L79.6777 28.3229C80.475 26.7756 81.0735 25.5761 81.4734 24.7246L83.0185 21.466C83.8793 19.6474 84.4049 18.5281 84.5954 18.1083C84.7894 17.6908 85.0046 17.1565 85.248 16.5161C86.2711 16.5692 86.9273 16.5975 87.2165 16.5975L90.7125 16.5161V17.5139H90.5467C89.7565 17.5139 89.2591 17.5988 89.0474 17.7898C88.9232 17.9444 88.8311 18.1223 88.7766 18.3131C88.7221 18.5039 88.7062 18.7038 88.7299 18.9008C88.7299 19.5518 88.7299 20.0472 88.7299 20.3833L88.67 23.6879V27.817C88.67 28.8171 88.67 29.4068 88.67 29.5861C88.7335 30.5838 88.7899 31.1924 88.8358 31.4224C88.854 31.5195 88.8978 31.6099 88.9628 31.6842C89.0384 31.7587 89.132 31.8124 89.2344 31.8399C89.7243 31.9119 90.2177 31.9568 90.7125 31.9743V32.9579L86.9696 32.8872L83.3113 32.9579V31.9602C84.2826 31.9271 84.8365 31.8705 84.9729 31.7903C85.14 31.6499 85.2452 31.449 85.2657 31.2313C85.3526 30.2621 85.3821 29.2886 85.3539 28.3159V19.7535L82.634 25.2695L81.3464 28.0045C81.0006 28.7263 80.5162 29.7736 79.8929 31.1464C79.5084 31.9743 79.2085 32.6466 78.9898 33.1561H78.1925C77.9103 32.498 77.5035 31.5957 76.9719 30.4494C76.0665 28.4939 75.3786 27.0327 74.9082 26.0656L71.825 19.75V25.5278C71.825 26.4902 71.8391 27.6365 71.8673 28.9669C71.892 30.2972 71.9237 31.0473 71.9555 31.2242C71.9687 31.3623 72.0187 31.4942 72.1001 31.6063C72.1983 31.7031 72.3199 31.7726 72.4529 31.808C72.9264 31.8991 73.4067 31.9499 73.8887 31.9602V32.9579C73.0138 32.9131 72.1189 32.8895 71.2041 32.8872C70.0093 32.8824 69.0592 32.906 68.3536 32.9579Z" fill="white"/>
<path d="M92.7798 24.9192C92.7518 23.6386 92.9722 22.3649 93.4289 21.1687C93.8306 20.1711 94.4381 19.2699 95.2114 18.5241C95.9847 17.7784 96.9065 17.205 97.9162 16.8416C99.1934 16.4162 100.532 16.2058 101.878 16.2189C103.196 16.2 104.507 16.4021 105.758 16.8168C107.335 17.384 108.671 18.4752 109.544 19.9091C109.895 20.5319 110.158 21.2013 110.323 21.8976C110.507 22.6802 110.595 23.482 110.588 24.2858C110.601 25.6904 110.342 27.0842 109.826 28.3901C109.452 29.3288 108.892 30.1812 108.178 30.8951C107.473 31.6119 106.634 32.1829 105.709 32.5757C104.329 33.1218 102.856 33.3899 101.373 33.3647C99.8083 33.4059 98.2555 33.0775 96.8402 32.4059C95.5915 31.7796 94.5573 30.7941 93.8698 29.5754C93.1502 28.3299 92.7798 26.7802 92.7798 24.9192ZM96.3887 24.2115C96.3396 25.7583 96.5949 27.2997 97.1401 28.7474C97.641 29.941 98.2819 30.7854 99.0627 31.2808C99.8965 31.7874 100.857 32.044 101.832 32.0202C102.761 32.0347 103.676 31.7897 104.474 31.3126C105.33 30.7408 105.974 29.9012 106.305 28.9244C106.777 27.6177 107.001 26.2341 106.965 24.8449C106.975 23.8303 106.857 22.8184 106.612 21.8339C106.408 21.0048 106.061 20.2181 105.586 19.5093C105.179 18.907 104.639 18.4069 104.009 18.0481C103.261 17.6782 102.432 17.5041 101.599 17.5421C100.57 17.5109 99.5543 17.7908 98.6852 18.3453C97.8557 18.9226 97.2414 19.7603 96.939 20.7265C96.5642 21.8541 96.3817 23.0371 96.3993 24.2257L96.3887 24.2115Z" fill="white"/>
<path d="M113.061 32.9578V32.3953C113.124 32.3563 113.234 32.2927 113.389 32.2077C113.673 32.0508 113.947 31.8771 114.211 31.6876C114.296 30.6403 114.338 28.9361 114.338 26.575V24.6467C114.338 23.6112 114.319 22.0933 114.282 20.0931C114.291 19.3824 114.24 18.6723 114.13 17.9702C114.111 17.9094 114.078 17.8538 114.035 17.8075C113.952 17.7341 113.851 17.6852 113.742 17.6659C113.608 17.6341 113.117 17.5633 112.264 17.4536V16.5019L116.522 16.5726C117.023 16.5726 117.963 16.5526 119.344 16.5125C120.341 16.4865 121.142 16.4748 121.746 16.4771C122.859 16.4558 123.972 16.5399 125.069 16.7283C125.836 16.8735 126.572 17.1487 127.246 17.5421C127.838 17.8918 128.366 18.3392 128.809 18.8654C129.224 19.3539 129.552 19.9104 129.779 20.5106C130.155 21.5503 130.341 22.6493 130.329 23.7551C130.353 25.1369 130.072 26.5069 129.507 27.7674C128.986 28.9091 128.214 29.9179 127.25 30.7182C126.335 31.4881 125.277 32.0689 124.138 32.4271C122.824 32.8056 121.462 32.9845 120.095 32.9578L116.613 32.8871L113.061 32.9578ZM117.753 31.5249C118.443 31.6311 119.14 31.6855 119.838 31.6876C120.771 31.7006 121.702 31.59 122.607 31.3586C123.163 31.2132 123.69 30.9739 124.166 30.651C124.674 30.2685 125.109 29.7975 125.45 29.2605C125.887 28.5893 126.21 27.8505 126.406 27.0739C126.643 26.1805 126.762 25.2597 126.759 24.3354C126.757 23.459 126.638 22.5868 126.406 21.7419C126.195 20.9395 125.815 20.1916 125.292 19.5482C124.777 18.922 124.099 18.4506 123.334 18.186C122.544 17.903 121.348 17.7615 119.746 17.7615C119.079 17.7657 118.413 17.8165 117.753 17.9136C117.675 19.0269 117.635 21.1239 117.633 24.2044V26.9111C117.633 29.2369 117.673 30.7724 117.753 31.5178V31.5249Z" fill="white"/>
<path d="M141.001 24.3106L142.479 21.9118C142.728 21.4801 143.471 20.1663 144.708 17.9703C145.139 17.2178 145.408 16.7284 145.516 16.5019H147.358V17.0362C146.417 18.3123 145.396 19.8137 144.296 21.5403C143.195 23.2669 142.519 24.3767 142.267 24.8697C142.113 25.1473 141.995 25.4433 141.915 25.7507C141.858 26.0408 141.834 26.3363 141.844 26.6317V28.6201C141.833 29.3463 141.858 30.0726 141.922 30.7961C141.928 31.0788 141.989 31.3575 142.101 31.6169C142.192 31.7254 142.316 31.8002 142.454 31.8292C142.967 31.9054 143.485 31.9374 144.003 31.9248V32.9579C142.507 32.9131 141.158 32.8895 139.957 32.8871C138.755 32.8848 137.567 32.9084 136.394 32.9579V31.9248C136.916 31.9219 137.438 31.8864 137.956 31.8186C138.079 31.7961 138.19 31.7339 138.274 31.6417C138.364 31.4171 138.406 31.176 138.397 30.9341C138.442 30.0401 138.466 29.2794 138.468 28.652V26.4123C138.388 26.0169 138.237 25.6393 138.023 25.2978C137.285 23.9486 136.499 22.6194 135.667 21.3103C135.105 20.4042 134.469 19.5462 133.765 18.7451C133.522 18.4549 133.243 18.198 132.933 17.9809C132.594 17.9126 132.248 17.8888 131.903 17.9101V17.0362L134.372 16.5444C134.796 16.45 135.229 16.3439 135.674 16.226C136.054 16.4186 136.409 16.6561 136.732 16.9336C137.07 17.294 137.373 17.6861 137.635 18.1047C138.26 19.0448 138.828 20.0219 139.336 21.0308C140.26 22.8093 140.815 23.9026 141.001 24.3106Z" fill="white"/>
<path d="M153.955 32.9579V32.36C154.249 32.2248 154.534 32.0712 154.808 31.9C154.928 31.8433 155.036 31.764 155.126 31.6665C155.156 31.6281 155.176 31.5833 155.186 31.5356C155.226 31.3422 155.26 30.6428 155.288 29.4374C155.316 28.2321 155.333 26.7874 155.338 25.1032C155.338 22.6265 155.329 21.0933 155.313 20.5036C155.329 19.6577 155.278 18.8118 155.161 17.9738C155.147 17.929 155.124 17.8875 155.094 17.8517C155.064 17.8158 155.027 17.7864 154.985 17.7651C154.805 17.6448 154.209 17.5669 153.193 17.528V16.4949C154.185 16.5397 155.318 16.5633 156.59 16.5656C158.015 16.5656 159.364 16.542 160.636 16.4949V17.528C160.089 17.5151 159.543 17.5867 159.017 17.7403C158.928 17.7909 158.862 17.8729 158.83 17.9703C158.758 18.4505 158.722 18.9353 158.721 19.4209C158.685 20.2842 158.668 21.374 158.668 22.6902C158.668 22.8317 158.668 23.9651 158.668 26.0904C158.668 27.2108 158.674 28.3218 158.685 29.4233C158.685 30.5237 158.685 31.1924 158.685 31.4294C159.765 31.4742 160.5 31.4978 160.89 31.5002C161.93 31.5107 162.969 31.4397 163.998 31.2879C164.197 31.275 164.391 31.2233 164.57 31.1358C164.669 31.008 164.738 30.8591 164.771 30.7006C164.926 30.1038 165.079 29.4209 165.229 28.652H166.2C166.178 28.8713 166.164 29.0058 166.164 29.0412L165.871 31.4153C165.811 32.1618 165.776 32.6076 165.766 32.7562C165.544 32.8186 165.317 32.8623 165.088 32.8871C164.618 32.9272 163.879 32.9461 162.873 32.9438C162.732 32.9438 161.812 32.9249 160.114 32.8871C158.828 32.8565 157.929 32.84 157.419 32.8376C156.671 32.8423 155.516 32.8824 153.955 32.9579Z" fill="white"/>
<path d="M175.598 16.502V17.5351C175.126 17.5357 174.655 17.5652 174.186 17.6236C174.073 17.6428 173.966 17.6876 173.872 17.7545C173.81 17.8031 173.765 17.8698 173.742 17.9455C173.666 18.1933 173.627 18.4507 173.626 18.7098C173.608 18.915 173.597 19.3006 173.59 19.8632C173.56 21.7903 173.543 22.8293 173.541 22.9803V27.7179L173.576 29.8726C173.55 30.4004 173.59 30.9295 173.696 31.4471C173.718 31.5461 173.773 31.6347 173.851 31.6983C173.958 31.77 174.078 31.8183 174.204 31.8398C174.665 31.8963 175.13 31.9223 175.594 31.9177V32.9579C174.319 32.9131 172.959 32.8895 171.512 32.8871C170.257 32.8871 169.136 32.9107 168.15 32.9579V31.9247C168.962 31.8929 169.431 31.8646 169.562 31.8434C169.683 31.8295 169.798 31.7844 169.897 31.7125C169.953 31.6635 169.993 31.5979 170.01 31.5249C170.031 31.4294 170.063 31.0614 170.101 30.4175C170.165 29.474 170.197 28.6048 170.197 27.8099V22.8918C170.197 21.3327 170.188 20.3302 170.172 19.8844C170.165 19.2581 170.118 18.6329 170.031 18.0127C170.016 17.9264 169.978 17.8456 169.921 17.7792C169.842 17.7082 169.744 17.6604 169.639 17.6412C169.148 17.579 168.653 17.5459 168.158 17.5422V16.509C169.141 16.5539 170.269 16.5774 171.544 16.5798C172.974 16.5751 174.325 16.5491 175.598 16.502Z" fill="white"/>
<path d="M177.287 31.9531C177.816 31.9431 178.344 31.8994 178.867 31.8222C178.953 31.7922 179.028 31.7396 179.086 31.67C179.165 31.5373 179.215 31.3887 179.231 31.2348C179.28 30.9376 179.333 30.2158 179.397 29.073C179.428 28.422 179.442 27.5728 179.442 26.5326V22.7574L179.397 19.336C179.404 18.962 179.38 18.5881 179.326 18.218C179.303 18.0782 179.245 17.9468 179.157 17.8358C179.054 17.7374 178.925 17.67 178.786 17.6412C178.29 17.5579 177.79 17.5071 177.287 17.4891V16.502C178.277 16.5468 179.007 16.5704 179.478 16.5727L181.178 16.5373L182.258 16.502C183.866 18.6107 185.816 21.0402 188.107 23.7906C189.753 25.7766 191.122 27.3287 192.213 28.4468V25.733C192.213 21.5155 192.166 19.0388 192.072 18.3029C192.074 18.0944 191.998 17.8927 191.86 17.7368C191.681 17.5953 191.071 17.5174 190.029 17.5033V16.5161C190.986 16.5609 191.862 16.5845 192.657 16.5869C193.43 16.5869 194.421 16.5621 195.645 16.5161V17.5033C194.693 17.5245 194.128 17.5953 193.949 17.7155C193.885 17.7547 193.838 17.8167 193.818 17.8889C193.652 18.7753 193.575 19.6761 193.589 20.5779C193.553 21.9743 193.536 23.0074 193.536 23.6773C193.536 28.8878 193.586 32.051 193.687 33.1667L193.536 33.2728C192.88 33.1619 192.212 33.0593 191.532 32.965C189.006 30.1345 185.425 25.8887 180.79 20.2276V26.0833C180.79 27.2957 180.814 28.5612 180.861 29.8797C180.856 30.436 180.904 30.9915 181.002 31.5391C181.032 31.6293 181.087 31.7091 181.16 31.7691C181.279 31.8414 181.413 31.8839 181.552 31.8929C181.922 31.9427 182.294 31.9734 182.667 31.9849H182.903V32.9367L180.37 32.9119C179.612 32.9119 178.582 32.9367 177.287 32.9827V31.9531Z" fill="white"/>
<path d="M197.805 32.9579V32.3245C198.213 32.1425 198.599 31.9134 198.955 31.6417C199.001 31.3126 199.039 30.7784 199.071 30.0424C199.135 28.6932 199.166 27.7132 199.166 27.1022V21.8056C199.166 21.6004 199.166 20.8362 199.131 19.5094C199.148 18.9642 199.092 18.4193 198.965 17.8889C198.928 17.8121 198.866 17.7499 198.789 17.712C198.239 17.5667 197.672 17.4953 197.103 17.4997V16.5019L199.823 16.5585C200.362 16.5585 200.881 16.5585 201.368 16.5585C202.426 16.5585 203.632 16.5585 204.945 16.5232L207.326 16.463C207.608 16.463 208.176 16.463 209.037 16.509C209.168 16.5187 209.298 16.5424 209.425 16.5798L209.506 16.7319L209.284 18.4267C209.284 18.5434 209.238 19.1095 209.167 20.1215H208.25C208.261 19.5512 208.227 18.9809 208.148 18.4161C208.126 18.3246 208.077 18.242 208.007 18.179C207.707 18.0644 207.389 18.0011 207.068 17.9915C206.313 17.9066 205.553 17.8629 204.793 17.8606C204.088 17.8606 203.382 17.8889 202.676 17.9455C202.554 19.0663 202.499 20.1934 202.511 21.3209V23.7587C203.043 23.7976 203.601 23.8188 204.176 23.8188C204.356 23.8188 205.005 23.8011 206.123 23.7693C206.374 23.7855 206.626 23.758 206.867 23.6879C206.951 23.6277 207.011 23.5401 207.037 23.4402C207.154 22.9515 207.21 22.4499 207.202 21.9471H208.137L208.091 24.5335L208.137 27.1093H207.128C207.128 26.2 207.079 25.641 206.952 25.4287C206.896 25.3452 206.822 25.2755 206.735 25.2247C206.648 25.1738 206.551 25.1432 206.451 25.135C205.763 25.0371 205.068 24.9934 204.373 25.0041C203.615 25.0041 202.99 25.0289 202.497 25.0749V30.0601C202.497 30.6192 202.497 31.0968 202.532 31.4966C203.167 31.5414 203.918 31.565 204.786 31.5674C205.654 31.5697 206.433 31.5426 207.125 31.486C207.575 31.4843 208.021 31.4041 208.444 31.249C208.515 31.1951 208.568 31.1211 208.596 31.0367C208.807 30.3437 208.955 29.6332 209.04 28.9138H210.003C209.849 30.1867 209.763 31.467 209.746 32.7491L209.591 32.9013C208.881 32.9655 208.169 32.9927 207.456 32.9826L205.569 32.9473C203.71 32.926 202.43 32.9119 201.724 32.9119L197.805 32.9579Z" fill="white"/>
<path d="M73.1127 45.299H69.024V39.8077H69.7543V44.6833H72.4918V39.8077H73.2186V44.6833H73.8077V46.6611H73.1021L73.1127 45.299Z" fill="white"/>
<path d="M74.7354 39.8077H78.5172V40.4234H75.4657V42.1571H78.3161V42.7727H75.4727V44.6727H78.5454V45.2883H74.7354V39.8077Z" fill="white"/>
<path d="M79.6109 39.8077H80.3411V42.1571H83.2233V39.7971H83.9606V45.2883H83.2339V42.7727H80.3517V45.2883H79.6215L79.6109 39.8077Z" fill="white"/>
<path d="M86.578 40.4234H84.7542V39.8077H89.1321V40.4234H87.3083V45.2989H86.578V40.4234Z" fill="white"/>
<path d="M89.9294 39.8077H92.3282C92.5555 39.7909 92.7839 39.8201 92.9996 39.8936C93.2154 39.9672 93.4142 40.0836 93.5841 40.2359C93.858 40.5739 94.0075 40.9962 94.0075 41.4318C94.0075 41.8673 93.858 42.2896 93.5841 42.6276C93.414 42.7795 93.2151 42.8953 92.9993 42.9683C92.7835 43.0412 92.5553 43.0698 92.3282 43.0522H90.6631V45.299H89.9364L89.9294 39.8077ZM92.0742 42.4401C92.3976 42.4666 92.7197 42.3749 92.9809 42.1819C93.1671 41.9767 93.2702 41.7092 93.2702 41.4318C93.2702 41.1543 93.1671 40.8869 92.9809 40.6817C92.7197 40.4886 92.3976 40.3969 92.0742 40.4234H90.6631V42.4401H92.0742Z" fill="white"/>
<path d="M99.4826 45.4228C98.8981 45.4465 98.3235 45.2664 97.8563 44.9134C97.6347 44.7231 97.4529 44.4907 97.3215 44.2296C97.1901 43.9684 97.1117 43.6837 97.0908 43.3919H97.8281C97.8802 43.7977 98.0709 44.1728 98.3678 44.4534C98.6719 44.7032 99.0584 44.8294 99.4508 44.8072C99.7101 44.8116 99.9674 44.761 100.206 44.6586C100.425 44.5756 100.623 44.4465 100.788 44.28C100.945 44.0881 101.064 43.8685 101.141 43.6325C101.234 43.3647 101.287 43.0845 101.299 42.8011H98.777V42.196H101.299C101.271 41.9535 101.212 41.7157 101.123 41.4884C101.042 41.2665 100.922 41.0605 100.77 40.8799C100.624 40.7018 100.441 40.557 100.234 40.4553C100.003 40.348 99.751 40.2948 99.4967 40.2996C99.3058 40.2977 99.1156 40.3239 98.9322 40.3774C98.7629 40.4234 98.6028 40.4988 98.4595 40.6003C98.3219 40.6963 98.2025 40.8161 98.1068 40.9542C98.0092 41.0939 97.9364 41.2495 97.8916 41.4141H97.186C97.2161 41.1472 97.3093 40.8912 97.4576 40.6676C97.6026 40.4561 97.7856 40.2737 97.9974 40.1298C98.2142 39.9859 98.4523 39.8772 98.7029 39.8078C98.956 39.7305 99.2182 39.6877 99.4826 39.6804C99.8716 39.672 100.258 39.7518 100.611 39.9139C100.922 40.058 101.196 40.2709 101.412 40.5367C101.63 40.8069 101.791 41.1186 101.885 41.453C101.992 41.8136 102.045 42.1879 102.044 42.564C102.05 42.9742 101.986 43.3825 101.853 43.7705C101.736 44.1023 101.556 44.4085 101.324 44.6728C101.101 44.9153 100.828 45.1061 100.523 45.2318C100.193 45.3671 99.8389 45.4322 99.4826 45.4228Z" fill="white"/>
<path d="M105.367 45.4228C104.985 45.4307 104.606 45.3559 104.256 45.2035C103.95 45.0647 103.68 44.8577 103.465 44.5985C103.251 44.3302 103.092 44.0225 102.996 43.6927C102.888 43.3275 102.835 42.9484 102.837 42.5676C102.837 42.1881 102.895 41.8109 103.01 41.4495C103.115 41.115 103.282 40.8039 103.504 40.5331C103.724 40.2688 104 40.0572 104.312 39.9139C104.664 39.755 105.048 39.6764 105.434 39.684C105.709 39.6823 105.982 39.7217 106.245 39.8007C106.491 39.8777 106.722 39.9975 106.926 40.1545C107.128 40.3044 107.299 40.4933 107.427 40.71C107.563 40.9489 107.652 41.2121 107.688 41.4849H106.958C106.901 41.1322 106.707 40.8166 106.418 40.6074C106.126 40.4083 105.78 40.3056 105.427 40.3138C105.136 40.3062 104.848 40.3693 104.587 40.4977C104.359 40.6165 104.162 40.7874 104.012 40.9966C103.856 41.2089 103.743 41.4491 103.677 41.7042C103.606 41.9744 103.57 42.2527 103.571 42.5322C103.57 42.8315 103.605 43.1298 103.677 43.4203C103.741 43.6836 103.855 43.9322 104.012 44.1527C104.164 44.3609 104.362 44.5305 104.591 44.648C104.853 44.7777 105.142 44.8409 105.434 44.832C105.651 44.8355 105.868 44.7945 106.069 44.7117C106.253 44.6383 106.419 44.5261 106.556 44.3826C106.693 44.2371 106.8 44.0665 106.873 43.8802C106.952 43.6778 106.999 43.464 107.011 43.2469H107.741C107.71 43.855 107.459 44.431 107.035 44.8674C106.574 45.2651 105.974 45.4647 105.367 45.4228Z" fill="white"/>
<path d="M110.066 40.4234H108.242V39.8077H112.62V40.4234H110.796V45.2989H110.066V40.4234Z" fill="white"/>
<path d="M113.424 39.8077H117.203V40.4234H114.151V42.1571H116.998V42.7727H114.151V44.6727H117.227V45.2883H113.424V39.8077Z" fill="white"/>
<path d="M119.541 40.4234H117.717V39.8077H122.095V40.4234H120.268V45.2989H119.541V40.4234Z" fill="white"/>
<path d="M122.893 39.8077H123.62V44.4604L126.371 39.8077H127.292V45.2989H126.565V40.6321L123.803 45.2989H122.893V39.8077Z" fill="white"/>
<path d="M131.8 42.9461C131.737 42.9708 131.652 43.0027 131.543 43.0345L131.19 43.1301C131.056 43.1619 130.918 43.1867 130.774 43.2114C130.64 43.2332 130.504 43.245 130.368 43.2468C130.026 43.2591 129.685 43.2062 129.363 43.0911C129.14 43.0081 128.941 42.8707 128.784 42.6913C128.651 42.5293 128.559 42.3375 128.516 42.1323C128.474 41.9238 128.453 41.7117 128.452 41.499V39.8077H129.158V41.4494C129.159 41.581 129.169 41.7123 129.19 41.8422C129.211 41.9805 129.263 42.1124 129.341 42.2278C129.433 42.3522 129.555 42.4518 129.694 42.518C129.9 42.6049 130.123 42.6448 130.347 42.6347C130.642 42.6399 130.938 42.6078 131.225 42.5392C131.419 42.4907 131.608 42.4243 131.79 42.3411V39.8184H132.516V45.3096H131.79L131.8 42.9461Z" fill="white"/>
<path d="M133.913 39.8077H137.695V40.4234H134.644V42.1571H137.487V42.7727H134.644V44.6727H137.716V45.2883H133.913V39.8077Z" fill="white"/>
<path d="M141.05 45.4229C140.668 45.4307 140.289 45.3559 139.939 45.2035C139.633 45.0647 139.363 44.8578 139.149 44.5985C138.935 44.3302 138.775 44.0225 138.68 43.6927C138.572 43.3276 138.518 42.9484 138.521 42.5676C138.518 42.1859 138.575 41.8063 138.69 41.4424C138.795 41.108 138.962 40.7968 139.184 40.5261C139.404 40.2609 139.682 40.0492 139.996 39.9069C140.346 39.7493 140.727 39.6719 141.11 39.6804C141.385 39.6788 141.658 39.7181 141.922 39.7972C142.168 39.8742 142.398 39.994 142.603 40.151C142.805 40.3009 142.975 40.4897 143.103 40.7065C143.24 40.9454 143.328 41.2085 143.365 41.4814H142.634C142.577 41.1287 142.383 40.8131 142.095 40.6039C141.803 40.4048 141.456 40.3021 141.103 40.3102C140.813 40.3031 140.525 40.3662 140.264 40.4942C140.036 40.6129 139.839 40.7838 139.689 40.9931C139.527 41.2039 139.407 41.4442 139.336 41.7007C139.264 41.9708 139.229 42.2492 139.23 42.5286C139.228 42.8279 139.264 43.1263 139.336 43.4167C139.405 43.6814 139.525 43.9301 139.689 44.1491C139.84 44.3573 140.038 44.527 140.267 44.6445C140.529 44.7742 140.818 44.8373 141.11 44.8284C141.328 44.8323 141.544 44.7914 141.745 44.7081C141.929 44.6348 142.095 44.5225 142.232 44.3791C142.37 44.2345 142.478 44.0637 142.55 43.8767C142.629 43.6743 142.675 43.4605 142.687 43.2434H143.417C143.386 43.8515 143.135 44.4275 142.712 44.8638C142.252 45.2611 141.656 45.4618 141.05 45.4229Z" fill="white"/>
<path d="M144.514 39.8077H145.245V42.4684L148.021 39.8077H148.963L146.356 42.2526L149.054 45.2989H148.134L145.805 42.6984L145.245 43.2185V45.2954H144.514V39.8077Z" fill="white"/>
<path d="M152.134 45.4228C151.742 45.4323 151.352 45.3512 150.995 45.1857C150.678 45.0373 150.398 44.8212 150.173 44.5524C149.951 44.2828 149.784 43.9729 149.679 43.6396C149.458 42.9348 149.458 42.179 149.679 41.4742C149.783 41.1384 149.951 40.826 150.173 40.5543C150.398 40.2855 150.679 40.0683 150.995 39.9174C151.354 39.758 151.743 39.6757 152.136 39.6757C152.529 39.6757 152.918 39.758 153.277 39.9174C153.594 40.0683 153.874 40.2855 154.099 40.5543C154.322 40.826 154.49 41.1384 154.593 41.4742C154.814 42.179 154.814 42.9348 154.593 43.6396C154.489 43.9729 154.321 44.2828 154.099 44.5524C153.875 44.8212 153.594 45.0373 153.277 45.1857C152.92 45.3515 152.529 45.4326 152.134 45.4228ZM152.134 44.8142C152.433 44.8214 152.729 44.7546 152.995 44.6196C153.229 44.4945 153.431 44.3164 153.584 44.0995C153.745 43.8812 153.864 43.6354 153.937 43.3742C154.078 42.8373 154.078 42.2729 153.937 41.736C153.864 41.4737 153.745 41.2268 153.584 41.0072C153.431 40.7914 153.229 40.6145 152.995 40.4906C152.728 40.3601 152.434 40.2923 152.136 40.2923C151.839 40.2923 151.545 40.3601 151.277 40.4906C151.043 40.6145 150.842 40.7914 150.688 41.0072C150.526 41.226 150.407 41.4731 150.335 41.736C150.194 42.2729 150.194 42.8373 150.335 43.3742C150.407 43.636 150.526 43.882 150.688 44.0995C150.842 44.3164 151.043 44.4945 151.277 44.6196C151.543 44.7542 151.837 44.821 152.134 44.8142Z" fill="white"/>
<path d="M155.838 39.8077H156.565V44.4604L159.317 39.8077H160.238V45.2989H159.511V40.6321L156.749 45.2989H155.838V39.8077ZM158.04 39.4539C157.687 39.4723 157.338 39.3781 157.041 39.185C156.917 39.0943 156.816 38.975 156.746 38.8372C156.677 38.6993 156.642 38.5469 156.643 38.3925H157.348C157.353 38.4752 157.375 38.556 157.413 38.6297C157.45 38.7034 157.503 38.7684 157.567 38.8206C157.708 38.907 157.871 38.9489 158.036 38.9409C158.213 38.9565 158.389 38.9116 158.537 38.8135C158.653 38.7031 158.721 38.5522 158.728 38.3925H159.433C159.435 38.5403 159.399 38.6862 159.331 38.817C159.265 38.9478 159.169 39.0615 159.052 39.1496C158.921 39.2507 158.773 39.3274 158.615 39.3761C158.429 39.429 158.236 39.4529 158.043 39.4468L158.04 39.4539Z" fill="white"/>
<path d="M163.963 39.8077H164.961L166.686 44.4073L168.419 39.8077H169.413V45.2989H168.708V40.7418L167 45.3096H166.38L164.669 40.7418V45.3096H163.963V39.8077Z" fill="white"/>
<path d="M170.817 39.8077H174.596V40.4234H171.544V42.1571H174.391V42.7727H171.544V44.6727H174.624V45.2883H170.817V39.8077Z" fill="white"/>
<path d="M175.164 44.6833H175.7C175.819 44.4577 175.914 44.2207 175.985 43.9757C176.077 43.6768 176.152 43.3733 176.211 43.0664C176.275 42.7373 176.324 42.3835 176.359 42.0049C176.395 41.6263 176.412 41.2584 176.412 40.8798V39.7865H179.94V44.6621H180.543V46.6399H179.838V45.2777H175.851V46.6399H175.146L175.164 44.6833ZM179.21 44.6833V40.4375H177.118V41.2301C177.118 41.5839 177.1 41.9094 177.068 42.2491C177.037 42.5887 176.987 42.9142 176.931 43.2185C176.874 43.5228 176.804 43.8023 176.73 44.0606C176.669 44.2788 176.591 44.4917 176.497 44.6975L179.21 44.6833Z" fill="white"/>
<path d="M181.471 39.8077H182.201V44.4604L184.953 39.8077H185.874V45.2989H185.144V40.6321L182.385 45.2989H181.471V39.8077Z" fill="white"/>
<path d="M191.345 45.299H187.26V39.8077H187.987V44.6833H190.724V39.8077H191.455V44.6833H192.044V46.6611H191.338L191.345 45.299Z" fill="white"/>
<path d="M192.968 39.8077H193.695V44.4604L196.446 39.8077H197.367V45.2989H196.64V40.6321L193.878 45.2989H192.968V39.8077Z" fill="white"/>
<path d="M198.757 39.8077H199.487V42.1571H202.369V39.7971H203.096V45.2883H202.369V42.7727H199.487V45.2883H198.757V39.8077Z" fill="white"/>
<path d="M204.482 39.8077H205.213V42.0474H206.846C207.3 42.0165 207.747 42.1665 208.091 42.4649C208.371 42.8048 208.525 43.2321 208.525 43.6732C208.525 44.1142 208.371 44.5415 208.091 44.8815C207.747 45.1785 207.3 45.3283 206.846 45.299H204.482V39.8077ZM206.599 44.6833C207.396 44.6833 207.795 44.3472 207.795 43.6749C207.795 42.9956 207.396 42.6524 206.599 42.6524H205.213V44.6833H206.599ZM209.245 39.8077H209.972V45.299H209.245V39.8077Z" fill="white"/>
<path d="M36.2969 60C35.8353 60 35.3751 59.949 34.9246 59.8478C33.0602 59.4334 31.3651 58.4612 30.0634 57.0597H29.9787C29.1321 57.1411 28.2149 56.568 28.0843 55.3084C27.9291 53.8648 28.2184 51.6853 28.6558 49.2935C27.8882 48.2501 27.0093 47.2938 26.0347 46.4417C23.8757 44.5099 23.1631 42.6701 23.1137 41.1345C13.1831 41.0355 2.5822 37.2036 0.43027 26.5078C-1.68638 16.0632 4.27552 9.26993 10.5443 6.39341C13.1619 5.19397 15.836 4.68448 17.9173 4.86846C19.6565 2.34576 24.1756 0.268864 27.9609 0.0459603C34.2226 -0.307855 39.7647 1.41876 44.0015 5.0666C45.9312 6.71538 47.0248 8.40662 47.0813 9.76527C48.2172 10.6321 49.339 12.3587 50.0834 14.1349C50.7182 15.7376 51.0796 17.4361 51.1523 19.1591V19.6862C51.1523 20.9847 51.1699 22.3222 50.5138 23.4827C50.8036 24.7194 51.2883 25.9019 51.9496 26.9855L52.1859 27.4136C52.945 28.8517 53.8404 30.2131 54.86 31.4789C55.4703 32.2467 55.8054 32.6713 55.6431 33.3612C55.4703 34.1078 54.9094 34.4616 53.9392 34.8578C53.8722 34.8862 53.6711 34.964 53.3995 35.056C53.2989 35.7729 53.1239 36.4772 52.8774 37.1576C53.2153 37.0217 53.5903 37.0105 53.9357 37.1258C54.2708 37.2532 54.6871 37.5858 54.7682 38.4562C54.7976 38.6669 54.7714 38.8817 54.6922 39.0791C54.6129 39.2766 54.4835 39.4497 54.3167 39.5813C54.5567 39.8398 54.6957 40.1765 54.7083 40.5295C54.7463 40.7453 54.7204 40.9675 54.6339 41.1687C54.5474 41.3699 54.404 41.5413 54.2214 41.6617C53.8122 41.9094 53.1631 41.874 52.4787 41.6971C52.4614 42.4614 52.5265 43.2254 52.6728 43.9757L52.7398 44.4038C52.9409 45.7554 52.7398 46.7248 52.1895 47.2874C51.7132 47.7615 51.0006 47.9278 50.0728 47.7827C47.6024 47.3734 45.1771 46.7264 42.8303 45.8509L42.6645 45.7907C42.7069 46.7213 42.7245 47.7933 42.7386 48.9751C42.7739 51.6287 42.8127 54.3672 43.2149 56.3167C43.3074 56.6409 43.458 56.9454 43.6594 57.2154C45.3386 56.5326 46.6721 56.0832 47.5046 56.5078C47.6821 56.5965 47.8376 56.7238 47.9596 56.8806C48.0817 57.0373 48.1673 57.2194 48.2102 57.4136C48.4606 58.3441 48.1008 59.034 47.2471 59.264C46.2205 59.5435 44.5554 59.0447 43.5006 57.9584L43.1055 58.1212C41.0312 58.9774 38.5653 60 36.2969 60ZM30.6913 56.8333C31.8886 58.0416 33.403 58.8844 35.0587 59.264C37.4823 59.7841 40.4562 58.5564 42.8444 57.5657L43.0702 57.4737C42.8598 57.1713 42.7023 56.835 42.6046 56.4795C42.1848 54.4557 42.1495 51.6853 42.1142 49.0069C42.1142 47.8605 42.0825 46.654 42.026 45.582C40.7525 45.0866 39.8882 44.2304 39.7471 43.3105C39.7034 43.0276 39.7401 42.7381 39.853 42.4753C39.966 42.2124 40.1506 41.9868 40.3856 41.8245C40.5381 41.6794 40.7292 41.5819 40.9358 41.5436C41.1424 41.5053 41.3557 41.5279 41.5498 41.6086C42.2165 41.9412 42.4881 43.1654 42.6081 45.1468L43.0103 45.2883C45.3228 46.1508 47.7127 46.7883 50.1469 47.1918C50.8736 47.3051 51.4098 47.1918 51.7379 46.8699C52.1577 46.4488 52.2847 45.6563 52.1154 44.5099L52.0519 44.0854C51.8805 43.2466 51.8177 42.3892 51.8649 41.5343C50.7048 41.1015 49.5895 40.5564 48.5347 39.9068C48.5085 39.8772 48.4888 39.8424 48.4768 39.8047C48.4648 39.767 48.4609 39.7272 48.4652 39.6878C48.4695 39.6485 48.482 39.6105 48.5019 39.5763C48.5218 39.5421 48.5486 39.5124 48.5806 39.4893C48.6688 39.4185 50.7325 38.8206 51.5862 38.0068C51.7458 37.855 51.9155 37.7144 52.0942 37.5858C52.1471 37.4159 52.2071 37.2319 52.2706 37.0444C52.4845 36.462 52.6462 35.8617 52.7539 35.2506C51.9919 35.4346 51.0712 35.5266 50.6372 35.0631C50.4573 34.8614 50.3092 34.4899 50.6372 33.8495C50.8205 33.5274 51.1025 33.2733 51.4412 33.1248C51.7799 32.9763 52.1574 32.9413 52.5175 33.0251C52.794 33.0849 53.0397 33.2426 53.2095 33.4695C53.3793 33.6963 53.4618 33.977 53.4418 34.2599C53.4418 34.3094 53.4418 34.359 53.4418 34.405C53.5265 34.3767 53.6111 34.3413 53.6958 34.3059C54.7259 33.8884 54.9482 33.6301 55.0399 33.2444C55.1316 32.8588 54.9764 32.643 54.3731 31.8823C53.33 30.5884 52.4143 29.1961 51.6391 27.7249L51.4063 27.3039C50.8106 26.307 50.3469 25.2366 50.027 24.1195C49.8634 24.2788 49.6795 24.4156 49.4801 24.5264C49.5182 25.0934 49.4754 25.6629 49.3531 26.2177C49.1626 27.1907 48.122 27.824 47.2365 27.8771C45.9947 27.9514 44.6048 27.3747 44.5342 26.3167C44.5136 26.1172 44.5344 25.9155 44.5951 25.7243C44.6558 25.5332 44.7551 25.3566 44.887 25.2058C45.2927 24.7387 46.0406 24.4734 47.1095 24.4097H47.1589C47.7216 24.4028 48.2807 24.3183 48.8205 24.1585C48.6476 23.5393 48.2278 23.1324 47.5117 22.814C45.4126 22.2196 44.5342 23.1996 43.7581 24.0629C43.5475 24.3158 43.311 24.5458 43.0526 24.7493C42.8495 24.9088 42.6147 25.0229 42.364 25.0839C42.1133 25.1449 41.8526 25.1515 41.5991 25.1032C41.4083 25.0443 41.2338 24.9417 41.0893 24.8035C40.9448 24.6654 40.8343 24.4954 40.7666 24.3071C40.5302 23.7587 40.7666 23.1112 41.384 22.4814C42.6116 21.2643 45.7055 20.0401 48.4395 21.2749C49.14 21.6113 49.7363 22.1322 50.1645 22.7821C50.5455 21.8551 50.5385 20.7972 50.5349 19.6862C50.5349 19.5129 50.5349 19.3324 50.5349 19.1626C50.4594 17.517 50.115 15.895 49.5154 14.3613C48.9476 12.9061 48.0906 11.582 46.9966 10.4694L46.9649 10.572C46.871 10.8805 46.6857 11.1531 46.4337 11.3534C46.1816 11.5538 45.8747 11.6724 45.5538 11.6936C45.3533 11.7121 45.1513 11.6859 44.9622 11.6168C44.7731 11.5476 44.6017 11.4373 44.4602 11.2937C44.3396 11.1643 44.248 11.0105 44.1914 10.8428C44.1349 10.675 44.1146 10.497 44.1321 10.3208C44.192 9.85018 44.6154 9.31946 45.4303 9.18147C45.7639 9.13397 46.104 9.18692 46.4075 9.33361C46.1923 8.35354 45.3809 7.02674 43.5853 5.50887C43.169 5.15505 42.7421 4.80124 42.2976 4.48988C43.2078 5.75692 43.6798 7.28773 43.6417 8.84889C43.5747 11.1522 41.712 11.8174 39.9094 12.4613C38.1067 13.1053 36.4486 13.6926 36.184 15.7483C35.5526 20.0188 34.0039 21.3846 32.7621 22.4708C31.8908 23.2385 31.1499 23.886 30.8713 25.3862C31.8908 25.8391 32.8362 26.6139 32.8891 27.5728C32.9091 27.7561 32.8913 27.9415 32.837 28.1177C32.7826 28.2938 32.6929 28.4569 32.5732 28.5968C32.4535 28.7368 32.3064 28.8506 32.1411 28.9313C31.9758 29.012 31.7957 29.0578 31.6121 29.0659C31.4249 29.0728 31.2383 29.041 31.064 28.9723C30.8897 28.9036 30.7313 28.7996 30.5989 28.6668C30.4664 28.534 30.3628 28.3752 30.2943 28.2003C30.2258 28.0255 30.1941 27.8383 30.201 27.6506C30.1621 27.0387 30.1727 26.4246 30.2327 25.8143C29.852 25.6745 29.4493 25.605 29.0439 25.6091C28.1902 25.6587 26.2217 26.0938 26.3945 29.0836C26.4376 30.5616 26.9442 31.9883 27.8423 33.1609C28.7403 34.3335 29.9842 35.1922 31.3969 35.615C31.5909 34.6173 31.7497 33.7292 31.8872 32.972C31.0829 32.7314 30.328 32.2998 30.2468 31.1392C30.2405 30.8985 30.2968 30.6603 30.4101 30.448C30.5234 30.2358 30.6899 30.0567 30.8932 29.9286C31.0964 29.8004 31.3295 29.7275 31.5693 29.7171C31.8092 29.7066 32.0476 29.759 32.2612 29.869C32.4834 30.007 32.8397 30.3644 32.7621 31.1676C32.7269 31.5214 32.6669 31.9849 32.5787 32.5156L32.7515 32.5545C33.7464 32.7739 34.8682 33.018 34.9529 34.3696C34.9952 35.1374 34.6706 36.1068 32.8856 36.3757C32.5486 36.4164 32.2074 36.4069 31.8731 36.3474C31.7214 37.1293 31.5521 37.9785 31.3722 38.8913C31.1535 39.9811 30.9206 41.1558 30.6666 42.4012C30.4832 43.3388 30.2856 44.3047 30.0846 45.2706C29.8129 46.5762 29.5413 47.8959 29.3085 49.1626C30.5449 50.8802 31.2857 52.9062 31.4498 55.0182C31.5081 55.3618 31.4678 55.7149 31.3335 56.0363C31.1992 56.3577 30.9765 56.6341 30.6913 56.8333ZM44.0968 57.7178C44.9858 58.521 46.284 58.8996 47.0742 58.6838C47.5928 58.5422 47.7798 58.1813 47.6069 57.5799C47.5864 57.471 47.5418 57.3681 47.4765 57.2787C47.4112 57.1893 47.3268 57.1157 47.2294 57.0633C46.6438 56.7802 45.4479 57.173 44.0968 57.7249V57.7178ZM29.1532 50.0224C28.8005 52.1453 28.5641 54.0099 28.6982 55.2659C28.7934 56.1681 29.4037 56.5219 29.9258 56.4724C30.4479 56.4229 30.9312 55.9629 30.8466 55.0572C30.7064 53.2642 30.1246 51.5342 29.1532 50.0224ZM23.7346 41.1345C23.791 42.5321 24.4402 44.2127 26.4474 45.9924C27.3093 46.7523 28.1026 47.587 28.8181 48.4868C29.0262 47.3935 29.2591 46.2649 29.4919 45.1468C29.6895 44.1809 29.8905 43.2185 30.074 42.2844C30.3174 41.039 30.5502 39.8643 30.7795 38.771L31.2875 36.213C29.7373 35.7688 28.3682 34.8412 27.3788 33.5645C26.3893 32.2877 25.8309 30.7282 25.7842 29.1119C25.6255 26.2177 27.347 25.0855 29.0086 24.9935C29.4573 24.9839 29.904 25.0546 30.328 25.2022C30.6525 23.5817 31.478 22.8529 32.3952 22.0462C33.6229 20.96 35.0199 19.7322 35.6125 15.6775C35.9265 13.2574 37.9515 12.5356 39.74 11.8988C41.5286 11.2619 43.0138 10.7312 43.0667 8.84535C43.1655 5.3815 40.4138 3.3046 40.2445 3.18431C36.7167 1.24894 32.5505 0.378548 27.9997 0.643909C23.9921 0.877427 20.2598 2.90125 18.6405 4.94984C19.8752 5.16921 20.863 5.65747 21.4627 6.42525C22.1401 7.30625 22.2459 8.19433 21.7591 8.90196C21.1982 9.68743 19.9387 10.0236 18.8875 9.6662C17.7621 9.28408 17.1448 8.25094 17.1942 6.87106C17.2188 6.37741 17.3487 5.89481 17.5751 5.4558C15.6314 5.35673 13.1866 5.85915 10.8089 6.9489C4.75177 9.72635 -0.991415 16.2896 1.04057 26.384C2.83267 35.286 11.0312 40.4835 23.1419 40.5366C23.1839 39.9884 23.3027 39.4488 23.4947 38.9338C23.9392 37.7521 25.0505 36.9843 26.0806 37.1647C26.8955 37.2956 27.407 37.982 27.4529 38.9975C27.5022 40.1297 26.5639 41.0602 25.3362 41.1204C24.7929 41.1204 24.2638 41.131 23.7346 41.1345ZM41.1688 42.1288C41.0115 42.1474 40.8637 42.2141 40.7454 42.3198C40.5994 42.4147 40.4842 42.5503 40.414 42.71C40.3438 42.8696 40.3217 43.0464 40.3503 43.2185C40.4244 43.7103 40.9007 44.4109 41.9837 44.9027C41.8814 43.4556 41.6803 42.3587 41.2781 42.1535C41.2438 42.1378 41.2065 42.1294 41.1688 42.1288ZM52.5634 41.0956C53.1384 41.2513 53.6217 41.2937 53.8828 41.131C53.9392 41.0991 54.1086 40.993 54.0768 40.5613C54.0451 40.1297 53.8687 39.9068 53.6006 39.8856C53.269 39.8749 52.8033 40.2465 52.5634 41.0956ZM49.5683 39.7865C50.3429 40.2216 51.1496 40.5965 51.9813 40.9081C52.0975 40.4447 52.335 40.0208 52.6692 39.6803C52.4546 39.5661 52.274 39.3969 52.1458 39.19C52.0175 38.983 51.9461 38.7457 51.939 38.5021C51.2362 39.0771 50.4337 39.5173 49.5719 39.8006L49.5683 39.7865ZM25.8054 37.7344C25.4084 37.7723 25.0313 37.9268 24.7213 38.1785C24.4114 38.4302 24.1823 38.768 24.0627 39.1496C23.8954 39.5942 23.7897 40.0597 23.7487 40.533C24.2567 40.533 24.7682 40.5154 25.2868 40.4906C26.1935 40.4517 26.8743 39.8006 26.839 39.0116C26.8073 38.304 26.4863 37.837 25.9818 37.7556C25.9238 37.7431 25.8647 37.736 25.8054 37.7344ZM52.6163 37.9643C52.5369 38.2003 52.5234 38.4536 52.5775 38.6967C52.6512 38.898 52.7963 39.0649 52.9851 39.1654C53.1739 39.266 53.3931 39.2931 53.6006 39.2416C53.6824 39.2312 53.7614 39.2045 53.8328 39.1632C53.9043 39.1218 53.9668 39.0665 54.0167 39.0006C54.0666 38.9348 54.103 38.8596 54.1236 38.7794C54.1442 38.6993 54.1487 38.6159 54.1368 38.534C54.1086 38.2262 54.0063 37.8264 53.6958 37.7167C53.5098 37.6781 53.3177 37.6803 53.1326 37.723C52.9475 37.7658 52.7738 37.8481 52.6234 37.9643H52.6163ZM31.979 35.7495C32.252 35.8028 32.5312 35.8159 32.808 35.7884C34.4166 35.5478 34.3708 34.6986 34.3531 34.4191C34.3073 33.577 33.6688 33.3966 32.6316 33.1702L32.4905 33.1383C32.3494 33.8766 32.1812 34.747 31.986 35.7495H31.979ZM52.1436 33.5806C51.9503 33.5775 51.7596 33.6265 51.5915 33.7223C51.4234 33.8181 51.2839 33.9573 51.1876 34.1254C51.1241 34.2422 50.9936 34.5323 51.0959 34.6456C51.2652 34.8331 51.9566 34.8295 52.8245 34.596C52.8245 34.4828 52.8245 34.3625 52.8245 34.2422C52.8405 34.0978 52.8019 33.9526 52.7163 33.8353C52.6308 33.718 52.5044 33.6372 52.3623 33.6089C52.293 33.5919 52.222 33.5824 52.1507 33.5806H52.1436ZM31.6438 30.3113C31.4918 30.316 31.3436 30.3599 31.2134 30.4387C31.0967 30.5032 31 30.5988 30.934 30.7149C30.868 30.831 30.8353 30.9632 30.8395 31.0968C30.8924 31.8398 31.2946 32.1582 31.9719 32.3599C32.053 31.8681 32.1095 31.4471 32.1412 31.1109C32.1659 30.8597 32.1412 30.5271 31.9225 30.4033C31.8425 30.3475 31.7483 30.3156 31.6509 30.3113H31.6438ZM30.8007 26.0655C30.763 26.585 30.763 27.1064 30.8007 27.6259C30.836 28.2698 31.2381 28.4786 31.5839 28.4573C31.6831 28.4529 31.7804 28.4285 31.87 28.3855C31.9596 28.3426 32.0398 28.2821 32.1056 28.2075C32.1714 28.1329 32.2216 28.0458 32.2532 27.9513C32.2848 27.8569 32.2971 27.757 32.2894 27.6577C32.2682 27.0244 31.5944 26.437 30.8078 26.0514L30.8007 26.0655ZM48.8945 24.7883C48.3356 24.9357 47.7613 25.0164 47.1836 25.0289H47.1342C46.2487 25.0819 45.6243 25.2871 45.335 25.6197C45.257 25.7104 45.1985 25.8163 45.1632 25.9308C45.128 26.0453 45.1168 26.1659 45.1304 26.2849C45.1728 26.9182 46.2487 27.3287 47.1871 27.2756C47.8433 27.2367 48.6264 26.7838 48.757 26.1115C48.8549 25.6726 48.9034 25.2239 48.9016 24.7741L48.8945 24.7883ZM45.963 21.3916C44.4361 21.3849 42.9589 21.9357 41.8073 22.9413C41.3698 23.373 41.1935 23.794 41.3205 24.0877C41.3531 24.1916 41.4093 24.2865 41.4846 24.3651C41.5598 24.4436 41.6522 24.5037 41.7544 24.5406C41.9216 24.5621 42.0914 24.5484 42.253 24.5003C42.4146 24.4521 42.5644 24.3707 42.6927 24.2611C42.913 24.0822 43.1151 23.8819 43.296 23.6631C44.0545 22.8175 45.2045 21.5402 47.7057 22.2479C48.5806 22.6371 49.1168 23.1572 49.3567 23.8967C49.5406 23.769 49.7016 23.6111 49.8329 23.4296C49.462 22.7478 48.8887 22.1988 48.1925 21.8587C47.4944 21.5411 46.7366 21.377 45.97 21.3775L45.963 21.3916ZM45.6631 9.81126C45.6185 9.80762 45.5737 9.80762 45.5291 9.81126C45.0246 9.89618 44.7635 10.1898 44.7353 10.4234C44.7267 10.5103 44.7371 10.598 44.7657 10.6805C44.7944 10.763 44.8406 10.8382 44.9011 10.901C44.9817 10.9791 45.0785 11.0384 45.1847 11.0745C45.2908 11.1106 45.4036 11.1226 45.515 11.1098C45.7154 11.0968 45.9068 11.0217 46.0629 10.895C46.219 10.7682 46.332 10.596 46.3863 10.4021C46.4205 10.2964 46.443 10.1873 46.4533 10.0766C46.2227 9.91329 45.9518 9.8166 45.6702 9.79711L45.6631 9.81126ZM18.249 5.51948C17.9844 5.93134 17.8279 6.40355 17.7939 6.89229C17.741 8.40308 18.5735 8.91611 19.0744 9.08594C19.8682 9.35838 20.8383 9.11778 21.2511 8.54814C21.5827 8.0811 21.4839 7.4867 20.9688 6.81445C20.4538 6.1422 19.466 5.68224 18.249 5.51948Z" fill="white"/>
</g>
<defs>
<clipPath id="clip0">
<rect width="210" height="60" fill="white"/>
</clipPath>
</defs>
</svg>
