<svg width="4749" height="1283" viewBox="0 0 4749 1283" fill="none" xmlns="http://www.w3.org/2000/svg">
<g clip-path="url(#clip0)">
<path d="M698.41 187.381L908.964 92.3423L966.582 138.288C966.582 138.288 990.632 157.032 997.4 187.381C1004.17 217.73 1029.21 240.064 1029.21 240.064C1029.21 240.064 1067.16 279.429 1088.09 382.19C1109.02 484.952 1074.32 474.315 1080.7 508.073C1097.68 597.954 1188.56 688.625 1186.9 707.727C1185.25 726.829 1133.39 761.458 1133.39 761.458L1120.21 898.821C1120.21 898.821 1129.12 976.714 1120.21 996.668C1111.31 1016.62 1099.01 1014.34 1053.17 1010.68C1007.33 1007.02 911.348 968.443 911.348 968.443L917.302 1199.38L931.092 1228L1000.71 1213.49L1026.5 1224.13V1252.17L1000.71 1262.7L931.092 1233.8L851.89 1262.7L764.576 1273.28L702.235 1256.86L652.913 1217.35L616.864 1057.82L642.267 943.981L593.343 720.061L559.473 595.87L698.41 187.381Z" fill="white"/>
<path d="M625.54 1069.65C617.703 1114.82 612.884 1154.93 615.729 1181.75C617.819 1201.09 630.766 1208.63 642.087 1207.53C653.408 1206.43 663.626 1196.73 661.884 1177.4C658.887 1139.03 646.398 1102 625.54 1069.65Z" fill="white"/>
<path d="M509.311 879.581C510.53 909.537 524.812 945.414 567.368 983.498C585.826 999.743 602.825 1017.58 618.167 1036.79C622.638 1013.57 627.63 989.303 632.565 965.443C636.861 944.776 641.158 924.166 645.047 904.138C650.273 877.549 655.323 852.411 659.968 829.073C663.8 809.683 667.457 791.396 670.825 774.386C649.607 768.352 629.849 758.039 612.768 744.082C594.696 729.265 580.008 710.749 569.693 689.779C559.378 668.81 553.676 645.874 552.969 622.516C549.544 560.63 586.468 536.422 622.173 534.448C631.818 534.303 641.411 535.875 650.505 539.092C657.53 504.26 675.237 488.817 694.86 471.575C721.218 448.353 751.117 422.113 763.89 335.67C770.624 283.886 814.051 268.443 852.368 254.8C890.685 241.158 922.559 229.895 923.778 189.547C925.868 115.528 866.824 71.0584 863.457 68.5621C787.983 27.2274 698.402 8.592 600.808 14.2233C514.884 19.2159 434.824 62.4664 400.106 106.297C426.58 111 447.771 121.508 460.485 137.879C474.999 156.689 477.322 175.846 466.813 190.534C454.854 207.37 427.741 214.511 405.215 206.847C381.122 198.662 367.885 176.891 368.93 147.11C369.446 136.574 372.239 126.275 377.116 116.921C335.431 114.773 283.006 125.513 231.974 148.793C101.985 208.183 -21.2694 348.384 22.3312 564.23C60.8228 754.648 236.618 865.764 496.422 866.693C497.319 854.942 499.92 843.384 504.144 832.382C513.607 807.129 537.41 790.7 559.53 794.241C576.947 797.027 588.036 811.657 588.965 833.485C590.068 857.694 569.922 877.549 543.216 878.768C532.011 879.29 520.69 879.523 509.311 879.581Z" fill="white"/>
<path d="M1127.67 879.058C1140.04 882.425 1150.37 883.296 1156 879.813C1157.22 879.116 1160.82 876.91 1160.18 867.68C1159.55 858.449 1155.71 853.63 1149.97 853.224C1142.83 852.585 1132.72 860.597 1127.67 879.058Z" fill="white"/>
<path d="M1063.46 851.076C1080.09 860.384 1097.4 868.418 1115.25 875.111C1117.67 865.137 1122.72 855.996 1129.88 848.638C1125.29 846.2 1121.42 842.59 1118.68 838.175C1115.94 833.759 1114.41 828.696 1114.26 823.5C1099.15 835.703 1081.93 845.048 1063.46 851.076Z" fill="white"/>
<path d="M553.724 806.897C540.371 806.897 523.708 817.405 516.335 836.969C512.756 846.507 510.491 856.487 509.601 866.635C520.515 866.635 531.488 866.17 542.635 865.706C562.026 864.835 576.656 850.96 575.901 834.066C575.263 818.508 568.702 808.987 557.497 807.187C556.248 806.999 554.987 806.902 553.724 806.897Z" fill="white"/>
<path d="M1128.89 811.947C1127.21 817.024 1126.93 822.458 1128.08 827.68C1129.66 831.981 1132.78 835.546 1136.83 837.689C1140.88 839.833 1145.58 840.403 1150.02 839.291C1151.81 839.079 1153.54 838.508 1155.1 837.611C1156.66 836.715 1158.03 835.512 1159.11 834.075C1160.2 832.638 1160.98 830.996 1161.41 829.249C1161.85 827.501 1161.92 825.684 1161.64 823.907C1161 817.346 1158.85 808.987 1152.17 806.49C1146.25 804.11 1138.18 806.142 1128.89 811.947Z" fill="white"/>
<path d="M679.127 648.176C675.862 648.248 672.675 649.19 669.896 650.905C667.383 652.267 665.301 654.304 663.886 656.787C662.47 659.269 661.777 662.098 661.884 664.954C662.987 680.803 671.637 687.421 686.152 692.007C687.835 681.441 689.054 672.443 689.751 665.244C690.274 659.845 689.751 652.821 685.048 649.744C683.263 648.67 681.209 648.126 679.127 648.176Z" fill="white"/>
<path d="M661.013 557.089C660.215 568.183 660.215 579.319 661.013 590.412C661.767 604.229 670.418 608.699 677.791 608.235C679.982 608.198 682.141 607.706 684.132 606.792C686.123 605.879 687.903 604.562 689.36 602.925C690.817 601.288 691.918 599.368 692.595 597.284C693.272 595.2 693.509 592.999 693.292 590.819C692.305 577.873 677.849 565.333 661.013 557.089Z" fill="white"/>
<path d="M1049.06 529.746C1037.08 532.907 1024.76 534.641 1012.37 534.912H1011.33C992.343 536.073 978.99 540.427 972.719 547.568C971.05 549.509 969.801 551.775 969.051 554.223C968.302 556.672 968.068 559.249 968.365 561.792C969.294 575.376 992.343 584.084 1012.49 582.981C1026.48 582.169 1043.37 572.415 1046.16 558.076C1048.19 548.771 1049.16 539.268 1049.06 529.746Z" fill="white"/>
<path d="M986.246 457.119C948.509 457.119 913.791 473.723 897.071 490.268C887.666 499.499 883.892 508.498 886.621 514.825C887.338 517.04 888.553 519.06 890.174 520.731C891.794 522.402 893.777 523.678 895.968 524.462C899.536 524.934 903.162 524.661 906.619 523.662C910.077 522.663 913.29 520.959 916.056 518.657C920.774 514.828 925.11 510.551 929.002 505.885C945.316 487.772 969.99 460.429 1023.58 475.639C1042.39 483.882 1053.88 495.029 1058.99 510.878C1062.93 508.147 1066.39 504.771 1069.21 500.892C1061.28 486.29 1048.98 474.536 1034.03 467.279C1019.01 460.522 1002.72 457.058 986.246 457.119Z" fill="white"/>
<path d="M391.688 118.024C386.014 126.843 382.641 136.942 381.876 147.4C380.773 179.678 398.596 190.65 409.337 194.308C426.405 200.113 447.364 194.946 456.072 182.697C463.155 172.712 461.065 159.882 450.267 145.6C439.468 131.319 417.755 121.508 391.688 118.024Z" fill="white"/>
<path d="M979.744 209.518C978.798 209.429 977.846 209.429 976.9 209.518C966.101 211.317 960.469 217.587 959.889 222.58C959.726 224.45 959.963 226.333 960.583 228.105C961.204 229.877 962.194 231.496 963.488 232.856C965.2 234.517 967.261 235.775 969.521 236.539C971.781 237.302 974.183 237.551 976.551 237.268C980.852 236.992 984.962 235.394 988.319 232.692C991.676 229.989 994.115 226.316 995.303 222.174C996.049 219.914 996.536 217.577 996.755 215.207C991.714 211.786 985.829 209.818 979.744 209.518Z" fill="white"/>
<path d="M778.752 1283C768.903 1283.04 759.076 1282.05 749.434 1280.04C709.443 1271.15 673.099 1250.32 645.222 1220.3H643.422C625.192 1222.1 605.627 1209.85 602.782 1182.91C599.473 1152.03 605.685 1105.47 615.091 1053.98C598.598 1031.7 579.757 1011.26 558.892 993.019C512.446 951.684 497.293 912.381 496.19 879.348C283.064 877.2 55.7141 794.996 9.55898 566.61C-35.6091 343.449 91.9995 198.197 226.691 136.776C282.832 111.058 339.728 100.202 384.78 104.149C422.11 50.1589 518.949 5.45704 600.17 0.986854C734.455 -6.79242 853.355 30.3043 944.214 108.387C985.609 143.626 1009.06 179.736 1010.28 208.821C1034.67 227.341 1058.7 264.263 1074.73 302.231C1088.31 336.576 1096.02 372.961 1097.54 409.863V421.126C1097.54 448.876 1097.89 477.497 1083.84 502.402C1090.07 528.836 1100.46 554.113 1114.61 577.292L1119.66 586.465C1135.94 617.283 1155.16 646.447 1177.08 673.546C1190.14 689.975 1197.34 699.032 1193.86 713.778C1190.14 729.685 1178.12 737.348 1157.28 745.823C1155.83 746.404 1151.48 748.088 1145.67 749.945C1143.54 765.302 1139.76 780.386 1134.41 794.938C1141.56 792.138 1149.46 791.912 1156.76 794.299C1163.96 796.969 1172.9 804.11 1174.64 822.745C1175.26 827.249 1174.69 831.837 1172.99 836.053C1171.29 840.269 1168.52 843.967 1164.95 846.78C1170.1 852.299 1173.09 859.494 1173.36 867.041C1174.29 881.206 1168.25 887.999 1162.91 891.25C1154.15 896.591 1140.56 895.836 1125.58 892.004C1125.16 908.364 1126.56 924.721 1129.76 940.77L1131.16 949.885C1135.45 978.912 1131.51 999.521 1119.55 1011.6C1109.39 1021.7 1094.12 1025.24 1074.2 1022.1C1021.21 1013.39 969.176 999.569 918.843 980.827L915.302 979.608C916.173 999.463 916.579 1022.34 916.927 1048C917.682 1104.66 918.437 1163.29 927.087 1204.74C929.044 1211.69 932.294 1218.21 936.667 1223.96C972.662 1209.39 1001.23 1199.75 1019.11 1208.52C1022.85 1210.48 1026.12 1213.24 1028.69 1216.6C1031.26 1219.96 1033.06 1223.84 1033.97 1227.96C1039.37 1247.76 1031.65 1262.8 1013.36 1267.5C991.298 1273.3 955.593 1262.8 933.009 1239.58L924.533 1243.06C880.236 1261.17 827.404 1283 778.752 1283ZM658.517 1215.31C684.181 1241.17 716.686 1259.17 752.221 1267.21C804.123 1278.41 867.928 1252.12 919.192 1230.93L924.01 1228.95C919.521 1222.5 916.146 1215.33 914.025 1207.76C905.026 1164.45 904.271 1105.24 903.458 1047.94C903.458 1023.38 902.82 997.663 901.659 974.674C874.314 964.108 855.736 945.646 852.775 926.082C851.826 920.041 852.603 913.855 855.017 908.237C857.431 902.619 861.383 897.797 866.418 894.326C875.707 887.592 883.835 886.025 891.383 889.682C905.723 896.881 911.528 923.005 914.199 965.153L922.791 968.113C972.399 986.545 1023.67 1000.15 1075.89 1008.75C1091.45 1011.13 1102.94 1008.75 1110.02 1001.84C1119.02 992.903 1121.64 975.893 1118.09 951.394L1116.7 942.337C1113.07 924.37 1111.72 906.014 1112.69 887.708C1087.81 878.454 1063.9 866.788 1041.28 852.876C1040.73 852.235 1040.31 851.485 1040.05 850.673C1039.8 849.861 1039.71 849.006 1039.81 848.16C1039.9 847.315 1040.17 846.497 1040.59 845.76C1041.01 845.023 1041.59 844.382 1042.27 843.877C1044.19 842.368 1088.72 829.654 1106.71 812.238C1110.13 808.983 1113.78 805.976 1117.63 803.239C1118.73 799.582 1120.07 795.75 1121.4 791.628C1125.95 779.372 1129.42 766.747 1131.8 753.893C1115.42 757.841 1095.68 759.698 1086.63 749.829C1082.74 745.591 1079.54 737.58 1086.63 723.937C1090.55 717.035 1096.6 711.583 1103.87 708.392C1111.14 705.202 1119.24 704.444 1126.98 706.231C1132.89 707.537 1138.14 710.92 1141.77 715.767C1145.41 720.614 1147.18 726.602 1146.77 732.645C1146.77 733.69 1146.77 734.735 1146.77 735.78L1152.23 733.69C1174.23 724.75 1179.05 719.177 1181.26 710.817C1183.47 702.457 1179.87 697.929 1166.98 681.79C1144.58 654.133 1124.92 624.366 1108.28 592.909L1103.29 583.852C1090.47 562.564 1080.44 539.716 1073.45 515.87C1069.99 519.283 1066.08 522.212 1061.84 524.579C1062.63 536.722 1061.71 548.916 1059.11 560.805C1055.04 581.53 1032.69 595.057 1013.36 596.218C986.828 597.785 956.987 585.478 955.303 562.895C954.874 558.618 955.328 554.299 956.637 550.205C957.945 546.11 960.079 542.328 962.908 539.092C971.617 529.165 987.641 523.418 1010.51 522.082H1011.62C1023.67 521.916 1035.64 520.119 1047.21 516.741C1043.61 503.505 1034.61 494.797 1019.17 487.714C974.229 475.058 955.303 496.016 938.699 514.477C934.223 519.877 929.182 524.781 923.662 529.107C917.392 533.577 904.968 540.718 892.486 537.06C888.384 535.799 884.634 533.6 881.53 530.637C878.426 527.675 876.055 524.03 874.604 519.992C869.553 508.381 874.256 494.39 887.899 480.98C914.199 454.971 980.79 428.731 1039.37 455.146C1054.41 462.357 1067.21 473.512 1076.41 487.424C1084.6 467.569 1084.48 444.986 1084.3 421.242C1084.3 417.469 1084.3 413.695 1084.3 409.98C1082.79 374.794 1075.49 340.098 1062.71 307.281C1047.73 271.752 1027.41 241.506 1008.66 224.438C1008.66 225.135 1008.25 225.831 1007.96 226.586C1005.95 233.193 1001.97 239.029 996.558 243.314C991.142 247.599 984.547 250.128 977.655 250.562C973.394 250.938 969.103 250.369 965.089 248.893C961.074 247.418 957.435 245.074 954.432 242.028C951.842 239.257 949.875 235.963 948.664 232.368C947.452 228.773 947.024 224.961 947.407 221.187C948.684 211.202 957.741 199.823 975.216 196.862C982.37 195.876 989.656 197.007 996.175 200.113C991.53 179.156 974.171 150.825 936.028 118.315C927.145 110.651 917.914 103.395 908.451 96.5443C927.95 123.537 938.139 156.139 937.479 189.431C936.028 238.719 896.085 252.943 857.419 266.701C818.754 280.46 783.223 293.058 777.475 337.005C763.251 428.789 730.043 457.816 703.395 481.038C684.701 497.467 668.561 511.4 662.755 543.446C684.584 553.083 704.846 569.629 706.007 590.238C706.258 594.107 705.731 597.988 704.458 601.65C703.184 605.313 701.19 608.683 698.592 611.562C695.995 614.44 692.847 616.77 689.334 618.412C685.821 620.054 682.015 620.976 678.14 621.123C664.497 621.82 649.112 612.763 647.602 590.935C646.719 577.857 646.952 564.728 648.299 551.69C640.125 548.676 631.465 547.2 622.754 547.336C604.466 548.323 562.375 557.612 565.917 621.587C566.807 653.312 577.718 683.94 597.085 709.084C616.452 734.227 643.281 752.596 673.728 761.556C677.85 740.25 681.449 721.209 684.236 705.069C666.819 699.961 650.795 690.672 649.054 665.883C648.914 660.729 650.12 655.627 652.554 651.082C654.987 646.536 658.563 642.703 662.929 639.96C667.295 637.217 672.301 635.66 677.452 635.441C682.604 635.223 687.723 636.351 692.306 638.713C697.009 641.674 704.672 649.279 702.988 666.521C702.234 674.359 700.956 683.938 699.099 695.549L702.814 696.361C724.179 701.006 748.389 706.289 750.014 735.142C750.885 751.571 744.209 772.354 705.659 778.044C698.453 778.96 691.15 778.764 684.004 777.463C680.695 794.183 677.095 812.296 673.205 831.86C668.561 855.082 663.51 880.335 658.285 906.924C654.395 926.953 650.099 947.562 645.803 968.288C639.997 996.212 634.191 1024.43 629.14 1051.31C655.705 1087.99 671.617 1131.31 675.121 1176.47C676.689 1195.63 669.025 1208.63 658.517 1215.31ZM945.782 1234.23C964.824 1251.36 992.633 1259.43 1009.64 1254.84C1020.79 1251.82 1024.56 1244.1 1021.26 1231.27C1020.83 1228.94 1019.89 1226.74 1018.49 1224.83C1017.09 1222.92 1015.28 1221.35 1013.19 1220.24C1000.65 1214.15 974.984 1222.57 945.782 1234.23ZM625.541 1069.65C617.703 1114.82 612.884 1154.93 615.729 1181.75C617.819 1201.09 630.766 1208.63 642.087 1207.53C653.408 1206.43 663.626 1196.73 661.884 1177.4C658.887 1139.03 646.398 1102 625.541 1069.65ZM509.427 879.581C510.646 909.537 524.928 945.414 567.484 983.498C585.943 999.743 602.941 1017.58 618.284 1036.79C622.754 1013.57 627.747 989.303 632.682 965.443C636.978 944.776 641.274 924.166 645.164 904.138C650.389 877.549 655.44 852.411 660.084 829.073C663.916 809.683 667.574 791.396 670.941 774.386C649.724 768.352 629.966 758.039 612.884 744.082C594.791 729.276 580.081 710.765 569.746 689.795C559.411 668.825 553.69 645.883 552.97 622.516C549.544 560.63 586.469 536.422 622.173 534.448C631.818 534.303 641.412 535.875 650.505 539.092C657.53 504.26 675.237 488.817 694.86 471.575C721.218 448.353 751.117 422.113 763.89 335.67C770.625 283.886 814.051 268.443 852.368 254.8C890.686 241.158 922.559 229.895 923.778 189.547C925.868 115.528 866.824 71.0584 863.457 68.5621C787.983 27.2274 698.402 8.59196 600.809 14.2232C514.885 19.2159 434.824 62.4664 400.107 106.297C426.58 111 447.771 121.508 460.485 137.879C475 156.689 477.322 175.846 466.814 190.534C454.854 207.37 427.741 214.511 405.215 206.847C381.122 198.662 367.885 176.891 368.93 147.11C369.447 136.574 372.239 126.275 377.116 116.921C335.431 114.773 283.006 125.513 231.974 148.793C101.985 208.183 -21.2691 348.384 22.3315 564.23C60.8231 754.648 236.619 865.764 496.423 866.693C497.319 854.942 499.92 843.384 504.144 832.382C513.607 807.129 537.411 790.7 559.53 794.241C576.947 797.028 588.036 811.657 588.965 833.486C590.068 857.694 569.922 877.549 543.216 878.768C532.011 879.29 520.69 879.523 509.311 879.581H509.427ZM883.371 900.887C880.001 901.283 876.826 902.678 874.256 904.892C871.136 906.945 868.68 909.858 867.186 913.28C865.691 916.702 865.223 920.484 865.838 924.166C867.405 934.674 877.449 949.71 900.672 960.16C898.465 929.217 894.169 905.763 885.519 901.409C884.815 901.061 884.04 900.883 883.255 900.887H883.371ZM1127.79 879.058C1140.16 882.425 1150.49 883.296 1156.12 879.813C1157.34 879.116 1160.94 876.91 1160.3 867.68C1159.66 858.449 1155.83 853.63 1150.08 853.224C1142.83 852.585 1132.72 860.597 1127.67 879.058H1127.79ZM1063.58 851.076C1080.21 860.384 1097.52 868.418 1115.37 875.111C1117.79 865.137 1122.84 855.996 1130 848.638C1125.4 846.2 1121.54 842.59 1118.8 838.174C1116.05 833.759 1114.53 828.696 1114.38 823.5C1099.23 835.715 1081.97 845.061 1063.46 851.076H1063.58ZM553.841 806.897C540.488 806.897 523.825 817.405 516.452 836.969C512.873 846.507 510.608 856.487 509.718 866.635C520.632 866.635 531.605 866.17 542.752 865.706C562.143 864.835 576.773 850.96 576.018 834.066C575.38 818.508 568.819 808.987 557.614 807.187C556.327 806.994 555.027 806.897 553.725 806.897H553.841ZM1129.01 811.773C1127.33 816.849 1127.05 822.284 1128.2 827.506C1129.78 831.807 1132.89 835.372 1136.94 837.515C1140.99 839.659 1145.7 840.229 1150.14 839.117C1151.93 838.905 1153.66 838.334 1155.22 837.437C1156.78 836.541 1158.14 835.338 1159.23 833.901C1160.31 832.464 1161.1 830.822 1161.53 829.075C1161.96 827.327 1162.04 825.51 1161.75 823.732C1161.11 817.172 1158.97 808.812 1152.29 806.316C1146.25 804.11 1138.18 806.142 1128.89 811.947L1129.01 811.773ZM686.384 764.401C692.132 765.439 698.002 765.615 703.801 764.923C738.635 759.757 737.358 741.702 737.01 735.896C735.965 717.899 722.321 714.01 700.086 709.133L697.009 708.495C693.932 724.285 690.39 743.037 686.268 764.401H686.384ZM1118.91 717.958C1114.76 717.879 1110.66 718.915 1107.05 720.957C1103.43 722.999 1100.43 725.973 1098.35 729.568C1097.08 732.123 1094.23 738.277 1096.44 740.715C1100.04 744.721 1114.84 744.662 1133.48 739.67C1133.48 737.232 1133.77 734.677 1133.83 732.123C1134.16 729.035 1133.33 725.934 1131.49 723.43C1129.65 720.927 1126.95 719.202 1123.9 718.596C1122.22 718.222 1120.51 718.066 1118.79 718.132L1118.91 717.958ZM679.243 648.292C675.978 648.364 672.791 649.306 670.012 651.021C667.5 652.383 665.418 654.42 664.002 656.903C662.586 659.385 661.893 662.214 662 665.07C663.103 680.919 671.754 687.537 686.268 692.123C687.952 681.557 689.171 672.559 689.868 665.36C690.39 659.961 689.868 652.937 685.165 649.86C683.359 648.723 681.261 648.138 679.127 648.176L679.243 648.292ZM661.13 557.205C660.331 568.299 660.331 579.435 661.13 590.528C661.884 604.345 670.535 608.815 677.908 608.351C680.099 608.314 682.258 607.823 684.249 606.909C686.24 605.995 688.02 604.678 689.477 603.041C690.934 601.405 692.035 599.484 692.712 597.4C693.389 595.316 693.626 593.115 693.409 590.935C692.306 577.872 677.85 565.333 661.013 557.089L661.13 557.205ZM1049.18 529.862C1037.2 533.023 1024.88 534.757 1012.49 535.028H1011.44C992.459 536.189 979.106 540.544 972.836 547.684C971.167 549.625 969.918 551.892 969.168 554.34C968.419 556.788 968.185 559.365 968.482 561.908C969.411 575.492 992.459 584.2 1012.6 583.097C1026.6 582.285 1043.49 572.532 1046.28 558.192C1048.27 548.845 1049.21 539.302 1049.06 529.746L1049.18 529.862ZM986.363 457.236C948.626 457.236 913.909 473.839 897.188 490.385C887.783 499.615 884.009 508.614 886.738 514.942C887.455 517.156 888.67 519.176 890.291 520.847C891.911 522.518 893.894 523.795 896.085 524.579C899.653 525.05 903.279 524.777 906.737 523.778C910.194 522.779 913.406 521.075 916.173 518.773C920.891 514.944 925.227 510.667 929.119 506.001C945.433 487.888 970.107 460.545 1023.69 475.755C1042.5 483.999 1054 495.145 1059.11 510.994C1063.05 508.263 1066.51 504.888 1069.33 501.009C1061.4 486.406 1049.09 474.652 1034.14 467.395C1019.1 460.582 1002.76 457.078 986.247 457.12L986.363 457.236ZM979.861 209.634C978.915 209.546 977.962 209.546 977.016 209.634C966.218 211.434 960.586 217.704 960.005 222.696C959.843 224.566 960.079 226.45 960.7 228.221C961.32 229.993 962.311 231.612 963.605 232.972C965.317 234.633 967.378 235.891 969.638 236.655C971.897 237.418 974.299 237.667 976.668 237.384C980.968 237.108 985.078 235.51 988.435 232.808C991.792 230.106 994.232 226.432 995.42 222.29C996.166 220.03 996.653 217.693 996.872 215.323C991.81 211.841 985.881 209.831 979.745 209.518L979.861 209.634ZM391.688 118.024C386.015 126.843 382.642 136.942 381.877 147.4C380.774 179.678 398.597 190.65 409.338 194.308C426.406 200.113 447.365 194.946 456.073 182.697C463.156 172.712 461.066 159.882 450.268 145.6C439.469 131.319 417.756 121.508 391.688 118.024Z" fill="#1E9EAD"/>
<path d="M1457.81 704.75V683.415C1469.12 683.06 1480.38 681.718 1491.46 679.405C1493.38 678.744 1495.04 677.501 1496.21 675.849C1497.95 672.95 1498.98 669.686 1499.23 666.316C1500.39 656.784 1501.37 635.902 1502.17 603.672C1502.73 588.086 1502.98 561.278 1502.93 523.248C1502.93 489.202 1502.68 459.065 1502.17 432.837C1502.6 417.133 1501.51 401.424 1498.93 385.929C1498.45 383.871 1497.38 382.001 1495.84 380.558C1493.42 378.887 1490.61 377.871 1487.69 377.607C1477.7 375.917 1467.62 374.83 1457.51 374.354V353.018C1491.99 354.002 1515.68 354.531 1528.73 354.531C1545.93 354.531 1563.29 354.002 1580.64 353.018L1602.75 402.801L1620.25 440.63L1700 605.639C1717.05 572.551 1729.85 546.903 1738.4 528.695L1771.45 459.014C1789.86 420.126 1801.1 396.193 1805.17 387.215C1809.32 378.288 1813.92 366.864 1819.13 353.17C1841.01 354.304 1855.04 354.91 1861.23 354.91L1936 353.17V374.505H1932.45C1915.55 374.505 1904.92 376.321 1900.39 380.406C1897.73 383.711 1895.76 387.515 1894.6 391.595C1893.43 395.676 1893.09 399.949 1893.6 404.163C1893.6 418.084 1893.6 428.676 1893.6 435.863L1892.32 506.527V594.82C1892.32 616.206 1892.32 628.815 1892.32 632.649C1893.67 653.984 1894.88 666.997 1895.86 671.915C1896.25 673.991 1897.19 675.925 1898.58 677.514C1900.19 679.108 1902.2 680.255 1904.39 680.842C1914.86 682.383 1925.42 683.343 1936 683.718V704.75L1855.95 703.237L1777.71 704.75V683.415C1798.48 682.709 1810.33 681.498 1813.25 679.783C1816.82 676.78 1819.07 672.485 1819.51 667.829C1821.37 647.105 1822 626.287 1821.39 605.488V422.396L1763.22 540.346L1735.69 598.83C1728.29 614.264 1717.93 636.659 1704.6 666.014C1696.38 683.718 1689.96 698.092 1685.29 708.987H1668.23C1662.2 694.915 1653.5 675.622 1642.13 651.109C1622.76 609.296 1608.05 578.049 1597.99 557.369L1532.05 422.321V545.869C1532.05 566.448 1532.35 590.961 1532.96 619.409C1533.48 647.856 1534.16 663.895 1534.84 667.678C1535.13 670.63 1536.19 673.452 1537.94 675.849C1540.04 677.918 1542.64 679.404 1545.48 680.162C1555.61 682.108 1565.88 683.196 1576.19 683.415V704.75C1557.48 703.792 1538.34 703.288 1518.77 703.237C1493.22 703.136 1472.9 703.641 1457.81 704.75Z" fill="#4D4D4F"/>
<path d="M1980.21 532.856C1979.61 505.475 1984.32 478.237 1994.09 452.66C2002.68 431.326 2015.67 412.055 2032.21 396.109C2048.75 380.163 2068.46 367.902 2090.06 360.131C2117.37 351.034 2146 346.535 2174.79 346.815C2202.97 346.413 2231.02 350.734 2257.78 359.601C2291.5 371.73 2320.07 395.064 2338.73 425.725C2346.26 439.042 2351.87 453.356 2355.41 468.245C2359.33 484.979 2361.23 502.125 2361.07 519.314C2361.34 549.349 2355.8 579.152 2344.77 607.076C2336.78 627.149 2324.79 645.376 2309.54 660.642C2294.44 675.969 2276.5 688.178 2256.72 696.579C2227.22 708.256 2195.71 713.989 2164 713.451C2130.52 714.331 2097.31 707.308 2067.05 692.948C2040.34 679.556 2018.22 658.483 2003.52 632.422C1988.13 605.79 1980.21 572.652 1980.21 532.856ZM2057.39 517.725C2056.34 550.801 2061.8 583.76 2073.46 614.718C2084.17 640.24 2097.88 658.297 2114.58 668.889C2132.41 679.722 2152.96 685.209 2173.8 684.701C2193.68 685.011 2213.24 679.772 2230.32 669.57C2248.63 657.343 2262.39 639.388 2269.47 618.501C2279.56 590.561 2284.35 560.974 2283.58 531.268C2283.81 509.572 2281.27 487.936 2276.04 466.883C2271.67 449.155 2264.24 432.331 2254.08 417.176C2245.39 404.296 2233.85 393.602 2220.36 385.93C2204.36 378.02 2186.64 374.298 2168.82 375.111C2146.8 374.444 2125.09 380.428 2106.5 392.285C2088.76 404.629 2075.62 422.543 2069.16 443.202C2061.14 467.316 2057.24 492.612 2057.61 518.028L2057.39 517.725Z" fill="#4D4D4F"/>
<path d="M2413.96 704.748V692.719C2415.32 691.886 2417.66 690.525 2420.98 688.709C2427.05 685.352 2432.92 681.639 2438.55 677.587C2440.37 655.193 2441.27 618.751 2441.27 568.262V527.029C2441.27 504.886 2440.87 472.429 2440.06 429.658C2440.27 414.461 2439.18 399.275 2436.82 384.263C2436.41 382.963 2435.72 381.773 2434.78 380.783C2433.01 379.215 2430.85 378.168 2428.52 377.756C2425.65 377.076 2415.17 375.562 2396.91 373.217V352.865L2487.97 354.378C2498.69 354.378 2518.81 353.949 2548.33 353.092C2569.66 352.537 2586.78 352.285 2599.71 352.336C2623.52 351.879 2647.31 353.678 2670.78 357.707C2687.17 360.812 2702.92 366.697 2717.34 375.108C2729.99 382.586 2741.29 392.152 2750.76 403.404C2759.64 413.851 2766.66 425.751 2771.51 438.585C2779.55 460.817 2783.53 484.316 2783.28 507.963C2783.78 537.51 2777.78 566.806 2765.7 593.758C2754.55 618.174 2738.05 639.745 2717.41 656.857C2697.85 673.32 2675.23 685.739 2650.87 693.4C2622.77 701.492 2593.63 705.317 2564.4 704.748L2489.93 703.235L2413.96 704.748ZM2514.3 674.107C2529.06 676.379 2543.97 677.542 2558.89 677.587C2578.86 677.865 2598.77 675.499 2618.12 670.551C2630.01 667.443 2641.29 662.326 2651.47 655.42C2662.33 647.241 2671.63 637.169 2678.93 625.686C2688.26 611.333 2695.17 595.536 2699.38 578.93C2704.44 559.825 2706.98 540.138 2706.92 520.371C2706.88 501.631 2704.34 482.981 2699.38 464.914C2694.85 447.755 2686.72 431.763 2675.54 418.006C2664.52 404.616 2650.03 394.536 2633.66 388.878C2616.76 382.826 2591.19 379.799 2556.93 379.799C2542.67 379.889 2528.42 380.977 2514.3 383.053C2512.64 406.859 2511.79 451.699 2511.74 517.572V575.45C2511.74 625.182 2512.59 658.017 2514.3 673.956V674.107Z" fill="#4D4D4F"/>
<path d="M3011.5 519.844L3043.11 468.549C3048.45 459.318 3064.34 431.224 3090.8 384.266C3100 368.176 3105.76 357.71 3108.07 352.868H3147.46V364.292C3127.34 391.58 3105.51 423.684 3081.97 460.605C3058.43 497.526 3043.97 521.257 3038.59 531.799C3035.29 537.734 3032.76 544.064 3031.04 550.637C3029.84 556.84 3029.33 563.159 3029.53 569.476V611.995C3029.29 627.523 3029.84 643.054 3031.19 658.525C3031.33 664.57 3032.64 670.531 3035.04 676.077C3036.98 678.397 3039.63 679.996 3042.59 680.617C3053.55 682.246 3064.63 682.929 3075.71 682.66V704.752C3043.72 703.793 3014.87 703.289 2989.17 703.238C2963.47 703.188 2938.07 703.693 2912.97 704.752V682.66C2924.14 682.598 2935.31 681.84 2946.39 680.39C2949 679.908 2951.39 678.579 2953.18 676.607C2955.1 671.803 2956 666.649 2955.82 661.476C2956.78 642.359 2957.28 626.093 2957.33 612.676V564.785C2955.62 556.331 2952.4 548.256 2947.82 540.953C2932.03 512.102 2915.23 483.68 2897.42 455.687C2885.4 436.311 2871.8 417.965 2856.76 400.835C2851.56 394.629 2845.57 389.135 2838.95 384.493C2831.7 383.032 2824.3 382.524 2816.92 382.98V364.292L2869.73 353.776C2878.79 351.758 2888.07 349.489 2897.57 346.967C2905.7 351.085 2913.29 356.165 2920.21 362.098C2927.43 369.804 2933.9 378.191 2939.52 387.141C2952.89 407.243 2965.04 428.138 2975.89 449.71C2995.66 487.741 3007.53 511.119 3011.5 519.844Z" fill="#4D4D4F"/>
<path d="M3288.55 704.751V691.964C3294.84 689.074 3300.93 685.789 3306.81 682.129C3309.37 680.916 3311.67 679.221 3313.6 677.136C3314.24 676.314 3314.67 675.356 3314.88 674.336C3315.74 670.2 3316.47 655.245 3317.07 629.471C3317.67 603.697 3318.02 572.804 3318.13 536.791C3318.13 483.83 3317.95 451.045 3317.6 438.436C3317.93 420.347 3316.85 402.259 3314.35 384.341C3314.05 383.383 3313.56 382.495 3312.91 381.728C3312.27 380.962 3311.47 380.332 3310.58 379.877C3306.73 377.305 3293.98 375.64 3272.25 374.808V352.716C3293.48 353.674 3317.7 354.179 3344.91 354.229C3375.39 354.229 3404.24 353.725 3431.45 352.716V374.808C3419.74 374.532 3408.06 376.063 3396.82 379.347C3394.92 380.429 3393.49 382.183 3392.82 384.265C3391.28 394.534 3390.5 404.901 3390.48 415.285C3389.73 433.745 3389.35 457.048 3389.35 485.192C3389.35 488.219 3389.35 512.454 3389.35 557.899C3389.35 581.857 3389.47 605.614 3389.73 629.169C3389.73 652.698 3389.73 666.997 3389.73 672.066C3412.81 673.025 3428.53 673.529 3436.88 673.58C3459.12 673.804 3481.34 672.286 3503.35 669.04C3507.6 668.764 3511.75 667.659 3515.57 665.787C3517.7 663.055 3519.17 659.871 3519.87 656.481C3523.19 643.72 3526.46 629.118 3529.68 612.675H3550.43C3549.98 617.366 3549.67 620.241 3549.67 620.998L3543.41 671.764C3542.13 687.728 3541.38 697.26 3541.15 700.438C3536.41 701.771 3531.56 702.707 3526.66 703.237C3516.6 704.095 3500.81 704.498 3479.28 704.448C3476.26 704.448 3456.6 704.044 3420.28 703.237C3392.77 702.582 3373.55 702.229 3362.64 702.178C3346.64 702.279 3321.95 703.137 3288.55 704.751Z" fill="#4D4D4F"/>
<path d="M3751.43 352.867V374.959C3741.34 374.972 3731.26 375.604 3721.25 376.851C3718.83 377.262 3716.53 378.219 3714.54 379.65C3713.21 380.689 3712.23 382.117 3711.75 383.736C3710.13 389.033 3709.29 394.538 3709.26 400.078C3708.88 404.466 3708.65 412.712 3708.5 424.742C3707.85 465.95 3707.49 488.168 3707.44 491.396V592.701L3708.2 638.777C3707.63 650.063 3708.5 661.375 3710.76 672.444C3711.23 674.561 3712.4 676.456 3714.08 677.816C3716.36 679.35 3718.93 680.381 3721.63 680.842C3731.49 682.051 3741.42 682.607 3751.36 682.507V704.75C3724.09 703.792 3695 703.287 3664.06 703.237C3637.2 703.237 3613.24 703.741 3592.16 704.75V682.658C3609.51 681.977 3619.55 681.372 3622.34 680.918C3624.93 680.621 3627.4 679.657 3629.51 678.119C3630.71 677.072 3631.56 675.668 3631.92 674.109C3632.37 672.066 3633.05 664.198 3633.88 650.428C3635.24 630.253 3635.92 611.666 3635.92 594.668V489.504C3635.92 456.165 3635.74 434.728 3635.39 425.196C3635.25 411.803 3634.24 398.435 3632.37 385.173C3632.06 383.326 3631.25 381.6 3630.04 380.18C3628.33 378.66 3626.24 377.639 3624 377.229C3613.49 375.898 3602.91 375.191 3592.31 375.11V353.019C3613.34 353.977 3637.48 354.481 3664.74 354.532C3695.32 354.431 3724.22 353.876 3751.43 352.867Z" fill="#4D4D4F"/>
<path d="M3787.57 683.264C3798.88 683.051 3810.17 682.116 3821.37 680.464C3823.19 679.823 3824.81 678.698 3826.04 677.211C3827.74 674.372 3828.79 671.196 3829.14 667.905C3830.19 661.55 3831.33 646.116 3832.68 621.678C3833.36 607.757 3833.66 589.6 3833.66 567.356V486.63L3832.68 413.469C3832.83 405.472 3832.33 397.475 3831.17 389.561C3830.68 386.574 3829.43 383.762 3827.55 381.39C3825.35 379.286 3822.61 377.844 3819.63 377.229C3809.02 375.447 3798.31 374.36 3787.57 373.976V352.867C3808.74 353.826 3824.36 354.33 3834.42 354.38L3870.78 353.624L3893.87 352.867C3928.28 397.959 3969.97 449.911 4018.96 508.722C4054.17 551.191 4083.45 584.379 4106.79 608.287V550.258C4106.79 460.074 4105.78 407.114 4103.77 391.377C4103.81 386.919 4102.19 382.606 4099.24 379.272C4095.42 376.246 4082.37 374.581 4060.08 374.278V353.17C4080.55 354.128 4099.29 354.633 4116.29 354.683C4132.82 354.683 4154.02 354.153 4180.2 353.17V374.278C4159.83 374.732 4147.75 376.246 4143.91 378.818C4142.54 379.656 4141.55 380.98 4141.11 382.525C4137.56 401.478 4135.92 420.742 4136.21 440.025C4135.46 469.884 4135.08 491.976 4135.08 506.301C4135.08 617.719 4136.16 685.357 4138.32 709.214L4135.08 711.484C4121.05 709.113 4106.76 706.919 4092.22 704.901C4038.2 644.375 3961.62 553.587 3862.49 432.535V557.748C3862.49 583.673 3862.99 610.733 3863.99 638.928C3863.9 650.824 3864.91 662.703 3867.01 674.412C3867.66 676.34 3868.83 678.046 3870.41 679.329C3872.95 680.877 3875.82 681.785 3878.78 681.977C3886.69 683.042 3894.65 683.698 3902.62 683.944H3907.68V704.296L3853.51 703.767C3837.29 703.767 3815.25 704.296 3787.57 705.28V683.264Z" fill="#4D4D4F"/>
<path d="M4226.37 704.751V691.208C4235.11 687.316 4243.36 682.416 4250.97 676.607C4251.95 669.57 4252.78 658.146 4253.46 642.41C4254.82 613.559 4255.5 592.602 4255.5 579.538V466.279C4255.5 461.891 4255.49 445.549 4254.74 417.177C4255.1 405.52 4253.9 393.868 4251.19 382.526C4250.39 380.883 4249.06 379.553 4247.42 378.743C4235.65 375.637 4223.53 374.11 4211.36 374.204V352.868L4269.53 354.079C4281.07 354.079 4292.16 354.079 4302.57 354.079C4325.21 354.079 4351.01 354.079 4379.08 353.322L4430 352.036C4436.04 352.036 4448.19 352.036 4466.6 353.02C4469.41 353.227 4472.19 353.734 4474.9 354.533L4476.63 357.786L4471.88 394.026C4471.88 396.523 4470.9 408.628 4469.39 430.266H4449.77C4450.01 418.071 4449.28 405.877 4447.58 393.799C4447.11 391.843 4446.06 390.076 4444.57 388.73C4438.15 386.28 4431.36 384.925 4424.5 384.72C4408.34 382.904 4392.09 381.97 4375.83 381.921C4360.74 381.921 4345.65 382.526 4330.57 383.737C4327.95 407.703 4326.77 431.805 4327.02 455.914V508.042C4338.41 508.874 4350.33 509.328 4362.63 509.328C4366.48 509.328 4380.36 508.95 4404.28 508.269C4409.64 508.615 4415.03 508.026 4420.2 506.529C4421.98 505.241 4423.26 503.368 4423.82 501.233C4426.33 490.782 4427.52 480.055 4427.36 469.305H4447.36L4446.38 524.611L4447.36 579.689H4425.78C4425.78 560.245 4424.72 548.292 4422.01 543.752C4420.8 541.967 4419.22 540.476 4417.36 539.39C4415.51 538.303 4413.43 537.648 4411.29 537.473C4396.58 535.379 4381.72 534.443 4366.86 534.673C4350.63 534.673 4337.28 535.203 4326.72 536.186V642.788C4326.72 654.742 4326.72 664.955 4327.47 673.505C4341.05 674.463 4357.12 674.967 4375.68 675.018C4394.24 675.068 4410.92 674.488 4425.7 673.278C4435.33 673.242 4444.88 671.527 4453.92 668.209C4455.43 667.058 4456.56 665.475 4457.17 663.669C4461.67 648.85 4464.85 633.659 4466.67 618.275H4487.27C4483.97 645.494 4482.13 672.871 4481.76 700.287L4478.44 703.541C4463.27 704.914 4448.03 705.495 4432.8 705.281L4392.43 704.524C4352.67 704.07 4325.28 703.768 4310.19 703.768L4226.37 704.751Z" fill="#4D4D4F"/>
<path d="M1559.59 968.644H1472.15V851.224H1487.77V955.48H1546.31V851.224H1561.86V955.48H1574.46V997.773H1559.37L1559.59 968.644Z" fill="#4D4D4F"/>
<path d="M1594.29 851.224H1675.17V864.388H1609.91V901.461H1670.87V914.625H1610.06V955.253H1675.77V968.417H1594.29V851.224Z" fill="#4D4D4F"/>
<path d="M1698.57 851.223H1714.19V901.459H1775.83V850.996H1791.6V968.416H1776.06V914.623H1714.42V968.416H1698.8L1698.57 851.223Z" fill="#4D4D4F"/>
<path d="M1847.56 864.388H1808.56V851.224H1902.19V864.388H1863.18V968.644H1847.56V864.388Z" fill="#4D4D4F"/>
<path d="M1919.25 851.225H1970.56C1975.42 850.864 1980.3 851.488 1984.91 853.061C1989.53 854.634 1993.78 857.123 1997.41 860.379C2003.27 867.608 2006.47 876.638 2006.47 885.951C2006.47 895.265 2003.27 904.295 1997.41 911.523C1993.78 914.77 1989.52 917.248 1984.91 918.807C1980.29 920.367 1975.41 920.978 1970.56 920.602H1934.94V968.645H1919.4L1919.25 851.225ZM1965.12 907.514C1972.04 908.08 1978.93 906.118 1984.51 901.991C1988.49 897.603 1990.7 891.884 1990.7 885.951C1990.7 880.019 1988.49 874.3 1984.51 869.912C1978.93 865.784 1972.04 863.823 1965.12 864.389H1934.94V907.514H1965.12Z" fill="#4D4D4F"/>
<path d="M2123.56 971.29C2111.06 971.794 2098.77 967.945 2088.78 960.395C2084.04 956.328 2080.15 951.358 2077.34 945.773C2074.53 940.189 2072.85 934.101 2072.41 927.862H2088.17C2089.29 936.539 2093.37 944.56 2099.72 950.559C2106.22 955.9 2114.49 958.6 2122.88 958.125C2128.43 958.22 2133.93 957.137 2139.03 954.947C2143.7 953.172 2147.95 950.411 2151.48 946.852C2154.83 942.747 2157.39 938.052 2159.02 933.007C2161.02 927.279 2162.16 921.289 2162.41 915.227H2108.47V902.29H2162.41C2161.81 897.104 2160.55 892.018 2158.64 887.158C2156.9 882.412 2154.35 878.009 2151.1 874.145C2147.96 870.337 2144.05 867.242 2139.63 865.066C2134.69 862.773 2129.3 861.635 2123.86 861.737C2119.78 861.697 2115.71 862.257 2111.79 863.402C2108.17 864.384 2104.74 865.997 2101.68 868.168C2098.74 870.221 2096.18 872.783 2094.13 875.734C2092.05 878.723 2090.49 882.05 2089.53 885.569H2074.44C2075.09 879.861 2077.08 874.389 2080.25 869.606C2083.35 865.085 2087.27 861.184 2091.8 858.106C2096.43 855.028 2101.53 852.705 2106.89 851.221C2112.3 849.569 2117.9 848.653 2123.56 848.497C2131.88 848.316 2140.13 850.023 2147.7 853.491C2154.34 856.571 2160.2 861.124 2164.83 866.806C2169.49 872.584 2172.93 879.251 2174.94 886.402C2177.23 894.111 2178.37 902.115 2178.33 910.158C2178.48 918.93 2177.1 927.659 2174.26 935.957C2171.75 943.052 2167.91 949.6 2162.94 955.25C2158.17 960.437 2152.32 964.517 2145.82 967.204C2138.76 970.098 2131.18 971.489 2123.56 971.29Z" fill="#4D4D4F"/>
<path d="M2249.4 971.29C2241.23 971.458 2233.13 969.857 2225.63 966.599C2219.09 963.631 2213.31 959.206 2208.73 953.662C2204.16 947.926 2200.75 941.346 2198.7 934.293C2196.39 926.485 2195.24 918.378 2195.3 910.234C2195.28 902.12 2196.53 894.054 2199 886.327C2201.23 879.174 2204.82 872.521 2209.56 866.731C2214.26 861.079 2220.17 856.555 2226.84 853.491C2234.38 850.092 2242.57 848.412 2250.83 848.574C2256.71 848.538 2262.56 849.379 2268.18 851.07C2273.44 852.717 2278.37 855.278 2282.75 858.636C2287.07 861.84 2290.71 865.879 2293.46 870.514C2296.37 875.622 2298.27 881.25 2299.04 887.083H2283.42C2282.21 879.542 2278.06 872.793 2271.88 868.32C2265.64 864.062 2258.23 861.867 2250.68 862.041C2244.47 861.878 2238.31 863.228 2232.72 865.975C2227.85 868.513 2223.63 872.168 2220.43 876.642C2217.1 881.181 2214.66 886.317 2213.26 891.774C2211.73 897.55 2210.97 903.502 2211 909.478C2210.96 915.878 2211.72 922.257 2213.26 928.468C2214.63 934.099 2217.06 939.415 2220.43 944.129C2223.67 948.581 2227.91 952.209 2232.8 954.721C2238.4 957.494 2244.59 958.845 2250.83 958.655C2255.49 958.73 2260.11 957.854 2264.41 956.083C2268.35 954.514 2271.9 952.114 2274.82 949.047C2277.75 945.935 2280.06 942.288 2281.61 938.303C2283.31 933.975 2284.3 929.403 2284.56 924.76H2300.17C2299.5 937.764 2294.14 950.081 2285.08 959.412C2275.21 967.917 2262.39 972.184 2249.4 971.29Z" fill="#4D4D4F"/>
<path d="M2349.9 864.388H2310.9V851.224H2404.53V864.388H2365.52V968.644H2349.9V864.388Z" fill="#4D4D4F"/>
<path d="M2421.72 851.224H2502.53V864.388H2437.27V901.461H2498.15V914.625H2437.27V955.253H2503.06V968.417H2421.72V851.224Z" fill="#4D4D4F"/>
<path d="M2552.56 864.388H2513.55V851.224H2607.19V864.388H2568.1V968.644H2552.56V864.388Z" fill="#4D4D4F"/>
<path d="M2624.23 851.224H2639.77V950.714L2698.63 851.224H2718.32V968.644H2702.78V868.852L2643.7 968.644H2624.23V851.224Z" fill="#4D4D4F"/>
<path d="M2814.73 918.332C2813.37 918.862 2811.56 919.543 2809.22 920.224L2801.68 922.266C2798.81 922.947 2795.87 923.477 2792.78 924.006C2789.91 924.471 2787.01 924.723 2784.1 924.763C2776.79 925.025 2769.49 923.895 2762.6 921.434C2757.83 919.659 2753.58 916.721 2750.22 912.885C2747.38 909.42 2745.41 905.32 2744.49 900.931C2743.59 896.473 2743.13 891.937 2743.13 887.388V851.224H2758.22V886.329C2758.23 889.142 2758.46 891.949 2758.9 894.727C2759.35 897.685 2760.46 900.504 2762.14 902.974C2764.11 905.633 2766.7 907.763 2769.69 909.177C2774.1 911.036 2778.87 911.889 2783.65 911.674C2789.97 911.786 2796.28 911.099 2802.43 909.631C2806.58 908.594 2810.62 907.176 2814.5 905.395V851.451H2830.05V968.871H2814.5L2814.73 918.332Z" fill="#4D4D4F"/>
<path d="M2859.93 851.224H2940.81V864.388H2875.54V901.461H2936.36V914.625H2875.54V955.253H2941.26V968.417H2859.93V851.224Z" fill="#4D4D4F"/>
<path d="M3012.56 971.29C3004.4 971.457 2996.29 969.857 2988.8 966.599C2982.26 963.63 2976.48 959.206 2971.9 953.661C2967.32 947.926 2963.91 941.345 2961.86 934.293C2959.55 926.485 2958.41 918.378 2958.47 910.234C2958.41 902.074 2959.63 893.955 2962.09 886.175C2964.32 879.023 2967.91 872.37 2972.65 866.58C2977.36 860.909 2983.3 856.383 2990 853.34C2997.49 849.969 3005.64 848.315 3013.85 848.498C3019.72 848.462 3025.57 849.304 3031.2 850.994C3036.46 852.641 3041.39 855.202 3045.76 858.56C3050.08 861.764 3053.73 865.803 3056.47 870.438C3059.39 875.546 3061.28 881.174 3062.06 887.007H3046.44C3045.22 879.466 3041.07 872.718 3034.9 868.244C3028.65 863.986 3021.24 861.791 3013.7 861.965C3007.48 861.811 3001.32 863.161 2995.74 865.899C2990.86 868.438 2986.65 872.092 2983.44 876.567C2979.98 881.075 2977.41 886.213 2975.9 891.698C2974.37 897.474 2973.61 903.426 2973.63 909.402C2973.6 915.802 2974.36 922.181 2975.9 928.392C2977.38 934.051 2979.94 939.369 2983.44 944.053C2986.68 948.505 2990.92 952.133 2995.81 954.645C3001.41 957.418 3007.6 958.769 3013.85 958.579C3018.5 958.662 3023.12 957.787 3027.43 956.007C3031.36 954.438 3034.91 952.038 3037.84 948.971C3040.79 945.879 3043.1 942.226 3044.63 938.227C3046.32 933.899 3047.32 929.327 3047.57 924.685H3063.19C3062.52 937.689 3057.16 950.005 3048.1 959.336C3038.27 967.831 3025.51 972.122 3012.56 971.29Z" fill="#4D4D4F"/>
<path d="M3086.66 851.224H3102.28V908.118L3161.65 851.224H3181.8L3126.04 903.503L3183.76 968.644H3164.07L3114.27 913.036L3102.28 924.158V968.569H3086.66V851.224Z" fill="#4D4D4F"/>
<path d="M3249.63 971.293C3241.23 971.495 3232.89 969.761 3225.26 966.223C3218.48 963.05 3212.48 958.427 3207.68 952.681C3202.94 946.916 3199.35 940.288 3197.12 933.161C3192.39 918.091 3192.39 901.929 3197.12 886.858C3199.34 879.678 3202.92 872.997 3207.68 867.187C3212.5 861.439 3218.5 856.795 3225.26 853.569C3232.95 850.16 3241.26 848.4 3249.67 848.4C3258.07 848.4 3266.39 850.16 3274.07 853.569C3280.84 856.795 3286.83 861.439 3291.65 867.187C3296.41 872.997 3300 879.678 3302.22 886.858C3306.94 901.929 3306.94 918.091 3302.22 933.161C3299.98 940.288 3296.39 946.916 3291.65 952.681C3286.85 958.427 3280.85 963.05 3274.07 966.223C3266.42 969.767 3258.06 971.501 3249.63 971.293ZM3249.63 958.279C3256.01 958.434 3262.34 957.004 3268.04 954.118C3273.04 951.442 3277.36 947.634 3280.64 942.996C3284.07 938.327 3286.63 933.072 3288.18 927.487C3291.2 916.006 3291.2 903.937 3288.18 892.457C3286.63 886.848 3284.07 881.568 3280.64 876.872C3277.35 872.257 3273.04 868.475 3268.04 865.826C3262.31 863.035 3256.03 861.585 3249.67 861.585C3243.3 861.585 3237.02 863.035 3231.3 865.826C3226.3 868.475 3221.98 872.257 3218.7 876.872C3215.23 881.55 3212.68 886.836 3211.15 892.457C3208.13 903.937 3208.13 916.006 3211.15 927.487C3212.68 933.084 3215.24 938.345 3218.7 942.996C3221.98 947.634 3226.29 951.442 3231.3 954.118C3236.97 956.995 3243.27 958.424 3249.63 958.279Z" fill="#4D4D4F"/>
<path d="M3328.85 851.224H3344.39V950.714L3403.24 851.224H3422.93V968.644H3407.39V868.852L3348.32 968.644H3328.85V851.224ZM3375.93 843.658C3368.39 844.051 3360.91 842.038 3354.58 837.908C3351.91 835.968 3349.75 833.419 3348.27 830.471C3346.78 827.523 3346.03 824.262 3346.05 820.961H3361.14C3361.24 822.729 3361.71 824.458 3362.52 826.034C3363.32 827.611 3364.45 829.001 3365.82 830.116C3368.83 831.964 3372.33 832.86 3375.85 832.688C3379.63 833.022 3383.41 832.062 3386.57 829.964C3389.03 827.603 3390.49 824.377 3390.64 820.961H3405.73C3405.76 824.122 3405.01 827.241 3403.54 830.04C3402.12 832.835 3400.09 835.268 3397.58 837.152C3394.78 839.314 3391.61 840.954 3388.23 841.994C3384.26 843.126 3380.13 843.636 3376.01 843.507L3375.93 843.658Z" fill="#4D4D4F"/>
<path d="M3502.6 851.224H3523.95L3560.84 949.578L3597.89 851.224H3619.17V968.644H3604.08V871.198L3567.56 968.871H3554.28L3517.69 871.198V968.871H3502.6V851.224Z" fill="#4D4D4F"/>
<path d="M3649.2 851.224H3730V864.388H3664.74V901.461H3725.63V914.625H3664.74V955.253H3730.6V968.417H3649.2V851.224Z" fill="#4D4D4F"/>
<path d="M3742.14 955.48H3753.61C3756.15 950.657 3758.2 945.587 3759.72 940.349C3761.67 933.959 3763.29 927.468 3764.55 920.905C3765.91 913.869 3766.96 906.303 3767.72 898.207C3768.47 890.112 3768.85 882.244 3768.85 874.148V850.77H3844.29V955.026H3857.2V997.319H3842.11V968.191H3756.85V997.319H3741.76L3742.14 955.48ZM3828.68 955.48V864.691H3783.94V881.638C3783.94 889.204 3783.56 896.165 3782.88 903.428C3782.2 910.691 3781.15 917.651 3779.94 924.158C3778.73 930.665 3777.22 936.642 3775.64 942.165C3774.34 946.83 3772.68 951.384 3770.66 955.783L3828.68 955.48Z" fill="#4D4D4F"/>
<path d="M3877.06 851.224H3892.68V950.714L3951.52 851.224H3971.22V968.644H3955.6V868.852L3896.6 968.644H3877.06V851.224Z" fill="#4D4D4F"/>
<path d="M4088.22 968.644H4000.85V851.224H4016.4V955.48H4074.94V851.224H4090.56V955.48H4103.16V997.773H4088.07L4088.22 968.644Z" fill="#4D4D4F"/>
<path d="M4122.93 851.224H4138.47V950.714L4197.32 851.224H4217.01V968.644H4201.47V868.852L4142.39 968.644H4122.93V851.224Z" fill="#4D4D4F"/>
<path d="M4246.74 851.223H4262.35V901.459H4323.99V850.996H4339.54V968.416H4323.99V914.623H4262.35V968.416H4246.74V851.223Z" fill="#4D4D4F"/>
<path d="M4369.19 851.224H4384.81V899.115H4419.74C4429.44 898.454 4439.01 901.663 4446.37 908.043C4452.36 915.312 4455.64 924.448 4455.64 933.88C4455.64 943.311 4452.36 952.448 4446.37 959.717C4439 966.068 4429.44 969.272 4419.74 968.644H4369.19V851.224ZM4414.46 955.48C4431.51 955.48 4440.03 948.293 4440.03 933.918C4440.03 919.391 4431.51 912.053 4414.46 912.053H4384.81V955.48H4414.46ZM4471.04 851.224H4486.58V968.644H4471.04V851.224Z" fill="#4D4D4F"/>
</g>
<defs>
<clipPath id="clip0">
<rect width="4749" height="1283" fill="white"/>
</clipPath>
</defs>
</svg>
