<svg width="45" height="46" viewBox="0 0 45 46" fill="none" xmlns="http://www.w3.org/2000/svg">
<g clip-path="url(#clip0)">
<path d="M44.6045 32.1406C44.5166 34.1621 44.165 35.9639 43.5498 37.5459C42.9639 39.0693 42.1143 40.3877 41.001 41.501C39.8877 42.6143 38.5693 43.4639 37.0459 44.0498L44.6045 32.1406ZM44.6045 32.1406L44.3547 32.1298C44.3547 32.13 44.3547 32.1303 44.3547 32.1306C44.3547 32.1309 44.3547 32.1311 44.3547 32.1314L44.6045 32.1406ZM44.3547 13.7815C44.3547 13.7818 44.3547 13.7821 44.3547 13.7823L44.6045 13.7715L44.3547 13.7807C44.3547 13.781 44.3547 13.7813 44.3547 13.7815ZM31.6298 1.05738C31.63 1.05739 31.6303 1.0574 31.6306 1.05742C31.6308 1.05743 31.6311 1.05744 31.6314 1.05745L31.6406 0.807617L31.6298 1.05738ZM13.2807 1.05745C13.281 1.05744 13.2813 1.05743 13.2815 1.05742C13.2818 1.0574 13.2821 1.05739 13.2823 1.05738L13.2715 0.807617L13.2807 1.05745ZM0.557381 13.7823C0.557393 13.7821 0.557404 13.7818 0.557416 13.7815C0.557426 13.7813 0.557436 13.781 0.557446 13.7807L0.307617 13.7715L0.557381 13.7823ZM0.557446 32.1314C0.557436 32.1311 0.557426 32.1308 0.557416 32.1306C0.557405 32.1303 0.557393 32.13 0.557381 32.1298L0.307617 32.1406L0.557446 32.1314ZM13.2823 44.8547C13.2821 44.8547 13.2818 44.8547 13.2815 44.8547C13.2813 44.8547 13.281 44.8547 13.2807 44.8547L13.2715 45.1045L13.2823 44.8547ZM31.6314 44.8547C31.6311 44.8547 31.6309 44.8547 31.6306 44.8547C31.6303 44.8547 31.63 44.8547 31.6298 44.8547L31.6406 45.1045L31.6314 44.8547ZM12.911 3.45817L12.9107 3.45818C11.3049 3.51765 9.81361 3.80036 8.43873 4.30847L8.43866 4.30827L8.42924 4.3122C6.25899 5.21647 4.71647 6.75899 3.8122 8.92924L3.81201 8.92916L3.80847 8.93873C3.30036 10.3136 3.01765 11.8049 2.95818 13.4107L2.95817 13.411C2.87013 15.8761 2.82617 19.0581 2.82617 22.9561C2.82617 26.854 2.87013 30.036 2.95817 32.5011L2.95818 32.5014C3.01765 34.1072 3.30036 35.5985 3.80847 36.9734L3.80827 36.9735L3.8122 36.9829C4.71647 39.1531 6.25899 40.6956 8.42924 41.5999L8.42916 41.6001L8.43873 41.6036C9.81361 42.1117 11.3049 42.3945 12.9107 42.4539L12.911 42.4539C15.3761 42.542 18.5581 42.5859 22.4561 42.5859C26.354 42.5859 29.536 42.542 32.0011 42.4539L32.0014 42.4539C33.6072 42.3945 35.0985 42.1117 36.4734 41.6036L36.4735 41.6038L36.4829 41.5999C38.6531 40.6956 40.1956 39.1531 41.0999 36.9829L41.1001 36.983L41.1036 36.9734C41.6117 35.5985 41.8945 34.1072 41.9539 32.5014L41.9539 32.5011C42.042 30.036 42.0859 26.854 42.0859 22.9561C42.0859 19.0581 42.042 15.8761 41.9539 13.411L41.9539 13.4107C41.8945 11.8049 41.6117 10.3136 41.1036 8.93873L41.1038 8.93866L41.0999 8.92924C40.1956 6.75899 38.6531 5.21647 36.4829 4.3122L36.483 4.31201L36.4734 4.30847C35.0985 3.80036 33.6072 3.51765 32.0014 3.45818L32.0011 3.45817C29.536 3.37013 26.354 3.32617 22.4561 3.32617C18.5581 3.32617 15.3761 3.37013 12.911 3.45817ZM22.4561 32.127C24.9834 32.127 27.149 31.2289 28.939 29.439C30.7289 27.649 31.627 25.4834 31.627 22.9561C31.627 20.4287 30.7289 18.2631 28.939 16.4731C27.149 14.6832 24.9834 13.7852 22.4561 13.7852C19.9287 13.7852 17.7631 14.6832 15.9731 16.4731C14.1832 18.2631 13.2852 20.4287 13.2852 22.9561C13.2852 25.4834 14.1832 27.649 15.9731 29.439C17.7631 31.2289 19.9287 32.127 22.4561 32.127ZM22.4561 11.7803C25.5542 11.7803 28.1858 12.8675 30.3652 15.0469C32.5446 17.2263 33.6318 19.8579 33.6318 22.9561C33.6318 26.0542 32.5446 28.6858 30.3652 30.8652C28.1858 33.0446 25.5542 34.1318 22.4561 34.1318C19.3579 34.1318 16.7263 33.0446 14.5469 30.8652C12.3675 28.6858 11.2803 26.0542 11.2803 22.9561C11.2803 19.8579 12.3675 17.2263 14.5469 15.0469C16.7263 12.8675 19.3579 11.7803 22.4561 11.7803ZM36.7959 11.0908C36.7959 11.7554 36.5598 12.3134 36.0806 12.7792C35.6018 13.2448 35.0205 13.4775 34.3213 13.4775C33.6544 13.4775 33.0957 13.247 32.6304 12.7817C32.1651 12.3164 31.9346 11.7577 31.9346 11.0908C31.9346 10.3916 32.1673 9.81036 32.6329 9.3315C33.0987 8.85234 33.6567 8.61621 34.3213 8.61621C34.984 8.61621 35.5586 8.85844 36.0561 9.35598C36.5537 9.85351 36.7959 10.4281 36.7959 11.0908Z" fill="white" stroke="#24A1AE" stroke-width="0.5"/>
</g>
<defs>
<clipPath id="clip0">
<rect y="0.5" width="45" height="45" fill="white"/>
</clipPath>
</defs>
</svg>
