<svg width="512" height="299" viewBox="0 0 512 299" fill="none" xmlns="http://www.w3.org/2000/svg">
<path d="M489.25 229.129C478.113 215.782 465.531 203.865 453.362 192.34C449.086 188.289 444.662 184.1 440.402 179.941C440.401 179.94 440.4 179.939 440.399 179.938C434.669 174.349 431.864 170.382 431.571 167.452C431.283 164.572 433.251 160.299 437.778 153.983C444.547 144.483 451.762 134.967 458.742 125.765C464.946 117.585 471.36 109.126 477.508 100.619L478.888 98.7093C490.883 82.1073 503.285 64.9403 509.931 44.0203C511.829 38.0223 513.8 29.1463 509.046 21.3543C504.29 13.5603 495.473 11.2503 489.259 10.1923C486.224 9.67228 483.344 9.62927 480.664 9.62927L402.858 9.56027C389.406 9.33627 380.074 15.7123 374.988 28.5163C370.918 38.7423 366.111 50.5933 360.542 61.8353C349.887 83.5383 336.348 108.535 316.724 129.362L315.852 130.29C314.516 131.716 312.333 134.048 311.212 134.583C309.086 133.247 306.633 125.606 306.745 121.603C306.748 121.504 306.749 121.406 306.749 121.308L306.68 31.4053C306.68 30.9483 306.648 30.4913 306.587 30.0383C304.842 17.2123 301.44 4.35427 281.14 0.348274C280.489 0.219274 279.827 0.155273 279.165 0.155273H198.23C183.003 0.155273 174.949 7.12827 168.492 14.6883C166.623 16.8923 161.657 22.7443 164.187 29.8983C166.747 37.1373 174.375 38.5823 176.879 39.0563C185.699 40.7303 190.26 45.7153 191.672 55.2453C194.463 73.7623 194.805 93.5713 192.75 117.554C192.177 123.993 191.111 128.887 189.391 132.957C188.915 134.084 188.497 134.782 188.205 135.193C187.739 135.005 187.014 134.645 186.01 133.958C179.812 129.717 175.141 123.124 170.624 116.75C152.582 91.2773 137.406 63.1433 124.223 30.7283C118.794 17.4453 108.588 10.0263 95.5042 9.83427C70.5762 9.41927 47.5212 9.42927 25.0452 9.86627C14.4442 10.0503 7.01024 13.3873 2.94624 19.7863C-1.12276 26.1973 -0.973763 34.3713 3.39024 44.0853C34.5862 113.455 62.9122 163.919 95.2322 207.713C117.989 238.545 140.897 259.947 167.324 275.067C195.09 290.952 226.404 298.737 262.732 298.736C266.863 298.736 271.066 298.635 275.325 298.432C297.738 297.411 306.857 288.496 307.852 266.667C308.41 255.13 309.694 245.784 314.149 237.664C315.395 235.391 316.801 233.867 317.909 233.588C319.087 233.294 321.176 234.015 323.499 235.524C327.746 238.282 331.403 242.022 334.41 245.305C337.458 248.642 340.538 252.089 343.519 255.422C349.862 262.519 356.421 269.858 363.293 276.858C378.836 292.702 396.754 299.968 416.571 298.446L487.776 298.479C487.778 298.479 487.779 298.479 487.78 298.479C488.006 298.479 488.232 298.472 488.458 298.457C496.671 297.91 503.772 293.363 507.942 285.979C512.963 277.087 512.887 265.824 507.735 255.839C502.359 245.458 495.384 236.523 489.25 229.129ZM490.181 275.95C489.199 277.689 487.988 278.006 487.363 278.082L416.173 278.049C416.171 278.049 416.169 278.049 416.166 278.049C415.885 278.049 415.604 278.06 415.325 278.084C401.3 279.252 389.379 274.322 377.851 262.572C371.312 255.91 364.914 248.753 358.727 241.831C355.712 238.458 352.595 234.969 349.463 231.541C345.579 227.299 340.778 222.424 334.609 218.418C325.373 212.423 317.719 212.604 312.926 213.812C308.183 215.007 301.441 218.417 296.266 227.861C289.562 240.08 288.083 253.262 287.481 265.715C287.133 273.331 285.845 275.343 285.307 275.854C284.602 276.524 282.246 277.702 274.385 278.061C236.609 279.837 204.907 273.072 177.454 257.365C153.572 243.701 132.66 224.074 111.645 195.603C80.2202 153.024 52.5702 103.716 21.9952 35.7263C20.8872 33.2633 20.5452 31.7263 20.4462 30.9033C21.2262 30.6473 22.7502 30.3103 25.4222 30.2613C47.6702 29.8303 70.4842 29.8183 95.1872 30.2303C98.5692 30.2803 102.42 31.2953 105.336 38.4303C119.11 72.2993 135.021 101.774 153.981 128.542C159.015 135.647 165.281 144.491 174.49 150.792C182.925 156.568 189.77 156.292 194.028 155.044C198.288 153.795 204.2 150.325 208.182 140.897C210.751 134.82 212.304 127.977 213.073 119.331C215.27 93.6783 214.88 72.3503 211.848 52.2333C209.711 37.8203 202.269 27.4083 190.546 22.0913C192.628 21.0073 194.974 20.5553 198.232 20.5553H278.109C282.603 21.5633 283.493 22.7473 283.798 23.1523C285.092 24.8733 285.832 28.9443 286.284 32.1253L286.352 121.199C286.172 129.738 290.322 148.676 304.452 153.869C304.568 153.912 304.685 153.952 304.802 153.99C317.666 158.194 326.175 149.113 330.743 144.234L331.557 143.368C353.053 120.553 367.528 93.8953 378.837 70.8603C384.731 58.9653 389.723 46.6613 393.944 36.0553C396.056 30.7363 397.978 29.8603 402.564 29.9573C402.627 29.9593 402.689 29.9593 402.753 29.9593L480.658 30.0283C482.47 30.0283 484.361 30.0493 485.828 30.3003C489.54 30.9323 491.069 31.7023 491.573 32.0213C491.625 32.6123 491.613 34.3123 490.491 37.8603C484.84 55.6493 473.919 70.7633 462.358 86.7653L460.977 88.6783C454.97 96.9903 448.627 105.353 442.494 113.442C435.424 122.763 428.116 132.4 421.187 142.126C406.373 162.795 407.675 176.511 426.162 194.543C430.531 198.808 435.009 203.05 439.341 207.152C451.622 218.785 463.223 229.772 473.576 242.178C478.996 248.712 485.14 256.559 489.618 265.207C491.954 269.734 491.381 273.824 490.181 275.95Z" fill="white"/>
</svg>
