<svg width="68" height="46" viewBox="0 0 68 46" fill="none" xmlns="http://www.w3.org/2000/svg">
<mask id="path-1-inside-1" fill="white">
<path d="M0 6.69083C0 4.42751 1.29908 3.2071 3.89723 3.02959L13.9091 3.09615C14.581 3.09615 15.029 3.42899 15.253 4.09467C16.2833 7.42308 17.4368 10.2966 18.7134 12.7152C19.9901 15.1339 21.6588 17.9186 23.7194 21.0695C23.8986 21.4689 24.1897 21.6686 24.5929 21.6686C24.9065 21.6686 25.1528 21.5133 25.332 21.2027L25.5336 20.4704L25.6008 8.95414C25.6008 8.15533 25.4104 7.62278 25.0296 7.35651C24.6489 7.09024 23.9433 6.89053 22.913 6.7574C22.1067 6.62426 21.7036 6.13609 21.7036 5.2929C21.7036 5.11538 21.726 4.98225 21.7708 4.89349C22.7115 2.00888 25.3992 0.566568 29.834 0.566568L33.5968 0.5C35.2991 0.5 36.7101 0.921598 37.83 1.76479C38.9499 2.60799 39.5099 3.93935 39.5099 5.75888V20.8698C39.8235 21.0917 40.1146 21.2027 40.3834 21.2027C41.0553 21.2027 41.6377 20.8033 42.1304 20.0044C47.058 13.1701 49.7233 8.59911 50.1265 6.29142C50.1265 6.24704 50.1713 6.13609 50.2609 5.95858C50.5744 5.2929 51.0896 4.71598 51.8063 4.22781C52.5231 3.73964 53.1502 3.4068 53.6877 3.22929C53.8669 3.14053 54.0685 3.09615 54.2925 3.09615H64.7075L65.3795 3.16272C66.2754 3.16272 66.9697 3.58432 67.4625 4.42751C67.6416 4.69379 67.7648 4.98225 67.832 5.2929C67.8992 5.60355 67.944 5.9142 67.9664 6.22485C67.9888 6.5355 68 6.71302 68 6.7574V7.22337C67.6864 9.0429 66.8913 10.9845 65.6146 13.0481C64.3379 15.1117 62.7141 17.3417 60.7431 19.7382C58.7721 22.1346 57.5402 23.7101 57.0474 24.4645C56.6443 24.997 56.4427 25.4852 56.4427 25.929C56.4427 26.284 56.6219 26.6834 56.9802 27.1272L66.7905 39.3757C67.3281 40.0858 67.5968 40.8624 67.5968 41.7056C67.5968 42.7263 67.1937 43.5695 66.3874 44.2352C65.581 44.9009 64.6179 45.2781 63.498 45.3669L62.3557 45.4334H52.1423C52.0975 45.4334 52.0079 45.4445 51.8735 45.4667C51.7391 45.4889 51.6495 45.5 51.6047 45.5C50.6192 45.5 49.7009 45.0784 48.8498 44.2352C48.5362 43.8802 46.4308 41.2618 42.5336 36.3802C42.3096 36.0695 41.996 35.7811 41.5929 35.5148C41.4137 36.2249 41.1785 37.2456 40.8874 38.5769C40.5962 39.9083 40.3834 40.8624 40.249 41.4393L40.0474 42.571C39.5995 44.1243 38.6588 45.0562 37.2253 45.3669L36.2846 45.4334H29.6996C25.9816 45.4334 22.2747 43.747 18.5791 40.3743C14.8834 37.0015 11.5573 32.6413 8.60079 27.2936C5.64427 21.946 2.88933 15.7219 0.335968 8.6213C0.111989 8.04438 0 7.40089 0 6.69083ZM40.3834 23.932C39.4427 23.932 38.5916 23.6768 37.83 23.1664C37.0685 22.6561 36.6877 21.9571 36.6877 21.0695V5.75888C36.6877 4.8713 36.4638 4.23891 36.0158 3.86169C35.5679 3.48447 34.7839 3.29586 33.664 3.29586L29.834 3.42899C27.9078 3.42899 26.4519 3.76183 25.4664 4.42751C27.4374 5.35947 28.4229 6.86834 28.4229 8.95414V20.6701C28.3333 21.7796 27.8854 22.7004 27.0791 23.4327C26.2727 24.1649 25.3768 24.5311 24.3913 24.5311C23.0474 24.5311 22.0171 23.8876 21.3004 22.6006C17.8063 17.3639 15.2082 12.3935 13.5059 7.68935L12.9012 5.95858L3.96443 5.89201C3.38208 5.89201 3.05731 5.9253 2.99012 5.99186C2.92293 6.05843 2.88933 6.24704 2.88933 6.55769C2.88933 6.9571 2.93412 7.3787 3.02372 7.82249L4.43478 11.5503C8.19763 21.1805 12.2852 28.7692 16.6976 34.3166C21.11 39.8639 25.444 42.6376 29.6996 42.6376H36.419C36.6877 42.6376 36.8893 42.5599 37.0237 42.4046C37.1581 42.2493 37.2701 41.9497 37.3597 41.5059L37.4941 40.8402L38.7708 34.9822C39.1291 34.1834 39.4427 33.6509 39.7115 33.3846C40.2042 32.8964 40.7866 32.6524 41.4585 32.6524C42.5336 32.6524 43.6311 33.2959 44.751 34.5828L50.4625 41.7722C50.8208 42.3491 51.2016 42.6376 51.6047 42.6376H62.6917C64.0356 42.6376 64.7075 42.3047 64.7075 41.6391C64.7075 41.4172 64.6403 41.1953 64.5059 40.9734L54.7628 28.9246C54.0013 27.9926 53.6206 26.9941 53.6206 25.929C53.6206 24.8639 53.9789 23.8432 54.6957 22.8669C55.278 21.9793 56.4091 20.5037 58.0889 18.4401C59.7688 16.3765 61.2358 14.446 62.4901 12.6487C63.7444 10.8513 64.5731 9.22041 64.9763 7.75592L65.1779 6.89053C65.1331 6.80178 65.1107 6.65754 65.1107 6.45784C65.1107 6.25814 65.0883 6.09172 65.0435 5.95858H54.4941C53.8221 6.22485 53.2846 6.62426 52.8814 7.1568L52.4783 8.4216C51.3584 11.4837 48.4242 16.2101 43.6759 22.6006C42.7352 23.4882 41.6377 23.932 40.3834 23.932Z"/>
</mask>
<path d="M0 6.69083C0 4.42751 1.29908 3.2071 3.89723 3.02959L13.9091 3.09615C14.581 3.09615 15.029 3.42899 15.253 4.09467C16.2833 7.42308 17.4368 10.2966 18.7134 12.7152C19.9901 15.1339 21.6588 17.9186 23.7194 21.0695C23.8986 21.4689 24.1897 21.6686 24.5929 21.6686C24.9065 21.6686 25.1528 21.5133 25.332 21.2027L25.5336 20.4704L25.6008 8.95414C25.6008 8.15533 25.4104 7.62278 25.0296 7.35651C24.6489 7.09024 23.9433 6.89053 22.913 6.7574C22.1067 6.62426 21.7036 6.13609 21.7036 5.2929C21.7036 5.11538 21.726 4.98225 21.7708 4.89349C22.7115 2.00888 25.3992 0.566568 29.834 0.566568L33.5968 0.5C35.2991 0.5 36.7101 0.921598 37.83 1.76479C38.9499 2.60799 39.5099 3.93935 39.5099 5.75888V20.8698C39.8235 21.0917 40.1146 21.2027 40.3834 21.2027C41.0553 21.2027 41.6377 20.8033 42.1304 20.0044C47.058 13.1701 49.7233 8.59911 50.1265 6.29142C50.1265 6.24704 50.1713 6.13609 50.2609 5.95858C50.5744 5.2929 51.0896 4.71598 51.8063 4.22781C52.5231 3.73964 53.1502 3.4068 53.6877 3.22929C53.8669 3.14053 54.0685 3.09615 54.2925 3.09615H64.7075L65.3795 3.16272C66.2754 3.16272 66.9697 3.58432 67.4625 4.42751C67.6416 4.69379 67.7648 4.98225 67.832 5.2929C67.8992 5.60355 67.944 5.9142 67.9664 6.22485C67.9888 6.5355 68 6.71302 68 6.7574V7.22337C67.6864 9.0429 66.8913 10.9845 65.6146 13.0481C64.3379 15.1117 62.7141 17.3417 60.7431 19.7382C58.7721 22.1346 57.5402 23.7101 57.0474 24.4645C56.6443 24.997 56.4427 25.4852 56.4427 25.929C56.4427 26.284 56.6219 26.6834 56.9802 27.1272L66.7905 39.3757C67.3281 40.0858 67.5968 40.8624 67.5968 41.7056C67.5968 42.7263 67.1937 43.5695 66.3874 44.2352C65.581 44.9009 64.6179 45.2781 63.498 45.3669L62.3557 45.4334H52.1423C52.0975 45.4334 52.0079 45.4445 51.8735 45.4667C51.7391 45.4889 51.6495 45.5 51.6047 45.5C50.6192 45.5 49.7009 45.0784 48.8498 44.2352C48.5362 43.8802 46.4308 41.2618 42.5336 36.3802C42.3096 36.0695 41.996 35.7811 41.5929 35.5148C41.4137 36.2249 41.1785 37.2456 40.8874 38.5769C40.5962 39.9083 40.3834 40.8624 40.249 41.4393L40.0474 42.571C39.5995 44.1243 38.6588 45.0562 37.2253 45.3669L36.2846 45.4334H29.6996C25.9816 45.4334 22.2747 43.747 18.5791 40.3743C14.8834 37.0015 11.5573 32.6413 8.60079 27.2936C5.64427 21.946 2.88933 15.7219 0.335968 8.6213C0.111989 8.04438 0 7.40089 0 6.69083ZM40.3834 23.932C39.4427 23.932 38.5916 23.6768 37.83 23.1664C37.0685 22.6561 36.6877 21.9571 36.6877 21.0695V5.75888C36.6877 4.8713 36.4638 4.23891 36.0158 3.86169C35.5679 3.48447 34.7839 3.29586 33.664 3.29586L29.834 3.42899C27.9078 3.42899 26.4519 3.76183 25.4664 4.42751C27.4374 5.35947 28.4229 6.86834 28.4229 8.95414V20.6701C28.3333 21.7796 27.8854 22.7004 27.0791 23.4327C26.2727 24.1649 25.3768 24.5311 24.3913 24.5311C23.0474 24.5311 22.0171 23.8876 21.3004 22.6006C17.8063 17.3639 15.2082 12.3935 13.5059 7.68935L12.9012 5.95858L3.96443 5.89201C3.38208 5.89201 3.05731 5.9253 2.99012 5.99186C2.92293 6.05843 2.88933 6.24704 2.88933 6.55769C2.88933 6.9571 2.93412 7.3787 3.02372 7.82249L4.43478 11.5503C8.19763 21.1805 12.2852 28.7692 16.6976 34.3166C21.11 39.8639 25.444 42.6376 29.6996 42.6376H36.419C36.6877 42.6376 36.8893 42.5599 37.0237 42.4046C37.1581 42.2493 37.2701 41.9497 37.3597 41.5059L37.4941 40.8402L38.7708 34.9822C39.1291 34.1834 39.4427 33.6509 39.7115 33.3846C40.2042 32.8964 40.7866 32.6524 41.4585 32.6524C42.5336 32.6524 43.6311 33.2959 44.751 34.5828L50.4625 41.7722C50.8208 42.3491 51.2016 42.6376 51.6047 42.6376H62.6917C64.0356 42.6376 64.7075 42.3047 64.7075 41.6391C64.7075 41.4172 64.6403 41.1953 64.5059 40.9734L54.7628 28.9246C54.0013 27.9926 53.6206 26.9941 53.6206 25.929C53.6206 24.8639 53.9789 23.8432 54.6957 22.8669C55.278 21.9793 56.4091 20.5037 58.0889 18.4401C59.7688 16.3765 61.2358 14.446 62.4901 12.6487C63.7444 10.8513 64.5731 9.22041 64.9763 7.75592L65.1779 6.89053C65.1331 6.80178 65.1107 6.65754 65.1107 6.45784C65.1107 6.25814 65.0883 6.09172 65.0435 5.95858H54.4941C53.8221 6.22485 53.2846 6.62426 52.8814 7.1568L52.4783 8.4216C51.3584 11.4837 48.4242 16.2101 43.6759 22.6006C42.7352 23.4882 41.6377 23.932 40.3834 23.932Z" fill="white" stroke="#25A2AF" stroke-width="1.4" mask="url(#path-1-inside-1)"/>
</svg>
