<svg width="62" height="46" viewBox="0 0 62 46" fill="none" xmlns="http://www.w3.org/2000/svg">
<path d="M6.17938 3.42869L6.1794 3.42872L6.18472 3.42543C6.78923 3.05216 7.7541 2.70226 9.11793 2.39394C10.4732 2.08755 12.1873 1.8297 14.2655 1.62253C18.4214 1.20823 23.9975 1 31 1C35.6269 1 39.6158 1.09136 42.968 1.27365C46.3258 1.45625 48.8922 1.69896 50.6773 1.99917C52.4846 2.30312 53.8053 2.59314 54.6561 2.86631C55.5136 3.14162 56.1676 3.44767 56.6362 3.77474C57.6167 4.47163 58.4746 5.66623 59.1792 7.42385C59.8868 9.1891 60.3912 11.1706 60.6887 13.3718C60.99 15.6011 61.1899 17.469 61.2896 18.9781C61.3896 20.4919 61.4597 21.9344 61.4998 23.3057C61.4596 24.8394 61.3895 26.3833 61.2895 27.9374C61.19 29.4835 60.9806 31.2871 60.6599 33.35C60.3432 35.3873 59.8301 37.2151 59.1244 38.8371C58.4218 40.4518 57.583 41.5868 56.6303 42.2904C56.0523 42.7022 55.0949 43.0921 53.7099 43.4371C52.3324 43.7802 50.5729 44.0693 48.4253 44.3017C44.1304 44.7664 38.3245 45 31 45C23.9771 45 18.3855 44.7968 14.2189 44.3926C12.1354 44.1904 10.4169 43.9388 9.05853 43.6397C7.69433 43.3394 6.72864 42.9986 6.12342 42.635C5.06403 41.9702 4.11181 40.8104 3.29119 39.0952C2.46837 37.3753 1.87673 35.4299 1.52073 33.2546C1.15926 31.0459 0.909362 29.1884 0.769805 27.6796C0.630232 26.1706 0.540457 24.7334 0.500269 23.3677C0.540349 22.2806 0.600293 21.1327 0.680152 19.9239C1.00098 15.2709 1.63605 11.5739 2.57331 8.81639C3.51355 6.05002 4.735 4.29577 6.17938 3.42869ZM54.9068 39.9393L54.9169 39.9325L54.9266 39.9252C55.4894 39.5055 55.9657 38.7982 56.3823 37.8786C56.8032 36.9497 57.1846 35.7552 57.5311 34.3052C58.2279 31.3897 58.5921 27.7209 58.6325 23.3095L58.6327 23.3095L58.6325 23.2959C58.592 21.0479 58.4704 18.9202 58.2674 16.9131C58.0647 14.9079 57.8001 13.1889 57.4717 11.76C57.1452 10.3391 56.7744 9.13941 56.3559 8.168C55.9493 7.22438 55.4834 6.50173 54.9177 6.12878C54.4643 5.78135 53.6967 5.49128 52.7 5.22978C51.641 4.95194 49.1848 4.66511 45.3918 4.36135C41.5666 4.05502 36.7682 3.90244 31 3.90244C25.3932 3.90244 20.7263 4.04485 17.0027 4.33074C13.3084 4.61436 10.9075 4.88064 9.85308 5.136C8.84816 5.37936 8.10115 5.61579 7.67168 5.85654L7.66438 5.86063L7.65723 5.86496C7.02709 6.24647 6.49612 6.98218 6.0297 7.96005C5.55669 8.95175 5.11906 10.2597 4.7121 11.8715C3.89451 15.1095 3.44859 18.9401 3.36753 23.3567L3.36736 23.3659L3.36753 23.3751C3.44857 27.7496 3.88421 31.4508 4.68332 34.4694C5.08076 35.9708 5.5117 37.1959 5.98111 38.1326C6.44535 39.0589 6.97407 39.758 7.5968 40.135C8.07503 40.4246 8.85003 40.6719 9.8624 40.8967C10.9114 41.1295 13.3071 41.3855 17.0027 41.6693C20.7263 41.9552 25.3932 42.0976 31 42.0976C36.7682 42.0976 41.5666 41.945 45.3918 41.6386C49.1848 41.3349 51.641 41.0481 52.7 40.7702C53.707 40.506 54.4668 40.2352 54.9068 39.9393ZM43.3057 21.9006L43.3102 21.9033C43.7634 22.1777 44.0014 22.569 44.036 23.1356C44.0323 23.6796 43.8056 24.0883 43.3046 24.405C43.3039 24.4055 43.3032 24.4059 43.3025 24.4063L25.9033 35.1354L25.8525 35.1667L25.8106 35.209C25.7625 35.2575 25.6991 35.2955 25.6031 35.317C25.4524 35.3508 25.3181 35.3659 25.1988 35.3659C24.9671 35.3659 24.725 35.3088 24.4682 35.1811C23.9952 34.9087 23.7651 34.512 23.7651 33.9146V12.3902C23.7651 11.7876 24.0002 11.3742 24.4889 11.0814C24.7447 10.9281 24.9764 10.867 25.1909 10.8704C25.406 10.8738 25.64 10.9425 25.899 11.1059L25.9022 11.1079L43.3057 21.9006ZM26.6326 30.439V31.3405L27.3973 30.8632L39.1205 23.5461L39.8001 23.122L39.1205 22.6978L27.3973 15.3807L26.6326 14.9034V15.8049V30.439Z" fill="white" stroke="#26A2AF"/>
</svg>
