<svg width="513" height="368" viewBox="0 0 513 368" fill="none" xmlns="http://www.w3.org/2000/svg">
<path d="M331.326 158.57L228.19 105.015C220.166 100.847 210.381 101.173 202.649 105.869C194.922 110.564 190.121 119.096 190.121 128.138V235.6C190.121 244.655 194.931 253.195 202.68 257.89C206.75 260.354 211.418 261.657 216.178 261.657C220.366 261.657 224.539 260.632 228.248 258.694L331.384 204.791C340.025 200.278 345.385 191.415 345.375 181.66C345.363 171.911 339.979 163.063 331.326 158.57ZM321.936 186.711H321.935L218.797 240.615C217.079 241.514 214.902 241.444 213.247 240.442C211.564 239.422 210.519 237.567 210.519 235.599V128.138C210.519 126.175 211.562 124.323 213.239 123.304C214.136 122.76 215.157 122.486 216.182 122.486C217.077 122.486 217.974 122.695 218.786 123.117L321.924 176.673C323.804 177.649 324.973 179.571 324.976 181.685C324.977 183.805 323.812 185.731 321.936 186.711Z" fill="#1C9DAC"/>
<path d="M491.296 34.1484V34.1494C471.381 10.4744 436.358 0.816406 370.414 0.816406H143.286C75.7656 0.816406 40.1266 11.1034 20.2726 36.3244C0.851562 60.9984 0.851562 94.7424 0.851562 141.446V226.555C0.851562 264.915 4.08856 304.11 27.5766 330.93C49.2366 355.664 86.0036 367.184 143.286 367.184H370.415C427.585 367.184 459.694 358.771 481.246 338.145C503.399 316.944 512.852 283.571 512.852 226.555V141.446C512.852 92.1074 511.352 57.9844 491.296 34.1484ZM492.454 226.555C492.454 277.463 484.884 306.429 467.142 323.408C449.792 340.012 421.769 346.786 370.416 346.786H143.286C38.8696 346.786 21.2506 309.696 21.2506 226.556V141.447C21.2506 98.8454 21.2506 68.0644 36.3016 48.9434C51.8046 29.2484 82.7996 21.2154 143.287 21.2154V21.2144H370.415C429.614 21.2144 460.114 28.7664 475.688 47.2804V47.2814C491.288 65.8204 492.454 96.6014 492.454 141.446V226.555V226.555Z" fill="#1C9DAC"/>
</svg>
