<svg width="513" height="367" viewBox="0 0 513 367" fill="none" xmlns="http://www.w3.org/2000/svg">
<path d="M331.326 158.016L228.19 104.461C220.166 100.293 210.381 100.619 202.649 105.315C194.922 110.01 190.121 118.542 190.121 127.584V235.046C190.121 244.101 194.931 252.641 202.68 257.336C206.75 259.8 211.418 261.103 216.178 261.103C220.366 261.103 224.539 260.078 228.248 258.14L331.384 204.237C340.025 199.724 345.385 190.861 345.375 181.106C345.363 171.357 339.979 162.509 331.326 158.016ZM321.936 186.157H321.935L218.797 240.061C217.079 240.96 214.902 240.89 213.247 239.888C211.564 238.868 210.519 237.013 210.519 235.045V127.584C210.519 125.621 211.562 123.769 213.239 122.75C214.136 122.206 215.157 121.932 216.182 121.932C217.077 121.932 217.974 122.141 218.786 122.563L321.924 176.119C323.804 177.095 324.973 179.017 324.976 181.131C324.977 183.251 323.812 185.177 321.936 186.157Z" fill="white"/>
<path d="M491.296 33.5942V33.5952C471.381 9.92021 436.358 0.262207 370.414 0.262207H143.286C75.7656 0.262207 40.1266 10.5492 20.2726 35.7702C0.851562 60.4442 0.851562 94.1882 0.851562 140.892V226.001C0.851562 264.361 4.08856 303.556 27.5766 330.376C49.2366 355.11 86.0036 366.63 143.286 366.63H370.415C427.585 366.63 459.694 358.217 481.246 337.591C503.399 316.39 512.852 283.017 512.852 226.001V140.892C512.852 91.5532 511.352 57.4302 491.296 33.5942ZM492.454 226.001C492.454 276.909 484.884 305.875 467.142 322.854C449.792 339.458 421.769 346.232 370.416 346.232H143.286C38.8696 346.232 21.2506 309.142 21.2506 226.002V140.893C21.2506 98.2912 21.2506 67.5102 36.3016 48.3892C51.8046 28.6942 82.7996 20.6612 143.287 20.6612V20.6602H370.415C429.614 20.6602 460.114 28.2122 475.688 46.7262V46.7272C491.288 65.2662 492.454 96.0472 492.454 140.892V226.001Z" fill="white"/>
</svg>
