<svg width="512" height="513" viewBox="0 0 512 513" fill="none" xmlns="http://www.w3.org/2000/svg">
<g clip-path="url(#clip0)">
<path d="M359.312 0.446289H152.689C68.8489 0.446289 0.639893 68.6543 0.639893 152.495V360.398C0.639893 444.238 68.8489 512.446 152.689 512.446H359.312C443.151 512.446 511.36 444.238 511.36 360.398V152.495C511.359 68.6543 443.151 0.446289 359.312 0.446289ZM490.961 360.397C490.961 432.99 431.904 492.047 359.312 492.047H152.689C80.0959 492.047 21.0389 432.99 21.0389 360.398V152.495C21.0389 79.9023 80.0959 20.8453 152.689 20.8453H359.312C431.904 20.8453 490.961 79.9023 490.961 152.495V360.397Z" fill="white"/>
<path d="M359.312 58.7402H152.689C100.991 58.7402 58.9329 100.797 58.9329 152.495V360.399C58.9329 412.096 100.991 454.154 152.689 454.154H359.312C411.009 454.154 453.067 412.096 453.067 360.399V152.495C453.067 100.798 411.009 58.7402 359.312 58.7402ZM432.669 360.397C432.669 400.846 399.761 433.754 359.312 433.754H152.689C112.239 433.754 79.3309 400.846 79.3309 360.397V152.494C79.3309 112.045 112.239 79.1372 152.689 79.1372V79.1382H359.312C399.761 79.1382 432.669 112.046 432.669 152.495V360.397Z" fill="white"/>
<path d="M256 124.625C183.314 124.625 124.179 183.76 124.179 256.447C124.179 329.133 183.313 388.268 256 388.268C328.687 388.268 387.821 329.133 387.821 256.447C387.821 183.76 328.686 124.625 256 124.625ZM256 367.868C194.562 367.868 144.578 317.885 144.578 256.447C144.578 195.008 194.562 145.024 256 145.024C317.439 145.024 367.422 195.008 367.422 256.447C367.422 317.885 317.438 367.868 256 367.868Z" fill="white"/>
<path d="M256 181.487C214.668 181.487 181.041 215.114 181.041 256.446C181.041 297.778 214.668 331.405 256 331.405C297.333 331.405 330.959 297.778 330.959 256.446C330.959 215.114 297.332 181.487 256 181.487ZM256 311.007C225.915 311.007 201.439 286.531 201.439 256.446C201.439 226.361 225.915 201.885 256 201.885C286.085 201.885 310.561 226.36 310.561 256.446C310.561 286.531 286.085 311.007 256 311.007Z" fill="white"/>
<path d="M380.485 100.289C363.021 100.289 348.812 114.497 348.812 131.962C348.812 149.427 363.02 163.634 380.485 163.634C397.948 163.634 412.157 149.427 412.157 131.962C412.157 114.497 397.948 100.289 380.485 100.289ZM380.485 143.235C374.269 143.235 369.211 138.178 369.211 131.962C369.211 125.745 374.269 120.688 380.485 120.688C386.701 120.688 391.758 125.746 391.758 131.962C391.759 138.178 386.702 143.235 380.485 143.235Z" fill="white"/>
</g>
<defs>
<clipPath id="clip0">
<rect y="0.446289" width="512" height="512" fill="white"/>
</clipPath>
</defs>
</svg>
