<svg width="4492" height="1283" viewBox="0 0 4492 1283" fill="none" xmlns="http://www.w3.org/2000/svg">
<g clip-path="url(#clip0)">
<path d="M1461.89 704.75V683.415C1473.2 683.06 1484.46 681.718 1495.54 679.405C1497.45 678.744 1499.11 677.501 1500.29 675.849C1502.02 672.95 1503.05 669.686 1503.31 666.316C1504.46 656.784 1505.44 635.902 1506.25 603.672C1506.8 588.086 1507.05 561.278 1507 523.248C1507 489.202 1506.75 459.065 1506.25 432.837C1506.67 417.133 1505.59 401.424 1503 385.929C1502.53 383.871 1501.45 382.001 1499.91 380.558C1497.49 378.887 1494.69 377.871 1491.76 377.607C1481.78 375.917 1471.7 374.83 1461.58 374.354V353.018C1496.06 354.002 1519.75 354.531 1532.81 354.531C1550.01 354.531 1567.36 354.002 1584.72 353.018L1606.82 402.801L1624.33 440.63L1704.07 605.639C1721.12 572.551 1733.93 546.903 1742.48 528.695L1775.52 459.014C1793.93 420.126 1805.17 396.193 1809.25 387.215C1813.4 378.288 1818 366.864 1823.21 353.17C1845.09 354.304 1859.12 354.91 1865.31 354.91L1940.08 353.17V374.505H1936.53C1919.63 374.505 1908.99 376.321 1904.46 380.406C1901.81 383.711 1899.84 387.515 1898.67 391.595C1897.5 395.676 1897.17 399.949 1897.67 404.163C1897.67 418.084 1897.67 428.676 1897.67 435.863L1896.39 506.527V594.82C1896.39 616.206 1896.39 628.815 1896.39 632.649C1897.75 653.984 1898.96 666.997 1899.94 671.915C1900.33 673.991 1901.26 675.925 1902.65 677.514C1904.27 679.108 1906.27 680.255 1908.46 680.842C1918.94 682.383 1929.49 683.343 1940.08 683.718V704.75L1860.02 703.237L1781.79 704.75V683.415C1802.56 682.709 1814.4 681.498 1817.32 679.783C1820.89 676.78 1823.14 672.485 1823.58 667.829C1825.44 647.105 1826.07 626.287 1825.47 605.488V422.396L1767.3 540.346L1739.76 598.83C1732.37 614.264 1722.01 636.659 1708.68 666.014C1700.45 683.718 1694.04 698.092 1689.36 708.987H1672.31C1666.27 694.915 1657.57 675.622 1646.21 651.109C1626.84 609.296 1612.13 578.049 1602.07 557.369L1536.13 422.321V545.869C1536.13 566.448 1536.43 590.961 1537.03 619.409C1537.56 647.856 1538.24 663.895 1538.92 667.678C1539.2 670.63 1540.27 673.452 1542.01 675.849C1544.11 677.918 1546.71 679.404 1549.56 680.162C1559.68 682.108 1569.95 683.196 1580.26 683.415V704.75C1561.55 703.792 1542.41 703.288 1522.85 703.237C1497.3 703.136 1476.98 703.641 1461.89 704.75Z" fill="white"/>
<path d="M1984.28 532.856C1983.68 505.475 1988.4 478.237 1998.16 452.66C2006.75 431.326 2019.75 412.055 2036.29 396.109C2052.82 380.163 2072.54 367.902 2094.13 360.131C2121.45 351.034 2150.08 346.535 2178.86 346.815C2207.04 346.413 2235.09 350.734 2261.85 359.601C2295.57 371.73 2324.14 395.064 2342.81 425.725C2350.33 439.042 2355.95 453.356 2359.48 468.245C2363.4 484.979 2365.3 502.125 2365.14 519.314C2365.41 549.349 2359.88 579.152 2348.84 607.076C2340.86 627.149 2328.87 645.376 2313.61 660.642C2298.52 675.969 2280.58 688.178 2260.8 696.579C2231.29 708.256 2199.78 713.989 2168.07 713.451C2134.6 714.331 2101.39 707.308 2071.12 692.948C2044.41 679.556 2022.3 658.483 2007.59 632.422C1992.2 605.79 1984.28 572.652 1984.28 532.856ZM2061.46 517.725C2060.41 550.801 2065.87 583.76 2077.53 614.718C2088.25 640.24 2101.95 658.297 2118.65 668.889C2136.48 679.722 2157.04 685.209 2177.88 684.701C2197.75 685.011 2217.32 679.772 2234.39 669.57C2252.7 657.343 2266.47 639.388 2273.55 618.501C2283.64 590.561 2288.42 560.974 2287.66 531.268C2287.88 509.572 2285.35 487.936 2280.11 466.883C2275.75 449.155 2268.32 432.331 2258.16 417.176C2249.46 404.296 2237.92 393.602 2224.43 385.93C2208.44 378.02 2190.71 374.298 2172.9 375.111C2150.88 374.444 2129.17 380.428 2110.58 392.285C2092.84 404.629 2079.7 422.543 2073.23 443.202C2065.22 467.316 2061.31 492.612 2061.69 518.028L2061.46 517.725Z" fill="white"/>
<path d="M2418.03 704.748V692.719C2419.39 691.886 2421.73 690.525 2425.05 688.709C2431.12 685.352 2436.99 681.639 2442.63 677.587C2444.44 655.193 2445.35 618.751 2445.35 568.262V527.029C2445.35 504.886 2444.94 472.429 2444.14 429.658C2444.34 414.461 2443.26 399.275 2440.89 384.263C2440.49 382.963 2439.79 381.773 2438.86 380.783C2437.09 379.215 2434.92 378.168 2432.6 377.756C2429.73 377.076 2419.24 375.562 2400.98 373.217V352.865L2492.05 354.378C2502.76 354.378 2522.88 353.949 2552.41 353.092C2573.73 352.537 2590.86 352.285 2603.79 352.336C2627.59 351.879 2651.39 353.678 2674.86 357.707C2691.25 360.812 2706.99 366.697 2721.41 375.108C2734.06 382.586 2745.36 392.152 2754.83 403.404C2763.71 413.851 2770.73 425.751 2775.58 438.585C2783.62 460.817 2787.61 484.316 2787.35 507.963C2787.86 537.51 2781.86 566.806 2769.77 593.758C2758.63 618.174 2742.12 639.745 2721.49 656.857C2701.92 673.32 2679.31 685.739 2654.94 693.4C2626.85 701.492 2597.7 705.317 2568.48 704.748L2494.01 703.235L2418.03 704.748ZM2518.38 674.107C2533.14 676.379 2548.04 677.542 2562.97 677.587C2582.93 677.865 2602.85 675.499 2622.2 670.551C2634.09 667.443 2645.37 662.326 2655.54 655.42C2666.4 647.241 2675.71 637.169 2683.01 625.686C2692.34 611.333 2699.25 595.536 2703.45 578.93C2708.51 559.825 2711.05 540.138 2711 520.371C2710.95 501.631 2708.42 482.981 2703.45 464.914C2698.92 447.755 2690.8 431.763 2679.61 418.006C2668.6 404.616 2654.1 394.536 2637.74 388.878C2620.84 382.826 2595.26 379.799 2561.01 379.799C2546.74 379.889 2532.5 380.977 2518.38 383.053C2516.72 406.859 2515.86 451.699 2515.81 517.572V575.45C2515.81 625.182 2516.67 658.017 2518.38 673.956V674.107Z" fill="white"/>
<path d="M3015.58 519.844L3047.19 468.549C3052.52 459.318 3068.41 431.224 3094.87 384.266C3104.08 368.176 3109.84 357.71 3112.15 352.868H3151.53V364.292C3131.41 391.58 3109.58 423.684 3086.04 460.605C3062.5 497.526 3048.04 521.257 3042.66 531.799C3039.37 537.734 3036.83 544.064 3035.12 550.637C3033.91 556.84 3033.4 563.159 3033.61 569.476V611.995C3033.36 627.523 3033.92 643.054 3035.27 658.525C3035.41 664.57 3036.72 670.531 3039.12 676.077C3041.05 678.397 3043.71 679.996 3046.66 680.617C3057.62 682.246 3068.7 682.929 3079.78 682.66V704.752C3047.79 703.793 3018.95 703.289 2993.24 703.238C2967.54 703.188 2942.14 703.693 2917.04 704.752V682.66C2928.22 682.598 2939.38 681.84 2950.46 680.39C2953.08 679.908 2955.47 678.579 2957.25 676.607C2959.18 671.803 2960.08 666.649 2959.9 661.476C2960.85 642.359 2961.35 626.093 2961.4 612.676V564.785C2959.7 556.331 2956.48 548.256 2951.9 540.953C2936.1 512.102 2919.3 483.68 2901.5 455.687C2889.47 436.311 2875.87 417.965 2860.83 400.835C2855.64 394.629 2849.65 389.135 2843.03 384.493C2835.78 383.032 2828.37 382.524 2821 382.98V364.292L2873.81 353.776C2882.86 351.758 2892.14 349.489 2901.65 346.967C2909.77 351.085 2917.37 356.165 2924.28 362.098C2931.51 369.804 2937.98 378.191 2943.6 387.141C2956.97 407.243 2969.11 428.138 2979.96 449.71C2999.73 487.741 3011.6 511.119 3015.58 519.844Z" fill="white"/>
<path d="M3292.62 704.751V691.964C3298.91 689.074 3305.01 685.789 3310.88 682.129C3313.44 680.916 3315.75 679.221 3317.67 677.136C3318.31 676.314 3318.75 675.356 3318.96 674.336C3319.81 670.2 3320.54 655.245 3321.14 629.471C3321.75 603.697 3322.1 572.804 3322.2 536.791C3322.2 483.83 3322.02 451.045 3321.67 438.436C3322.01 420.347 3320.92 402.259 3318.43 384.341C3318.13 383.383 3317.64 382.495 3316.99 381.728C3316.34 380.962 3315.55 380.332 3314.66 379.877C3310.81 377.305 3298.06 375.64 3276.33 374.808V352.716C3297.55 353.674 3321.77 354.179 3348.98 354.229C3379.47 354.229 3408.31 353.725 3435.52 352.716V374.808C3423.82 374.532 3412.14 376.063 3400.89 379.347C3398.99 380.429 3397.57 382.183 3396.89 384.265C3395.36 394.534 3394.58 404.901 3394.56 415.285C3393.8 433.745 3393.42 457.048 3393.42 485.192C3393.42 488.219 3393.42 512.454 3393.42 557.899C3393.42 581.857 3393.55 605.614 3393.8 629.169C3393.8 652.698 3393.8 666.997 3393.8 672.066C3416.89 673.025 3432.61 673.529 3440.96 673.58C3463.2 673.804 3485.42 672.286 3507.43 669.04C3511.67 668.764 3515.82 667.659 3519.65 665.787C3521.77 663.055 3523.24 659.871 3523.95 656.481C3527.27 643.72 3530.54 629.118 3533.76 612.675H3554.5C3554.05 617.366 3553.75 620.241 3553.75 620.998L3547.49 671.764C3546.21 687.728 3545.45 697.26 3545.22 700.438C3540.48 701.771 3535.64 702.707 3530.74 703.237C3520.68 704.095 3504.88 704.498 3483.36 704.448C3480.34 704.448 3460.67 704.044 3424.36 703.237C3396.84 702.582 3377.63 702.229 3366.71 702.178C3350.72 702.279 3326.02 703.137 3292.62 704.751Z" fill="white"/>
<path d="M3755.51 352.867V374.959C3745.42 374.972 3735.34 375.604 3725.33 376.851C3722.91 377.262 3720.61 378.219 3718.61 379.65C3717.28 380.689 3716.31 382.117 3715.82 383.736C3714.2 389.033 3713.36 394.538 3713.33 400.078C3712.95 404.466 3712.73 412.712 3712.58 424.742C3711.92 465.95 3711.57 488.168 3711.52 491.396V592.701L3712.27 638.777C3711.71 650.063 3712.57 661.375 3714.84 672.444C3715.3 674.561 3716.48 676.456 3718.16 677.816C3720.43 679.35 3723 680.381 3725.7 680.842C3735.57 682.051 3745.5 682.607 3755.43 682.507V704.75C3728.17 703.792 3699.07 703.287 3668.14 703.237C3641.28 703.237 3617.31 703.741 3596.24 704.75V682.658C3613.59 681.977 3623.62 681.372 3626.41 680.918C3629 680.621 3631.47 679.657 3633.58 678.119C3634.79 677.072 3635.63 675.668 3636 674.109C3636.45 672.066 3637.13 664.198 3637.96 650.428C3639.32 630.253 3640 611.666 3640 594.668V489.504C3640 456.165 3639.82 434.728 3639.47 425.196C3639.32 411.803 3638.32 398.435 3636.45 385.173C3636.14 383.326 3635.33 381.6 3634.11 380.18C3632.41 378.66 3630.32 377.639 3628.07 377.229C3617.56 375.898 3606.98 375.191 3596.39 375.11V353.019C3617.41 353.977 3641.55 354.481 3668.82 354.532C3699.4 354.431 3728.29 353.876 3755.51 352.867Z" fill="white"/>
<path d="M3791.64 683.264C3802.96 683.051 3814.25 682.116 3825.44 680.464C3827.26 679.823 3828.88 678.698 3830.12 677.211C3831.81 674.372 3832.87 671.196 3833.21 667.905C3834.27 661.55 3835.4 646.116 3836.76 621.678C3837.44 607.757 3837.74 589.6 3837.74 567.356V486.63L3836.76 413.469C3836.91 405.472 3836.4 397.475 3835.25 389.561C3834.75 386.574 3833.51 383.762 3831.63 381.39C3829.43 379.286 3826.68 377.844 3823.71 377.229C3813.1 375.447 3802.39 374.36 3791.64 373.976V352.867C3812.82 353.826 3828.43 354.33 3838.49 354.38L3874.86 353.624L3897.95 352.867C3932.35 397.959 3974.05 449.911 4023.04 508.722C4058.25 551.191 4087.52 584.379 4110.86 608.287V550.258C4110.86 460.074 4109.86 407.114 4107.84 391.377C4107.88 386.919 4106.27 382.606 4103.32 379.272C4099.49 376.246 4086.44 374.581 4064.16 374.278V353.17C4084.63 354.128 4103.37 354.633 4120.37 354.683C4136.89 354.683 4158.09 354.153 4184.27 353.17V374.278C4163.9 374.732 4151.83 376.246 4147.98 378.818C4146.62 379.656 4145.62 380.98 4145.19 382.525C4141.64 401.478 4139.99 420.742 4140.29 440.025C4139.53 469.884 4139.15 491.976 4139.15 506.301C4139.15 617.719 4140.24 685.357 4142.4 709.214L4139.15 711.484C4125.12 709.113 4110.84 706.919 4096.3 704.901C4042.28 644.375 3965.7 553.587 3866.56 432.535V557.748C3866.56 583.673 3867.06 610.733 3868.07 638.928C3867.98 650.824 3868.99 662.703 3871.09 674.412C3871.73 676.34 3872.91 678.046 3874.48 679.329C3877.02 680.877 3879.89 681.785 3882.86 681.977C3890.77 683.042 3898.72 683.698 3906.7 683.944H3911.75V704.296L3857.58 703.767C3841.36 703.767 3819.33 704.296 3791.64 705.28V683.264Z" fill="white"/>
<path d="M4230.45 704.751V691.208C4239.18 687.316 4247.44 682.416 4255.04 676.607C4256.02 669.57 4256.85 658.146 4257.53 642.41C4258.89 613.559 4259.57 592.602 4259.57 579.538V466.279C4259.57 461.891 4259.57 445.549 4258.82 417.177C4259.17 405.52 4257.98 393.868 4255.27 382.526C4254.46 380.883 4253.14 379.553 4251.5 378.743C4239.73 375.637 4227.6 374.11 4215.43 374.204V352.868L4273.6 354.079C4285.15 354.079 4296.24 354.079 4306.65 354.079C4329.28 354.079 4355.09 354.079 4383.15 353.322L4434.08 352.036C4440.12 352.036 4452.26 352.036 4470.67 353.02C4473.48 353.227 4476.27 353.734 4478.97 354.533L4480.71 357.786L4475.95 394.026C4475.95 396.523 4474.97 408.628 4473.46 430.266H4453.85C4454.08 418.071 4453.35 405.877 4451.66 393.799C4451.19 391.843 4450.13 390.076 4448.64 388.73C4442.22 386.28 4435.44 384.925 4428.57 384.72C4412.41 382.904 4396.17 381.97 4379.91 381.921C4364.82 381.921 4349.73 382.526 4334.64 383.737C4332.02 407.703 4330.84 431.805 4331.09 455.914V508.042C4342.49 508.874 4354.41 509.328 4366.71 509.328C4370.55 509.328 4384.44 508.95 4408.35 508.269C4413.72 508.615 4419.11 508.026 4424.27 506.529C4426.06 505.241 4427.34 503.368 4427.89 501.233C4430.41 490.782 4431.6 480.055 4431.44 469.305H4451.43L4450.45 524.611L4451.43 579.689H4429.85C4429.85 560.245 4428.8 548.292 4426.08 543.752C4424.88 541.967 4423.29 540.476 4421.44 539.39C4419.58 538.303 4417.51 537.648 4415.37 537.473C4400.65 535.379 4385.79 534.443 4370.93 534.673C4354.71 534.673 4341.36 535.203 4330.79 536.186V642.788C4330.79 654.742 4330.79 664.955 4331.55 673.505C4345.13 674.463 4361.2 674.967 4379.76 675.018C4398.32 675.068 4414.99 674.488 4429.78 673.278C4439.41 673.242 4448.95 671.527 4458 668.209C4459.51 667.058 4460.64 665.475 4461.24 663.669C4465.75 648.85 4468.93 633.659 4470.75 618.275H4491.34C4488.04 645.494 4486.21 672.871 4485.84 700.287L4482.52 703.541C4467.34 704.914 4452.11 705.495 4436.87 705.281L4396.51 704.524C4356.75 704.07 4329.36 703.768 4314.27 703.768L4230.45 704.751Z" fill="white"/>
<path d="M1563.67 968.644H1476.22V851.224H1491.84V955.48H1550.39V851.224H1565.93V955.48H1578.53V997.773H1563.44L1563.67 968.644Z" fill="white"/>
<path d="M1598.37 851.224H1679.25V864.388H1613.98V901.461H1674.95V914.625H1614.13V955.253H1679.85V968.417H1598.37V851.224Z" fill="white"/>
<path d="M1702.65 851.223H1718.27V901.459H1779.91V850.996H1795.67V968.416H1780.13V914.623H1718.49V968.416H1702.87L1702.65 851.223Z" fill="white"/>
<path d="M1851.64 864.388H1812.63V851.224H1906.26V864.388H1867.26V968.644H1851.64V864.388Z" fill="white"/>
<path d="M1923.33 851.225H1974.63C1979.49 850.864 1984.37 851.488 1988.99 853.061C1993.6 854.634 1997.86 857.123 2001.49 860.379C2007.35 867.608 2010.54 876.638 2010.54 885.951C2010.54 895.265 2007.35 904.295 2001.49 911.523C1997.85 914.77 1993.6 917.248 1988.98 918.807C1984.37 920.367 1979.49 920.978 1974.63 920.602H1939.02V968.645H1923.48L1923.33 851.225ZM1969.2 907.514C1976.11 908.08 1983 906.118 1988.59 901.991C1992.57 897.603 1994.78 891.884 1994.78 885.951C1994.78 880.019 1992.57 874.3 1988.59 869.912C1983 865.784 1976.11 863.823 1969.2 864.389H1939.02V907.514H1969.2Z" fill="white"/>
<path d="M2127.63 971.29C2115.13 971.794 2102.84 967.945 2092.85 960.395C2088.11 956.328 2084.23 951.358 2081.42 945.773C2078.61 940.189 2076.93 934.101 2076.48 927.862H2092.25C2093.36 936.539 2097.44 944.56 2103.79 950.559C2110.3 955.9 2118.56 958.6 2126.96 958.125C2132.5 958.22 2138 957.137 2143.1 954.947C2147.78 953.172 2152.03 950.411 2155.55 946.852C2158.9 942.747 2161.46 938.052 2163.1 933.007C2165.09 927.279 2166.23 921.289 2166.49 915.227H2112.54V902.29H2166.49C2165.89 897.104 2164.62 892.018 2162.72 887.158C2160.98 882.412 2158.43 878.009 2155.17 874.145C2152.04 870.337 2148.13 867.242 2143.7 865.066C2138.77 862.773 2133.38 861.635 2127.94 861.737C2123.85 861.697 2119.79 862.257 2115.86 863.402C2112.24 864.384 2108.82 865.997 2105.75 868.168C2102.81 870.221 2100.26 872.783 2098.21 875.734C2096.12 878.723 2094.57 882.05 2093.61 885.569H2078.52C2079.16 879.861 2081.15 874.389 2084.33 869.606C2087.43 865.085 2091.34 861.184 2095.87 858.106C2100.51 855.028 2105.6 852.705 2110.96 851.221C2116.37 849.569 2121.98 848.653 2127.63 848.497C2135.95 848.316 2144.21 850.023 2151.78 853.491C2158.42 856.571 2164.28 861.124 2168.9 866.806C2173.56 872.584 2177 879.251 2179.01 886.402C2181.3 894.111 2182.45 902.115 2182.41 910.158C2182.55 918.93 2181.17 927.659 2178.34 935.957C2175.82 943.052 2171.98 949.6 2167.02 955.25C2162.24 960.437 2156.4 964.517 2149.89 967.204C2142.84 970.098 2135.26 971.489 2127.63 971.29Z" fill="white"/>
<path d="M2253.47 971.29C2245.31 971.458 2237.2 969.857 2229.71 966.599C2223.17 963.631 2217.39 959.206 2212.81 953.662C2208.23 947.926 2204.82 941.346 2202.77 934.293C2200.46 926.485 2199.32 918.378 2199.38 910.234C2199.36 902.12 2200.61 894.054 2203.07 886.327C2205.31 879.174 2208.89 872.521 2213.64 866.731C2218.34 861.079 2224.24 856.555 2230.91 853.491C2238.45 850.092 2246.65 848.412 2254.91 848.574C2260.78 848.538 2266.63 849.379 2272.26 851.07C2277.52 852.717 2282.45 855.278 2286.82 858.636C2291.15 861.84 2294.79 865.879 2297.53 870.514C2300.45 875.622 2302.34 881.25 2303.12 887.083H2287.5C2286.28 879.542 2282.13 872.793 2275.96 868.32C2269.72 864.062 2262.3 861.867 2254.76 862.041C2248.54 861.878 2242.38 863.228 2236.8 865.975C2231.92 868.513 2227.71 872.168 2224.5 876.642C2221.17 881.181 2218.74 886.317 2217.33 891.774C2215.81 897.55 2215.05 903.502 2215.07 909.478C2215.03 915.878 2215.79 922.257 2217.33 928.468C2218.7 934.099 2221.14 939.415 2224.5 944.129C2227.74 948.581 2231.98 952.209 2236.88 954.721C2242.47 957.494 2248.67 958.845 2254.91 958.655C2259.56 958.73 2264.18 957.854 2268.49 956.083C2272.42 954.514 2275.97 952.114 2278.9 949.047C2281.83 945.935 2284.13 942.288 2285.69 938.303C2287.38 933.975 2288.38 929.403 2288.63 924.76H2304.25C2303.58 937.764 2298.22 950.081 2289.16 959.412C2279.28 967.917 2266.46 972.184 2253.47 971.29Z" fill="white"/>
<path d="M2353.98 864.388H2314.97V851.224H2408.6V864.388H2369.6V968.644H2353.98V864.388Z" fill="white"/>
<path d="M2425.8 851.224H2506.61V864.388H2441.34V901.461H2502.23V914.625H2441.34V955.253H2507.13V968.417H2425.8V851.224Z" fill="white"/>
<path d="M2556.64 864.388H2517.63V851.224H2611.26V864.388H2572.18V968.644H2556.64V864.388Z" fill="white"/>
<path d="M2628.31 851.224H2643.85V950.714L2702.7 851.224H2722.39V968.644H2706.85V868.852L2647.77 968.644H2628.31V851.224Z" fill="white"/>
<path d="M2818.81 918.332C2817.45 918.862 2815.64 919.543 2813.3 920.224L2805.75 922.266C2802.89 922.947 2799.94 923.477 2796.85 924.006C2793.98 924.471 2791.08 924.723 2788.17 924.763C2780.86 925.025 2773.57 923.895 2766.67 921.434C2761.9 919.659 2757.65 916.721 2754.3 912.885C2751.46 909.42 2749.49 905.32 2748.56 900.931C2747.66 896.473 2747.21 891.937 2747.21 887.388V851.224H2762.3V886.329C2762.31 889.142 2762.54 891.949 2762.97 894.727C2763.42 897.685 2764.53 900.504 2766.22 902.974C2768.19 905.633 2770.78 907.763 2773.76 909.177C2778.17 911.036 2782.94 911.889 2787.72 911.674C2794.04 911.786 2800.36 911.099 2806.51 909.631C2810.65 908.594 2814.69 907.176 2818.58 905.395V851.451H2834.12V968.871H2818.58L2818.81 918.332Z" fill="white"/>
<path d="M2864 851.224H2944.88V864.388H2879.62V901.461H2940.43V914.625H2879.62V955.253H2945.34V968.417H2864V851.224Z" fill="white"/>
<path d="M3016.64 971.29C3008.47 971.457 3000.37 969.857 2992.87 966.599C2986.33 963.63 2980.55 959.206 2975.97 953.661C2971.4 947.926 2967.99 941.345 2965.94 934.293C2963.63 926.485 2962.48 918.378 2962.54 910.234C2962.48 902.074 2963.71 893.955 2966.16 886.175C2968.39 879.023 2971.98 872.37 2976.73 866.58C2981.44 860.909 2987.37 856.383 2994.08 853.34C3001.57 849.969 3009.71 848.315 3017.92 848.498C3023.8 848.462 3029.65 849.304 3035.27 850.994C3040.53 852.641 3045.46 855.202 3049.84 858.56C3054.16 861.764 3057.8 865.803 3060.55 870.438C3063.46 875.546 3065.36 881.174 3066.13 887.007H3050.51C3049.3 879.466 3045.15 872.718 3038.97 868.244C3032.73 863.986 3025.32 861.791 3017.77 861.965C3011.56 861.811 3005.4 863.161 2999.81 865.899C2994.94 868.438 2990.72 872.092 2987.52 876.567C2984.05 881.075 2981.49 886.213 2979.97 891.698C2978.44 897.474 2977.68 903.426 2977.71 909.402C2977.67 915.802 2978.43 922.181 2979.97 928.392C2981.46 934.051 2984.02 939.369 2987.52 944.053C2990.76 948.505 2995 952.133 2999.89 954.645C3005.49 957.418 3011.68 958.769 3017.92 958.579C3022.58 958.662 3027.2 957.787 3031.5 956.007C3035.44 954.438 3038.99 952.038 3041.91 948.971C3044.87 945.879 3047.18 942.226 3048.7 938.227C3050.4 933.899 3051.39 929.327 3051.65 924.685H3067.26C3066.6 937.689 3061.23 950.005 3052.17 959.336C3042.35 967.831 3029.59 972.122 3016.64 971.29Z" fill="white"/>
<path d="M3090.73 851.224H3106.35V908.118L3165.73 851.224H3185.87L3130.12 903.503L3187.83 968.644H3168.14L3118.35 913.036L3106.35 924.158V968.569H3090.73V851.224Z" fill="white"/>
<path d="M3253.7 971.293C3245.3 971.495 3236.96 969.761 3229.33 966.223C3222.56 963.05 3216.56 958.427 3211.76 952.681C3207.02 946.916 3203.43 940.288 3201.19 933.161C3196.47 918.091 3196.47 901.929 3201.19 886.858C3203.41 879.678 3207 872.997 3211.76 867.187C3216.58 861.439 3222.57 856.795 3229.33 853.569C3237.02 850.16 3245.34 848.4 3253.74 848.4C3262.15 848.4 3270.46 850.16 3278.15 853.569C3284.91 856.795 3290.91 861.439 3295.73 867.187C3300.49 872.997 3304.07 879.678 3306.29 886.858C3311.02 901.929 3311.02 918.091 3306.29 933.161C3304.05 940.288 3300.47 946.916 3295.73 952.681C3290.93 958.427 3284.92 963.05 3278.15 966.223C3270.5 969.767 3262.13 971.501 3253.7 971.293ZM3253.7 958.279C3260.09 958.434 3266.41 957.004 3272.11 954.118C3277.12 951.442 3281.43 947.634 3284.71 942.996C3288.14 938.327 3290.7 933.072 3292.26 927.487C3295.28 916.006 3295.28 903.937 3292.26 892.457C3290.7 886.848 3288.15 881.568 3284.71 876.872C3281.43 872.257 3277.11 868.475 3272.11 865.826C3266.39 863.035 3260.11 861.585 3253.74 861.585C3247.38 861.585 3241.1 863.035 3235.37 865.826C3230.37 868.475 3226.06 872.257 3222.77 876.872C3219.31 881.55 3216.75 886.836 3215.23 892.457C3212.21 903.937 3212.21 916.006 3215.23 927.487C3216.75 933.084 3219.31 938.345 3222.77 942.996C3226.05 947.634 3230.37 951.442 3235.37 954.118C3241.05 956.995 3247.35 958.424 3253.7 958.279Z" fill="white"/>
<path d="M3332.93 851.224H3348.47V950.714L3407.32 851.224H3427.01V968.644H3411.47V868.852L3352.39 968.644H3332.93V851.224ZM3380.01 843.658C3372.46 844.051 3364.99 842.038 3358.65 837.908C3355.99 835.968 3353.83 833.419 3352.34 830.471C3350.86 827.523 3350.1 824.262 3350.13 820.961H3365.22C3365.32 822.729 3365.79 824.458 3366.59 826.034C3367.4 827.611 3368.52 829.001 3369.9 830.116C3372.91 831.964 3376.4 832.86 3379.93 832.688C3383.71 833.022 3387.48 832.062 3390.64 829.964C3393.11 827.603 3394.57 824.377 3394.72 820.961H3409.81C3409.84 824.122 3409.09 827.241 3407.62 830.04C3406.2 832.835 3404.16 835.268 3401.66 837.152C3398.85 839.314 3395.69 840.954 3392.3 841.994C3388.33 843.126 3384.21 843.636 3380.08 843.507L3380.01 843.658Z" fill="white"/>
<path d="M3506.67 851.224H3528.03L3564.92 949.578L3601.96 851.224H3623.24V968.644H3608.15V871.198L3571.63 968.871H3558.36L3521.76 871.198V968.871H3506.67V851.224Z" fill="white"/>
<path d="M3653.27 851.224H3734.08V864.388H3668.81V901.461H3729.7V914.625H3668.81V955.253H3734.68V968.417H3653.27V851.224Z" fill="white"/>
<path d="M3746.22 955.48H3757.68C3760.23 950.657 3762.27 945.587 3763.79 940.349C3765.75 933.959 3767.36 927.468 3768.62 920.905C3769.98 913.869 3771.04 906.303 3771.79 898.207C3772.55 890.112 3772.92 882.244 3772.92 874.148V850.77H3848.37V955.026H3861.27V997.319H3846.18V968.191H3760.93V997.319H3745.84L3746.22 955.48ZM3832.75 955.48V864.691H3788.01V881.638C3788.01 889.204 3787.64 896.165 3786.96 903.428C3786.28 910.691 3785.22 917.651 3784.01 924.158C3782.81 930.665 3781.3 936.642 3779.71 942.165C3778.42 946.83 3776.75 951.384 3774.73 955.783L3832.75 955.48Z" fill="white"/>
<path d="M3881.13 851.224H3896.75V950.714L3955.6 851.224H3975.29V968.644H3959.67V868.852L3900.67 968.644H3881.13V851.224Z" fill="white"/>
<path d="M4092.3 968.644H4004.93V851.224H4020.47V955.48H4079.02V851.224H4094.64V955.48H4107.24V997.773H4092.15L4092.3 968.644Z" fill="white"/>
<path d="M4127 851.224H4142.55V950.714L4201.4 851.224H4221.09V968.644H4205.55V868.852L4146.47 968.644H4127V851.224Z" fill="white"/>
<path d="M4250.81 851.223H4266.43V901.459H4328.07V850.996H4343.61V968.416H4328.07V914.623H4266.43V968.416H4250.81V851.223Z" fill="white"/>
<path d="M4373.26 851.224H4388.88V899.115H4423.81C4433.52 898.454 4443.09 901.663 4450.45 908.043C4456.44 915.312 4459.72 924.448 4459.72 933.88C4459.72 943.311 4456.44 952.448 4450.45 959.717C4443.07 966.068 4433.51 969.272 4423.81 968.644H4373.26V851.224ZM4418.53 955.48C4435.58 955.48 4444.11 948.293 4444.11 933.918C4444.11 919.391 4435.58 912.053 4418.53 912.053H4388.88V955.48H4418.53ZM4475.12 851.224H4490.66V968.644H4475.12V851.224Z" fill="white"/>
<path d="M776.285 1283C766.413 1283 756.57 1281.91 746.936 1279.75C707.061 1270.88 670.808 1250.09 642.969 1220.13H641.158C623.05 1221.87 603.434 1209.61 600.642 1182.68C597.323 1151.81 603.509 1105.2 612.865 1054.06C596.448 1031.75 577.651 1011.3 556.807 993.079C510.633 951.77 495.392 912.428 494.336 879.593C281.95 877.474 55.2282 795.537 9.2049 566.825C-36.0639 343.484 91.4433 198.222 225.514 136.712C281.497 111.064 338.687 100.17 383.201 104.104C420.397 50.1599 517.046 5.74893 598.002 0.982503C731.922 -6.58325 850.451 30.3376 941.064 108.34C982.334 143.597 1005.72 179.761 1006.93 208.814C1031.22 227.35 1055.22 264.271 1071.14 302.251C1084.71 336.522 1092.44 372.841 1094 409.684V420.957C1094 448.724 1094.37 477.322 1080.34 502.138C1086.54 528.583 1096.91 553.868 1111.05 577.039L1116.1 586.193C1132.34 616.945 1151.49 646.057 1173.29 673.124C1186.35 689.541 1193.51 698.62 1190.04 713.374C1186.35 729.337 1174.35 736.903 1153.6 745.377C1152.17 745.982 1147.87 747.646 1142.06 749.613C1139.91 764.943 1136.16 780.005 1130.89 794.554C1138.12 791.648 1146.14 791.407 1153.53 793.873C1160.69 796.597 1169.6 803.709 1171.33 822.32C1171.96 826.827 1171.4 831.42 1169.7 835.642C1168.01 839.863 1165.24 843.566 1161.67 846.379C1166.81 851.908 1169.78 859.107 1170.05 866.656C1170.86 871.27 1170.31 876.022 1168.46 880.324C1166.61 884.627 1163.54 888.292 1159.64 890.866C1150.88 896.162 1137 895.406 1122.37 891.623C1121.99 907.966 1123.39 924.302 1126.52 940.346L1127.95 949.501C1132.25 978.402 1127.95 999.132 1116.18 1011.16C1105.99 1021.3 1090.75 1024.86 1070.91 1021.75C1018.08 1013 966.205 999.167 916.015 980.444L912.469 979.158C913.374 999.056 913.752 1021.98 914.053 1047.25C914.808 1103.99 915.638 1162.55 924.239 1204.24C926.218 1211.17 929.44 1217.68 933.745 1223.46C969.659 1208.85 998.178 1199.25 1015.98 1208.32C1019.78 1210.22 1023.1 1212.94 1025.72 1216.3C1028.33 1219.65 1030.16 1223.54 1031.07 1227.69C1036.43 1247.59 1028.73 1262.34 1010.48 1267.26C988.521 1273.24 952.909 1262.57 930.35 1239.34L921.9 1242.82C877.537 1261.13 824.798 1283 776.285 1283ZM656.398 1215.29C682.004 1241.12 714.392 1259.14 749.803 1267.26C801.636 1278.38 865.239 1252.13 916.317 1230.95L921.146 1228.98C916.645 1222.51 913.277 1215.32 911.186 1207.72C902.208 1164.44 901.454 1105.2 900.699 1047.93C900.699 1023.42 900.02 997.619 898.813 974.694C871.576 964.102 853.091 945.793 850.073 926.122C849.138 920.074 849.924 913.884 852.339 908.263C854.755 902.642 858.703 897.818 863.73 894.346C866.99 891.245 871.078 889.159 875.497 888.34C879.916 887.521 884.477 888.004 888.627 889.731C902.887 896.843 908.697 923.021 911.262 965.389L919.863 968.415C969.321 986.859 1020.43 1000.49 1072.49 1009.12C1088.04 1011.54 1099.5 1009.12 1106.52 1002.23C1115.5 993.231 1118.22 976.283 1114.59 951.77L1113.24 942.691C1109.57 924.756 1108.23 906.422 1109.24 888.142C1084.43 878.886 1060.57 867.231 1038.01 853.34C1037.45 852.707 1037.03 851.963 1036.78 851.157C1036.52 850.35 1036.44 849.499 1036.53 848.658C1036.62 847.816 1036.89 847.004 1037.31 846.272C1037.74 845.541 1038.31 844.907 1039 844.412C1040.88 842.899 1085.02 830.113 1103.28 812.712C1106.69 809.467 1110.32 806.458 1114.14 803.708C1115.27 800.077 1116.56 796.143 1117.91 792.133C1122.49 779.68 1125.95 766.843 1128.25 753.775C1111.95 757.709 1092.26 759.676 1082.98 749.765C1079.13 745.452 1075.96 737.508 1082.98 723.814C1086.9 716.928 1092.93 711.494 1100.18 708.318C1107.42 705.142 1115.49 704.394 1123.2 706.186C1129.11 707.464 1134.36 710.838 1137.99 715.689C1141.62 720.539 1143.39 726.54 1142.96 732.59C1142.96 733.65 1142.96 734.709 1142.96 735.692C1144.77 735.087 1146.58 734.331 1148.4 733.574C1170.43 724.646 1175.18 719.123 1177.14 710.877C1179.1 702.63 1175.78 698.015 1162.88 681.749C1140.57 654.081 1120.99 624.309 1104.41 592.851L1099.43 583.848C1086.69 562.531 1076.77 539.642 1069.93 515.756C1066.43 519.16 1062.5 522.086 1058.23 524.457C1059.05 536.58 1058.13 548.757 1055.52 560.621C1051.44 581.427 1029.19 594.97 1010.25 596.104C983.692 597.693 953.965 585.361 952.456 562.74C952.016 558.472 952.459 554.16 953.757 550.072C955.055 545.984 957.181 542.209 960.001 538.983C968.678 528.996 984.673 523.322 1007.53 521.96H1008.59C1020.62 521.813 1032.58 520.006 1044.13 516.588C1040.43 503.348 1031.45 494.648 1016.13 487.838C971.243 475.128 952.456 496.085 935.858 514.545C931.352 519.952 926.295 524.872 920.768 529.223C916.424 532.633 911.403 535.072 906.042 536.377C900.681 537.682 895.103 537.822 889.684 536.789C885.603 535.53 881.87 533.336 878.78 530.382C875.69 527.428 873.327 523.793 871.878 519.766C866.823 508.039 871.878 494.194 885.081 480.727C911.337 454.701 977.505 428.523 1035.98 454.928C1050.96 462.12 1063.71 473.26 1072.87 487.158C1081.02 467.335 1080.87 444.714 1080.79 420.957C1080.79 417.25 1080.79 413.392 1080.79 409.76C1079.18 374.572 1071.81 339.888 1058.99 307.093C1046.85 275.976 1028.52 247.661 1005.12 223.87L1004.44 226.064C1002.43 232.661 998.47 238.489 993.079 242.773C987.688 247.058 981.125 249.594 974.261 250.047C969.975 250.444 965.654 249.883 961.61 248.405C957.565 246.926 953.898 244.568 950.872 241.498C948.294 238.729 946.335 235.442 945.125 231.854C943.915 228.266 943.482 224.461 943.855 220.692C945.138 210.629 954.192 199.281 971.62 196.33C978.754 195.314 986.028 196.447 992.519 199.583C987.917 178.626 970.564 150.255 932.161 117.798C923.258 110.232 914.129 102.666 904.622 96.0083C924.088 123.102 934.183 155.836 933.368 189.218C931.935 238.471 892.098 252.695 853.544 266.465C814.99 280.234 779.53 292.793 773.871 336.75C760.366 428.069 727.244 457.273 700.686 480.5C682.051 496.917 666.207 510.763 660.246 542.842C682.051 552.526 702.271 569.095 703.402 589.598C703.829 593.517 703.45 597.483 702.288 601.249C701.125 605.016 699.205 608.503 696.645 611.495C694.085 614.488 690.94 616.922 687.404 618.647C683.869 620.372 680.018 621.352 676.09 621.525C672.087 621.674 668.097 620.992 664.368 619.524C660.64 618.056 657.254 615.832 654.421 612.992C651.589 610.151 649.371 606.756 647.907 603.017C646.442 599.278 645.763 595.276 645.911 591.262C645.079 578.177 645.306 565.045 646.59 551.996C638.448 549.006 629.834 547.52 621.164 547.608C602.906 548.667 560.806 557.973 564.503 621.904C565.424 653.508 576.258 684.016 595.465 709.09C614.672 734.164 641.274 752.527 671.488 761.567C675.638 740.232 679.033 721.242 681.975 705.051C664.773 699.906 648.627 690.676 646.892 665.86C646.757 660.713 647.96 655.619 650.384 651.08C652.808 646.541 656.368 642.713 660.715 639.972C665.062 637.231 670.046 635.673 675.176 635.449C680.306 635.226 685.405 636.346 689.973 638.699C694.726 641.65 702.346 649.292 700.686 666.466C699.932 674.032 698.649 683.943 696.763 695.291L700.46 696.123C721.736 700.814 745.729 706.035 747.54 734.936C748.445 751.353 741.504 772.084 703.327 777.834C696.119 778.705 688.822 778.5 681.673 777.228C678.429 793.949 674.808 812.106 670.96 831.626C666.282 854.929 661.302 880.047 655.87 906.678C651.947 926.728 647.722 947.382 643.421 968.036C637.612 995.954 631.802 1024.17 626.823 1051.26C653.266 1087.99 669.111 1131.31 672.62 1176.47C673.867 1183.82 673.004 1191.37 670.132 1198.24C667.26 1205.11 662.496 1211.03 656.398 1215.29ZM943.101 1234.2C962.114 1251.37 989.879 1259.47 1006.78 1254.85C1017.87 1251.83 1021.87 1244.11 1018.17 1231.25C1017.73 1228.92 1016.78 1226.72 1015.38 1224.81C1013.99 1222.9 1012.18 1221.32 1010.1 1220.2C997.574 1214.15 971.998 1222.55 943.101 1234.35V1234.2ZM623.503 1069.64C615.958 1115.04 610.903 1154.91 613.77 1181.77C615.807 1201.06 628.86 1208.63 640.026 1207.57C651.192 1206.51 661.529 1196.67 659.718 1177.31C656.721 1138.97 644.277 1101.97 623.503 1069.64ZM507.615 879.593C508.822 909.478 522.704 945.415 565.634 983.471C584.066 999.721 601.032 1017.57 616.335 1036.81C620.787 1013.43 625.766 989.296 630.746 965.389C634.971 944.734 639.272 924.155 643.195 904.182C648.401 877.55 653.38 852.432 658.285 829.054L669.149 774.354C635.994 764.856 606.714 745.02 585.553 717.72C564.392 690.419 552.447 657.072 551.45 622.509C548.055 560.621 584.874 536.411 620.41 534.443C630.005 534.239 639.56 535.751 648.627 538.907C655.568 504.256 673.223 488.671 692.84 471.421C719.096 448.194 748.973 421.941 761.648 335.237C768.363 283.488 811.67 268.053 849.923 254.435C888.175 240.817 919.938 229.468 921.07 189.143C923.183 115.074 864.333 70.6631 860.712 68.0908C785.264 26.7061 696.159 8.09433 598.831 13.7686C513.122 18.762 433.298 62.0381 398.668 105.844C425.075 110.535 446.2 120.975 459.026 137.393C473.512 156.232 475.776 175.222 465.364 190.353C453.368 207.149 426.433 214.337 403.949 206.695C379.881 198.524 366.678 176.432 367.734 146.926C368.261 136.37 371.04 126.05 375.882 116.663C334.311 114.544 282.025 125.288 231.173 148.59C101.629 207.981 -21.2007 348.326 22.2574 564.177C60.585 754.531 235.926 865.672 494.939 866.807C495.837 855.084 498.377 843.547 502.484 832.534C511.991 807.265 535.757 790.847 557.788 794.705C575.216 797.505 586.156 812.182 587.137 833.896C588.193 858.106 568.124 878.004 541.868 879.29C530.249 879.29 518.932 879.517 507.615 879.593ZM880.479 900.853C877.115 901.252 873.954 902.678 871.425 904.938C868.302 906.967 865.839 909.867 864.337 913.281C862.836 916.695 862.362 920.475 862.975 924.155C864.56 934.672 874.745 949.652 897.908 960.168C895.72 929.224 891.419 905.77 882.818 901.382C882.083 901.047 881.287 900.867 880.479 900.853ZM1124.18 878.761C1136.47 882.09 1146.81 882.998 1152.39 879.517C1153.6 878.836 1157.22 876.567 1156.54 867.336C1155.86 858.106 1152.09 853.34 1146.36 852.886C1139.27 852.659 1129.31 860.603 1124.18 878.761ZM1060.12 850.767C1076.69 860.071 1093.94 868.089 1111.73 874.751C1114.21 864.842 1119.29 855.778 1126.44 848.498C1121.85 846.055 1117.99 842.437 1115.24 838.012C1112.5 833.587 1110.97 828.512 1110.82 823.304C1095.79 835.599 1078.63 845.011 1060.2 851.07L1060.12 850.767ZM551.903 806.886C543.411 807.698 535.347 811.001 528.718 816.384C522.089 821.766 517.189 828.989 514.631 837.149C511.053 846.655 508.794 856.609 507.917 866.731C518.781 866.731 529.721 866.353 540.812 865.823C560.202 864.991 574.764 851.07 574.009 834.198C573.33 819.067 566.464 809.08 555.675 807.34C554.434 807.073 553.171 806.921 551.903 806.886ZM1125.31 811.804C1123.61 816.85 1123.32 822.267 1124.48 827.465C1126.05 831.768 1129.16 835.337 1133.2 837.487C1137.23 839.637 1141.92 840.217 1146.36 839.116C1148.11 838.894 1149.8 838.323 1151.33 837.438C1152.85 836.554 1154.19 835.372 1155.26 833.964C1156.33 832.555 1157.1 830.947 1157.54 829.233C1157.98 827.52 1158.08 825.736 1157.83 823.985C1157.22 817.403 1155.03 808.853 1148.4 806.508C1144.42 805.683 1140.31 805.729 1136.35 806.643C1132.39 807.557 1128.68 809.318 1125.46 811.804H1125.31ZM683.937 764.442C689.775 765.583 695.748 765.863 701.667 765.275C736.071 760.13 735.091 741.972 734.713 735.995C733.733 717.989 720.076 714.13 697.895 709.288L694.877 708.607C691.859 724.394 688.263 743.006 684.088 764.442H683.937ZM1115.2 718.064C1111.06 717.999 1106.99 719.045 1103.39 721.094C1099.79 723.143 1096.81 726.12 1094.75 729.715C1093.39 732.212 1090.6 738.416 1092.79 740.837C1096.41 744.847 1111.2 744.771 1129.76 739.778C1129.76 737.357 1129.76 734.785 1129.76 732.212C1130.1 729.124 1129.28 726.019 1127.45 723.511C1125.62 721.004 1122.92 719.276 1119.88 718.669C1118.39 718.307 1116.88 718.104 1115.35 718.064H1115.2ZM676.769 648.157C673.519 648.257 670.349 649.195 667.565 650.88C665.068 652.259 663 654.303 661.589 656.787C660.177 659.27 659.478 662.096 659.567 664.953C660.699 680.841 669.3 687.65 683.786 691.962C685.521 681.446 686.728 672.443 687.407 665.255C687.936 659.884 687.407 652.772 682.73 650.124C681.018 648.93 679.003 648.248 676.92 648.157H676.769ZM658.737 557.368C657.93 568.475 657.93 579.626 658.737 590.733C659.492 604.502 668.093 608.966 675.487 608.512C677.609 608.417 679.69 607.895 681.607 606.977C683.524 606.059 685.237 604.764 686.645 603.169C688.052 601.574 689.126 599.711 689.801 597.692C690.477 595.672 690.74 593.537 690.576 591.414C690.124 577.871 675.713 565.312 658.888 557.065L658.737 557.368ZM1045.71 530.055C1033.76 533.207 1021.47 534.934 1009.12 535.2H1008.06C989.124 536.335 975.77 540.723 969.583 547.835C967.913 549.774 966.662 552.039 965.909 554.487C965.156 556.935 964.917 559.513 965.207 562.059C966.113 575.601 989.124 584.378 1009.19 583.243C1023.23 582.41 1039.98 572.726 1042.77 558.351C1044.86 548.964 1045.9 539.372 1045.86 529.753L1045.71 530.055ZM983.013 457.424C950.357 457.28 918.765 469.059 894.135 490.562C884.78 499.792 881.007 508.796 883.723 515.075C884.422 517.297 885.624 519.327 887.233 521.006C888.843 522.686 890.818 523.97 893.003 524.759C896.579 525.22 900.212 524.926 903.668 523.897C907.124 522.868 910.327 521.126 913.073 518.783C917.783 514.958 922.105 510.675 925.974 505.996C942.196 487.914 966.792 460.602 1020.28 475.733C1039 484.056 1050.46 495.177 1055.59 510.99C1059.53 508.261 1062.97 504.884 1065.78 501.003C1057.85 486.424 1045.59 474.684 1030.7 467.411C1015.77 460.62 999.558 457.112 983.164 457.121L983.013 457.424ZM976.6 209.797C975.646 209.719 974.687 209.719 973.733 209.797C962.944 211.613 957.361 217.893 956.757 222.886C956.573 224.744 956.795 226.621 957.407 228.385C958.02 230.149 959.008 231.758 960.303 233.1C962.026 234.77 964.098 236.037 966.368 236.809C968.638 237.58 971.05 237.838 973.431 237.564C977.717 237.286 981.812 235.681 985.149 232.971C988.487 230.26 990.904 226.578 992.067 222.432C992.798 220.172 993.279 217.837 993.5 215.472C988.568 211.979 982.774 209.911 976.751 209.495L976.6 209.797ZM390.293 118.025C384.635 126.831 381.287 136.929 380.56 147.38C379.428 179.686 397.234 190.656 407.948 194.287C424.924 200.113 445.672 194.968 454.499 182.787C461.591 172.801 459.479 160.09 448.463 145.715C437.448 131.34 416.323 121.505 390.293 118.025Z" fill="white"/>
</g>
<defs>
<clipPath id="clip0">
<rect width="4491.27" height="1283" fill="white"/>
</clipPath>
</defs>
</svg>
