<svg width="512" height="300" viewBox="0 0 512 300" fill="none" xmlns="http://www.w3.org/2000/svg">
<path d="M489.25 229.683C478.113 216.336 465.531 204.419 453.362 192.894C449.086 188.843 444.662 184.654 440.402 180.495C440.401 180.494 440.4 180.493 440.399 180.492C434.669 174.903 431.864 170.936 431.571 168.006C431.283 165.126 433.251 160.853 437.778 154.537C444.547 145.037 451.762 135.521 458.742 126.319C464.946 118.139 471.36 109.68 477.508 101.173L478.888 99.263C490.883 82.661 503.285 65.494 509.931 44.574C511.829 38.576 513.8 29.7 509.046 21.908C504.29 14.114 495.473 11.804 489.259 10.746C486.224 10.226 483.344 10.183 480.664 10.183L402.858 10.114C389.406 9.88998 380.074 16.266 374.988 29.07C370.918 39.296 366.111 51.147 360.542 62.389C349.887 84.092 336.348 109.089 316.724 129.916L315.852 130.844C314.516 132.27 312.333 134.602 311.212 135.137C309.086 133.801 306.633 126.16 306.745 122.157C306.748 122.058 306.749 121.96 306.749 121.862L306.68 31.959C306.68 31.502 306.648 31.045 306.587 30.592C304.842 17.766 301.44 4.90799 281.14 0.901985C280.489 0.772985 279.827 0.708984 279.165 0.708984H198.23C183.003 0.708984 174.949 7.68198 168.492 15.242C166.623 17.446 161.657 23.298 164.187 30.452C166.747 37.691 174.375 39.136 176.879 39.61C185.699 41.284 190.26 46.269 191.672 55.799C194.463 74.316 194.805 94.125 192.75 118.108C192.177 124.547 191.111 129.441 189.391 133.511C188.915 134.638 188.497 135.336 188.205 135.747C187.739 135.559 187.014 135.199 186.01 134.512C179.812 130.271 175.141 123.678 170.624 117.304C152.582 91.831 137.406 63.697 124.223 31.282C118.794 17.999 108.588 10.58 95.5042 10.388C70.5762 9.97299 47.5212 9.98298 25.0452 10.42C14.4442 10.604 7.01024 13.941 2.94624 20.34C-1.12276 26.751 -0.973763 34.925 3.39024 44.639C34.5862 114.009 62.9122 164.473 95.2322 208.267C117.989 239.099 140.897 260.501 167.324 275.621C195.09 291.506 226.404 299.291 262.732 299.29C266.863 299.29 271.066 299.189 275.325 298.986C297.738 297.965 306.857 289.05 307.852 267.221C308.41 255.684 309.694 246.338 314.149 238.218C315.395 235.945 316.801 234.421 317.909 234.142C319.087 233.848 321.176 234.569 323.499 236.078C327.746 238.836 331.403 242.576 334.41 245.859C337.458 249.196 340.538 252.643 343.519 255.976C349.862 263.073 356.421 270.412 363.293 277.412C378.836 293.256 396.754 300.522 416.571 299L487.776 299.033C487.778 299.033 487.779 299.033 487.78 299.033C488.006 299.033 488.232 299.026 488.458 299.011C496.671 298.464 503.772 293.917 507.942 286.533C512.963 277.641 512.887 266.378 507.735 256.393C502.359 246.012 495.384 237.077 489.25 229.683ZM490.181 276.504C489.199 278.243 487.988 278.56 487.363 278.636L416.173 278.603C416.171 278.603 416.169 278.603 416.166 278.603C415.885 278.603 415.604 278.614 415.325 278.638C401.3 279.806 389.379 274.876 377.851 263.126C371.312 256.464 364.914 249.307 358.727 242.385C355.712 239.012 352.595 235.523 349.463 232.095C345.579 227.853 340.778 222.978 334.609 218.972C325.373 212.977 317.719 213.158 312.926 214.366C308.183 215.561 301.441 218.971 296.266 228.415C289.562 240.634 288.083 253.816 287.481 266.269C287.133 273.885 285.845 275.897 285.307 276.408C284.602 277.078 282.246 278.256 274.385 278.615C236.609 280.391 204.907 273.626 177.454 257.919C153.572 244.255 132.66 224.628 111.645 196.157C80.2202 153.578 52.5702 104.27 21.9952 36.28C20.8872 33.817 20.5452 32.28 20.4462 31.457C21.2262 31.201 22.7502 30.864 25.4222 30.815C47.6702 30.384 70.4842 30.372 95.1872 30.784C98.5692 30.834 102.42 31.849 105.336 38.984C119.11 72.853 135.021 102.328 153.981 129.096C159.015 136.201 165.281 145.045 174.49 151.346C182.925 157.122 189.77 156.846 194.028 155.598C198.288 154.349 204.2 150.879 208.182 141.451C210.751 135.374 212.304 128.531 213.073 119.885C215.27 94.232 214.88 72.904 211.848 52.787C209.711 38.374 202.269 27.962 190.546 22.645C192.628 21.561 194.974 21.109 198.232 21.109H278.109C282.603 22.117 283.493 23.301 283.798 23.706C285.092 25.427 285.832 29.498 286.284 32.679L286.352 121.753C286.172 130.292 290.322 149.23 304.452 154.423C304.568 154.466 304.685 154.506 304.802 154.544C317.666 158.748 326.175 149.667 330.743 144.788L331.557 143.922C353.053 121.107 367.528 94.449 378.837 71.414C384.731 59.519 389.723 47.215 393.944 36.609C396.056 31.29 397.978 30.414 402.564 30.511C402.627 30.513 402.689 30.513 402.753 30.513L480.658 30.582C482.47 30.582 484.361 30.603 485.828 30.854C489.54 31.486 491.069 32.256 491.573 32.575C491.625 33.166 491.613 34.866 490.491 38.414C484.84 56.203 473.919 71.317 462.358 87.319L460.977 89.232C454.97 97.544 448.627 105.907 442.494 113.996C435.424 123.317 428.116 132.954 421.187 142.68C406.373 163.349 407.675 177.065 426.162 195.097C430.531 199.362 435.009 203.604 439.341 207.706C451.622 219.339 463.223 230.326 473.576 242.732C478.996 249.266 485.14 257.113 489.618 265.761C491.954 270.288 491.381 274.378 490.181 276.504Z" fill="#1C9DAC"/>
</svg>
